<svg id="Layers" xmlns="http://www.w3.org/2000/svg" viewBox="0 0 60 60"><defs><style>.cls-1{fill:none;}.cls-2{fill:#b5b5b5;}.cls-3{fill:#fff;}</style></defs><title>Complementary 60</title><g id="Backgrounds_Titles" data-name="Backgrounds &amp; Titles"><rect class="cls-1" x="-0.23341" y="-0.23341" width="60.46683" height="60.46683"/></g><g id="Icons_60" data-name="Icons 60"><g id="Complementary_Delivery_60" data-name="Complementary Delivery 60"><path class="cls-2" d="M24.36059,9.67236a.34353.34353,0,0,0-.34388.34388v5.29457a.34388.34388,0,0,0,.68776,0V10.01624A.34353.34353,0,0,0,24.36059,9.67236Z"/><path class="cls-2" d="M35.503,9.76937a.34353.34353,0,0,0-.34388.34388v5.24654a.34388.34388,0,1,0,.68776,0V10.11325A.34353.34353,0,0,0,35.503,9.76937Z"/><path class="cls-2" d="M23.78138,18.04838a.34353.34353,0,0,0-.34388.34388v9.10028a.34388.34388,0,1,0,.68776,0V18.39226A.34353.34353,0,0,0,23.78138,18.04838Z"/><path class="cls-2" d="M36.38576,18.325a.34353.34353,0,0,0-.34388.34388v9.0023a.34388.34388,0,0,0,.68776,0V18.6689A.34353.34353,0,0,0,36.38576,18.325Z"/><path class="cls-3" d="M58.88,29.10531H38.392a1.17743,1.17743,0,0,0,.05127-.25359v-.82127a.94192.94192,0,0,0,.49661-.81935V18.8514a.93286.93286,0,0,0-.19415-.55051,1.978,1.978,0,0,0,.392-1.25052,2.26975,2.26975,0,0,0-.778-1.49078V10.61466a1.15675,1.15675,0,0,0-1.0374-1.08927,47.615,47.615,0,0,0-14.84055-.01056,1.154,1.154,0,0,0-1.03452,1.0883v4.99212a2.21115,2.21115,0,0,0-.1801,2.74148.92811.92811,0,0,0-.17146.51467v8.3597a.93818.93818,0,0,0,.46011.79468v.84594a1.1776,1.1776,0,0,0,.05139.25359H1.12a1.1212,1.1212,0,0,0-1.12,1.12v.96151a1.122,1.122,0,0,0,1.12,1.121h.0781a11.63973,11.63973,0,0,0,7.86567,3.189h9.66305a1.60125,1.60125,0,0,0-.14493.87218.49069.49069,0,0,0,.15946.29778c.0365.03169,3.60975,3.22553,4.64043,4.51364a11.2471,11.2471,0,0,1,.803,1.25448,9.92719,9.92719,0,0,0,2.436,3.08818,21.085,21.085,0,0,0,5.66168,2.24169.48634.48634,0,0,0,.15447.52854l3.21594,2.65593a.49077.49077,0,0,0,.53214.06052l4.01223-1.998a.4916.4916,0,0,0,.26416-.34772l.707-3.71542a.49231.49231,0,0,0-.17-.47163L37.7824,41.82112a.49143.49143,0,0,0-.69256.06627l-.22969.27808a5.93887,5.93887,0,0,1,.1-3.323,10.7068,10.7068,0,0,1,2.11322-2.99116.4904.4904,0,0,0,.15176-.35061l-.00072-.00384h11.974a10.41589,10.41589,0,0,0,7.37429-3.189H58.88a1.122,1.122,0,0,0,1.12-1.121v-.96151A1.1212,1.1212,0,0,0,58.88,29.10531ZM22.07916,27.1794l-.0287-8.2963.998-.07588c2.312-.17674,4.64043-.26511,6.96881-.26511s4.65676.08837,6.96881.26511l.84949.03866a.48226.48226,0,0,0,.12067.0254V27.1794ZM37.644,16.22675a1.37156,1.37156,0,0,1,.51114.87549,1.113,1.113,0,0,1-.333.78111l-.76106-.05782a93.20075,93.20075,0,0,0-14.08748,0l-.818.0622a1.22628,1.22628,0,0,1,.051-1.65575,79.87551,79.87551,0,0,1,9.4504-.35637A59.4567,59.4567,0,0,1,37.644,16.22675ZM22.63448,10.48691a46.64651,46.64651,0,0,1,14.538.01152c.14793.02306.20364.10182.20364.11623v4.58826c-.76994-.08555-2.4212-.22-5.69224-.31092a81.357,81.357,0,0,0-9.253.32983v-4.6187C22.43084,10.58873,22.48655,10.51,22.63448,10.48691Zm-.0951,18.36481V28.163H37.45966v.68871a.25314.25314,0,0,1-.25263.25359H22.793A.25335.25335,0,0,1,22.53938,28.85172Zm.74155,7.97794-.22381-.75073a.46653.46653,0,0,1,.11143-.45242.38616.38616,0,0,1,.37653-.11815,1.55143,1.55143,0,0,1,.83568.50333,8.72557,8.72557,0,0,1,.97208,1.535,9.97742,9.97742,0,0,0,1.144,1.77511c-.24092-.1687-.4873-.35229-.74533-.56961C24.86926,38.00928,24.04289,37.37129,23.28093,36.82966Zm-1.22206-.82085c-.32827-.2025-.62785-.36693-.912-.512H22.139A1.43628,1.43628,0,0,0,22.05887,36.00881Zm15.47667,6.88428,2.61174,2.15741-.60706,3.19-3.507,1.74629-2.59062-2.13915Zm-1.48021-4.43871a7.54237,7.54237,0,0,0-.01729,4.47906.48466.48466,0,0,0,.074.13778l-3.179,3.84869c-1.0141-.26523-4.40636-1.20063-5.72442-2.18448a9.05823,9.05823,0,0,1-2.17469-2.79617,11.77416,11.77416,0,0,0-.88371-1.37359A59.9445,59.9445,0,0,0,19.55686,36.077a.17666.17666,0,0,1,.04419-.11719c.48028.024,2.25154.79534,5.51646,3.5454,3.313,2.78945,5.63845,1.84138,6.6307,1.437l.11142-.04611c.55328-.22092,1.23623-1.05469,2.30437-2.39754A14.91307,14.91307,0,0,1,36.52216,35.906a1.64627,1.64627,0,0,1,1.42834-.30162A10.97244,10.97244,0,0,0,36.05533,38.45438Zm-2.6617-.56865a11.29427,11.29427,0,0,1-1.9,2.09785l-.11719.048A4.33571,4.33571,0,0,1,29.1,40.42285c-.19553-.15771-.71531-.59152-1.56378-1.41616a7.53467,7.53467,0,0,1-1.31884-1.92879,10.27219,10.27219,0,0,0-.99951-1.58107H35.47017A22.52639,22.52639,0,0,0,33.39363,37.88573Zm17.80482-3.3725H9.06378A10.49463,10.49463,0,0,1,2.73163,32.3078H57.11306A9.279,9.279,0,0,1,51.19845,34.51323Zm7.81794-3.3264a.13839.13839,0,0,1-.1364.13736H1.12a.13839.13839,0,0,1-.1364-.13736v-.96151a.13818.13818,0,0,1,.1364-.1364H58.88a.13818.13818,0,0,1,.1364.1364Z"/><rect class="cls-3" x="31.34982" y="23.83572" width="0.37774" height="1.33679"/><rect class="cls-3" x="31.34982" y="23.32458" width="0.37774" height="0.33577"/><path class="cls-3" d="M33.64782,23.79015a.63768.63768,0,0,0-.63558.5172v-.47163h-.3778v1.33679h.3778v-.4837a.63274.63274,0,0,0,.64477.5202.64373.64373,0,0,0,.59314-.34016c.00882-.01957.02821-.05631.036-.0775.00462-.01225.00054-.03608-.01933-.03777h-.31969c-.01008.00169-.01993.002-.02647.01105-.01555.02191-.02876.0733-.05986.0954a.32482.32482,0,0,1-.50026-.18779.09.09,0,0,1,.00168-.05175.03089.03089,0,0,1,.02587-.016h.88287s.01531.00066.02089-.00588c.005-.006.00264-.01147.00294-.0197A.68632.68632,0,0,0,33.64782,23.79015Zm.26643.54415a.047.047,0,0,1-.02545.01093h-.49853a.04475.04475,0,0,1-.02329-.00666c-.01093-.00979-.00678-.02168-.00348-.03711a.28187.28187,0,0,1,.55556.00769A.02493.02493,0,0,1,33.91425,24.3343Z"/><path class="cls-3" d="M31.23593,24.86369l.002-.661c-.02611-.30894-.30689-.39647-.57027-.39833a.533.533,0,0,0-.49888.21912V23.82a.26892.26892,0,0,0-.07919-.00553.31873.31873,0,0,0-.33433.23756h-.005v-.2163h-.34532v.41868a.547.547,0,0,0-.54536-.47452.41511.41511,0,0,0-.3793.20448l.00042-.14672h-.36537v2.05066h.36309V25.04l.00517.00738a.43685.43685,0,0,0,.39646.15561.54286.54286,0,0,0,.52489-.47679v.44648h.36315v-.59591c0-.26259.07054-.44071.31344-.44071a.0757.0757,0,0,1,.04064.01345.55141.55141,0,0,0-.0284.11814h.32665c.01291-.14312.09258-.18658.23059-.18658.12782,0,.21493.04178.2267.1373.01392.1113-.0912.098-.31369.13123-.22506.03062-.53568.13616-.53568.43537a.41815.41815,0,0,0,.44023.42721.45385.45385,0,0,0,.42108-.15639c.01561.0395.03464.072.04737.11286h.361a.272.272,0,0,1-.04809-.11526A1.61894,1.61894,0,0,1,31.23593,24.86369Zm-2.45313.02905c-.23522.00078-.317-.1753-.317-.39022s.07666-.425.31452-.42709c.20958-.00174.29519.21745.29519.42709C29.07547,24.71744,28.99742,24.89208,28.7828,24.89274Zm2.11328-.16935c-.00949.09953-.06322.17356-.28973.2058-.08669.01236-.21042-.02336-.21991-.1379-.011-.13256.1331-.17555.24554-.1986a2.50164,2.50164,0,0,0,.25941-.05631A.90014.90014,0,0,1,30.89608,24.72339Z"/><path class="cls-3" d="M27.53582,24.86369l-.00108-.661c-.02618-.309-.3069-.39647-.57027-.39833-.33043-.0024-.55352.12313-.574.46328h.32671c.01279-.14318.09251-.18658.23053-.18658.12794,0,.21481.04178.22675.13724.01387.11136-.09125.098-.31368.13111a.57749.57749,0,0,0-.50867.33686V23.09417H25.989V25.1686h.36309v-.243a.42513.42513,0,0,0,.413.28649.45353.45353,0,0,0,.4212-.15627c.01567.03932.03458.07192.04737.11286h.361a.27111.27111,0,0,1-.04814-.11532A1.63964,1.63964,0,0,1,27.53582,24.86369Zm-.3431-.1403c-.00954.09953-.06309.17356-.28984.20586-.08663.01236-.21031-.02342-.21985-.138-.01093-.13256.1331-.17561.24566-.1986a2.43376,2.43376,0,0,0,.26019-.05937A1.07963,1.07963,0,0,1,27.19272,24.72339Z"/><path class="cls-3" d="M32.59932,23.81278A.27257.27257,0,0,0,32.52,23.8072a.31856.31856,0,0,0-.33421.23756l-.00516.00732v-.2163h-.34526v1.33685h.36309v-.59591c0-.23269.07054-.44071.31344-.44071a.31958.31958,0,0,1,.08741.01429Z"/><rect class="cls-3" x="32.63444" y="23.32458" width="0.3778" height="0.33577"/><path class="cls-3" d="M29.87723,25.5826c-.04094-.00342-.09167-.011-.09167-.05415,0-.04527.05337-.06214.11754-.06214.05055,0,.08874.02528.09126.068h.061c0-.07372-.04833-.11724-.1487-.11724-.106,0-.18539.02143-.18539.12073,0,.09605.12127.09743.20712.10968.03794.00546.078.01519.078.05205,0,.05307-.06375.07-.11538.07-.07228,0-.11581-.02209-.117-.07576h-.05811c-.00241.08518.038.12619.17121.12619.10356,0,.18275-.03782.18275-.124C30.06982,25.60632,29.97431,25.59047,29.87723,25.5826Z"/><polygon class="cls-3" points="30.585 25.76 30.468 25.44 30.398 25.44 30.274 25.76 30.157 25.44 30.094 25.44 30.235 25.815 30.308 25.815 30.432 25.496 30.546 25.815 30.624 25.815 30.766 25.44 30.71 25.44 30.585 25.76"/><rect class="cls-3" x="30.80536" y="25.43948" width="0.05589" height="0.37582"/><polygon class="cls-3" points="30.904 25.492 31.069 25.492 31.069 25.815 31.132 25.815 31.132 25.492 31.287 25.492 31.287 25.44 30.904 25.44 30.904 25.492"/><polygon class="cls-3" points="31.673 25.492 31.673 25.439 31.338 25.439 31.338 25.492 31.598 25.492 31.322 25.77 31.322 25.815 31.677 25.815 31.677 25.77 31.393 25.77 31.673 25.492"/><polygon class="cls-3" points="31.808 25.651 32.019 25.651 32.019 25.601 31.808 25.601 31.808 25.489 32.03 25.489 32.03 25.44 31.748 25.44 31.748 25.815 32.039 25.815 32.039 25.769 31.808 25.769 31.808 25.651"/><path class="cls-3" d="M32.38373,25.63237a.08883.08883,0,0,0,.06454-.09768c-.00108-.06988-.06027-.09479-.16984-.09515h-.16287v.37558h.05925v-.16H32.267a.21038.21038,0,0,1,.071.00649.06067.06067,0,0,1,.04.05913c.01.09552.01207.07558.022.09438h.0676c-.02755-.00739-.027-.0658-.034-.10368C32.43362,25.64156,32.38373,25.63237,32.38373,25.63237Zm-.10218-.02972h-.10422v-.11058h.10422c.10645-.00186.10765.02479.10765.05163C32.3892,25.57366,32.38722,25.60241,32.28155,25.60265Z"/><polygon class="cls-3" points="32.589 25.44 32.531 25.44 32.531 25.814 32.807 25.814 32.807 25.769 32.589 25.769 32.589 25.44"/><path class="cls-3" d="M33.05054,25.43954l-.19512.3748h.06082l.04923-.08663h.23341l.04209.08663h.0688l-.19908-.3748Zm-.06364.2357.09461-.18365.08988.18365Z"/><polygon class="cls-3" points="33.674 25.754 33.669 25.754 33.436 25.439 33.35 25.439 33.35 25.814 33.405 25.814 33.405 25.497 33.407 25.497 33.646 25.814 33.723 25.814 33.723 25.439 33.674 25.439 33.674 25.754"/><path class="cls-3" d="M33.95466,25.43576h-.15147v.37876h.15147a.31088.31088,0,0,0,.131-.02312.19226.19226,0,0,0,0-.33355A.31209.31209,0,0,0,33.95466,25.43576Zm.17182.18887a.1545.1545,0,0,1-.039.10151c-.01783.02156-.04778.03585-.13321.03585h-.09216v-.27472h.09216a.17729.17729,0,0,1,.13321.03584A.15454.15454,0,0,1,34.12648,25.62463Z"/></g></g></svg>