<svg id="Layers" xmlns="http://www.w3.org/2000/svg" viewBox="0 0 60 60"><defs><style>.cls-1{fill:none;}.cls-2,.cls-3{fill:#fff;}.cls-2{fill-rule:evenodd;}</style></defs><title>Personal Touch 60</title><g id="Backgrounds_Titles" data-name="Backgrounds &amp; Titles"><rect class="cls-1" x="-0.23341" y="-0.23341" width="60.46683" height="60.46683"/></g><g id="Icons_60" data-name="Icons 60"><g id="Follow_my_order_60" data-name="Follow my order 60"><path id="Fill-2" class="cls-2" d="M19.57725,32.82426l1.00244-.04638L20.46925,31.146c-.04867-.71924.11285-1.21973.78267-1.26221.12-.00781.15321.04932.246.06446l-.06436-.95117a.7329.7329,0,0,0-.21926,0,.88181.88181,0,0,0-.87764.71386l-.01388.001-.04009-.59229c-.3807.02588-.571.03907-.95172.06543C19.42949,30.64067,19.47874,31.3687,19.57725,32.82426Z"/><path id="Fill-4" class="cls-2" d="M24.94648,32.57622c.41712-.01953.62577-.0293,1.04281-.04932-.10244-1.51318-.15363-2.27-.256-3.78369-.41641.0293-.62474.04394-1.04121.07275C24.79381,30.32036,24.84468,31.07231,24.94648,32.57622ZM24.6587,28.3228c.4164-.02979.62468-.04541,1.041-.07568l-.06428-.95069c-.41617.03321-.62436.04932-1.0406.082C24.62037,27.75639,24.63315,27.94536,24.6587,28.3228Z"/><path id="Fill-6" class="cls-2" d="M32.95193,30.47173c.01268-.01856.0049-.03418.00424-.0586-.037-1.17773-.72441-2.28076-1.93986-2.1875A1.89991,1.89991,0,0,0,29.314,30.40239a1.90965,1.90965,0,0,0,2.008,1.96435,1.72823,1.72823,0,0,0,1.569-1.09082c.02048-.05908.06651-.17089.08371-.23486.01024-.03711-.00572-.10644-.06089-.10791-.3526.02246-.529.0332-.88166.05518-.02745.00634-.05457.00879-.0708.03662-.03855.06689-.06491.21972-.14621.28955a.78315.78315,0,0,1-.5407.20117.84408.84408,0,0,1-.87625-.666.27649.27649,0,0,1-.00568-.15087.08392.08392,0,0,1,.06839-.05079c.974-.06005,1.461-.0913,2.43462-.15527,0,0,.04228-.00049.05644-.021m-2.60162-.59327c-.03212-.02636-.02289-.062-.01691-.10742a.76666.76666,0,0,1,.71042-.72314.759.759,0,0,1,.82286.6416.07685.07685,0,0,1-.00828.07471.1263.1263,0,0,1-.0681.0371c-.54979.0376-.8246.05567-1.37447.09229a.11865.11865,0,0,1-.06552-.01514"/><path id="Fill-7" class="cls-2" d="M23.56077,30.85942a2.55526,2.55526,0,0,1,.04837.52148c-.00753.2793-.14167.49366-.76078.61475a.50459.50459,0,0,1-.633-.35156c-.05531-.36524.3344-.50586.64027-.5874A6.638,6.638,0,0,0,23.56077,30.85942ZM22.21113,30.189c.00876-.39844.22026-.5332.60083-.55762.35254-.02295.60042.07813.6511.34278.05928.3081-.2331.28906-.84041.418-.61512.12207-1.4523.46337-1.39659,1.28662a1.18569,1.18569,0,0,0,1.295,1.12011,1.221,1.221,0,0,0,1.133-.48925c.05062.10791.1092.19628.15207.30859l.99671-.04639a.79005.79005,0,0,1-.15484-.31738,4.66955,4.66955,0,0,1-.07469-.53027c-.04792-.74268-.07193-1.11377-.11985-1.85645-.13069-.86279-.92117-1.0542-1.64746-1.00879-.911.05615-1.50221.44531-1.49588,1.38526C21.67062,30.22221,21.85071,30.211,22.21113,30.189Z"/><path id="Fill-8" class="cls-2" d="M13.34678,31.44536a2.70113,2.70113,0,0,1,.04418.49756c-.00856.2622-.1433.46435-.76312.58349-.23685.0459-.58442-.02783-.63074-.32373-.0535-.34228.33624-.47851.64253-.55762A7.02465,7.02465,0,0,0,13.34678,31.44536Zm-1.34765-.6084c.01016-.37451.22229-.50293.6027-.52979.35267-.0249.59949.06788.6493.31592.058.28858-.23418.27295-.84163.3999-.61519.1211-1.45313.45069-1.40091,1.22266a1.14275,1.14275,0,0,0,1.28909,1.0376,1.27352,1.27352,0,0,0,1.13477-.46875c.05014.10058.1081.18359.15072.28906.39859-.02051.59784-.03076.99646-.05029a.71735.71735,0,0,1-.15347-.29737,4.162,4.162,0,0,1-.06371-.49853c-.04837-.69678-.07244-1.04492-.12081-1.74219-.1272-.80908-.91649-.98291-1.64249-.9331-.91087.062-1.50354.43457-1.50049,1.31689C11.45887,30.87358,11.63887,30.86137,11.99913,30.837Z"/><path id="Fill-9" class="cls-2" d="M17.80873,32.15092c-.649.03614-.90665-.42382-.9456-.99951s.13432-1.15283.78968-1.20117c.5775-.043.85372.53516.89211,1.10254C18.5843,31.63481,18.40086,32.1187,17.80873,32.15092Zm-1.66254,2.74756c.40131-.01465.60184-.022,1.00314-.03613-.0615-.90918-.09227-1.36377-.15379-2.273l.01547.019a1.25147,1.25147,0,0,0,1.12267.36573c1.06615-.04981,1.46416-1.06055,1.39911-2.022-.06928-1.02392-.6277-1.88623-1.71527-1.81347a1.16,1.16,0,0,0-1.00824.62207l-.02539-.39356c-.40282.02832-.60434.04248-1.00714.07129C15.92451,31.6226,15.99843,32.71489,16.14619,34.89848Z"/><path id="Fill-10" class="cls-2" d="M26.28685,32.51274c.40095-.019.6013-.02881,1.00226-.04834l-.115-1.69922c-.04493-.66357.10946-1.26953.77912-1.31445a.83478.83478,0,0,1,.2437.0249l-.06556-.96924a.73582.73582,0,0,0-.21964,0,.88808.88808,0,0,0-.87524.74366l-.01284.022-.04174-.6167c-.38062.02685-.57093.04053-.95154.06738C26.133,30.23881,26.18423,30.99663,26.28685,32.51274Z"/><path id="Fill-11" class="cls-2" d="M28.49246,32.40532c.417-.02051.6257-.03125,1.04272-.05225-.10455-1.54541-.15683-2.31836-.26143-3.86377-.41639.03076-.62472.0459-1.04113.07569C28.33656,30.10112,28.38853,30.86919,28.49246,32.40532Zm-.29392-4.34375c.41634-.03125.62462-.04688,1.04093-.0791l-.06568-.97022c-.41615.03418-.62435.05127-1.04051.085Z"/><path id="Fill-12" class="cls-2" d="M20.53216,34.211c.00907.23291.12822.34131.49623.32862.28612-.01026.49793-.12207.48186-.35938-.01668-.24658-.28348-.27978-.55315-.291-.11363-.00489-.25524-.02051-.26324-.13819-.00841-.12451.136-.17627.31326-.18359.13947-.00586.24959.05908.26448.17627.06748-.00244.10117-.00391.16864-.00684-.01373-.20263-.15532-.31689-.43263-.30517-.29269.0122-.508.08007-.48956.35156.01777.26269.353.2539.59254.27881.10585.01074.21822.0332.22509.13476.00987.146-.16323.19873-.30578.2041-.19969.00684-.32412-.04931-.33738-.19628Z"/><path id="Fill-13" class="cls-2" d="M21.98793,34.49321l.203-.00732c.11243-.3584.16866-.5376.281-.89747.15074.34913.22609.52393.37692.87452.08557-.00342.12829-.00489.21387-.00782.12893-.42285.19349-.63525.32229-1.06054-.06161.00293-.09248.0039-.1541.00634-.11375.36231-.17053.54248-.28439.90332-.15332-.35107-.22989-.52587-.38312-.87548l-.19571.0083c-.11277.35986-.16914.53955-.282.89795-.15319-.34864-.2297-.52295-.38279-.87061l-.17423.00733C21.71231,33.87944,21.80409,34.08354,21.98793,34.49321Z"/><path id="Fill-14" class="cls-2" d="M23.5646,34.43755c.06177-.00245.09278-.00342.15454-.00538-.02839-.41943-.04258-.62939-.071-1.04834l-.15447.00635Z"/><path id="Fill-15" class="cls-2" d="M24.29405,34.41167l.17442-.00635-.06131-.90527c.171-.00733.25659-.01075.42765-.01807l-.01-.14746c-.42334.01758-.635.02637-1.0584.04443l.00995.147c.18252-.00781.27391-.01123.45645-.019Z"/><path id="Fill-16" class="cls-2" d="M24.964,33.32866l.01.14746c.287-.01172.43046-.01807.71737-.02979-.28274.32666-.42407.48926-.70706.813l.00859.127c.3918-.01416.58757-.02149.97928-.03565l-.00864-.12793-.7837.0293c.28857-.32422.43278-.48731.7211-.81445l-.01-.14844C25.5202,33.30473,25.33477,33.313,24.964,33.32866Z"/><path id="Fill-17" class="cls-2" d="M26.97271,34.31352l-.00891-.13135c-.25515.00977-.38279.01416-.63794.02393l-.0227-.33545c.233-.00879.34956-.01367.58259-.02295l-.00953-.14111c-.233.00976-.34955.01416-.58257.02392l-.0215-.31787c.24483-.01025.3673-.01562.61214-.02588l-.00951-.14062-.77787.03418c.02879.4248.04319.63769.072,1.063C26.49045,34.33159,26.65115,34.32573,26.97271,34.31352Z"/><path id="Fill-18" class="cls-2" d="M27.29246,33.378l.28778-.01221c.29351-.01807.302.0581.30716.13476.0058.08594.006.16846-.28579.18116-.11518.00488-.17264.00683-.28782.01171Zm.27916.45507a.56122.56122,0,0,1,.19731.01075.17948.17948,0,0,1,.122.16455c.04593.272.04782.21484.07891.26757.07469-.00293.112-.00439.18672-.00683-.07759-.01856-.08733-.186-.11406-.29346-.01354-.20019-.15306-.2207-.15306-.2207a.24774.24774,0,0,0,.15933-.28711c-.0166-.19971-.18477-.26416-.48747-.25147l-.44963.01954c.029.42822.04344.64209.0724,1.06982l.16377-.00586-.03087-.45654C27.41887,33.8394,27.46974,33.83745,27.57162,33.83305Z"/><path id="Fill-19" class="cls-2" d="M29.09288,34.23051l-.00881-.13037c-.24014.00977-.36009.01465-.60023.02393l-.064-.94531c-.064.00293-.096.0039-.16.00683l.0727,1.07422Z"/><path id="Fill-20" class="cls-2" d="M29.39563,34.21831c.04767-.10205.07136-.15332.119-.25537l.64459-.02686c.05327.09815.08.14746.13327.24609.076-.00293.114-.00439.19-.00781-.24933-.42627-.37407-.63867-.62322-1.0625-.06636.00342-.09965.00488-.166.00781-.18618.44385-.27928.66456-.46566,1.10547C29.29484,34.22221,29.3284,34.22124,29.39563,34.21831Zm.3932-.95215c.11368.208.17052.3125.28423.521-.20374.00879-.30574.01319-.50949.02149C29.65365,33.59184,29.6988,33.48344,29.78883,33.26616Z"/><path id="Fill-21" class="cls-2" d="M31.41334,33.03764l.062.917-.01245.00048c-.28284-.35547-.42415-.53271-.70682-.88574-.09441.0044-.14148.00684-.23589.01123.02948.436.04421.65332.07367,1.08936l.15229-.00635-.06246-.92334.00353-.00049c.28979.35694.43466.53613.72462.896.08419-.00342.12627-.00537.21045-.00879-.02963-.43848-.04445-.65772-.07408-1.0957Z"/><path id="Fill-22" class="cls-2" d="M31.94317,33.1519l.25452-.01221a.47725.47725,0,0,1,.3748.08692.48249.48249,0,0,1,.12763.29345.46558.46558,0,0,1-.08728.30372c-.04487.06543-.12485.11132-.36066.12158-.10185.00488-.15273.00683-.25459.01123Zm-.098.96582c.16739-.00732.251-.01074.41834-.01807a.80181.80181,0,0,0,.35723-.084.51736.51736,0,0,0,.23346-.50293.541.541,0,0,0-.29976-.47754.81751.81751,0,0,0-.36607-.04687c-.1673.0083-.25084.01269-.41815.021Z"/><path id="Fill-1" class="cls-2" d="M10.14839,33.28667c.40076-.02246.601-.03369,1.0018-.05518-.145-2.1416-.21741-3.21289-.36217-5.35351-.39984.03564-.59961.05371-.9994.09033C9.9324,30.09526,10.00438,31.15923,10.14839,33.28667Z"/><path class="cls-3" d="M59.81365,14.397,52.55379,8.64711a72.75131,72.75131,0,0,0-.168-.086.48878.48878,0,0,0-.19511-.01681h-.00288L.43129,14.98868A.4917.4917,0,0,0,0,15.47665v34.5828a.49223.49223,0,0,0,.48316.4918l51.75653.90772h.00907a.462.462,0,0,0,.063-.00384l7.25986-.949A.493.493,0,0,0,60,50.01814v-35.236A.49033.49033,0,0,0,59.81365,14.397Zm-19.6573,8.6738,1.06315,5.50829-.82,21.68834-1.69976-.02978,1.3237-27.188C40.06708,23.05925,40.11216,23.0631,40.15635,23.07078Zm1.72107,8.91682,3.54534,18.36818-4.23694-.07445Zm-.90766-8.85342A4.02627,4.02627,0,0,0,42.47783,22.81l5.63262,27.59285-1.88376-.03314Zm-.09438-.77805a3.2606,3.2606,0,1,1,3.26108-3.26108A3.264,3.264,0,0,1,40.87538,22.35613Zm-1.41423-7.0399-.79072-4.09772,1.48628-.1849L40.95,15.055c-.02546-.00048-.04905-.00768-.07463-.00768A4.0033,4.0033,0,0,0,39.46115,15.31623Zm2.31091-.16089-.83238-4.21923,1.22026-.15177-.27273,4.40654C41.848,15.1808,41.81168,15.164,41.77206,15.15534ZM.98361,15.91082,37.888,11.316l.84151,4.36091a4.0318,4.0318,0,0,0,.51864,7.11914L37.9128,50.2237.98361,49.57629Zm50.77292,34.5559-2.84065-.05L43.1971,22.40224a4.02355,4.02355,0,0,0-.539-6.92319l.29675-4.79364,8.80173-1.096Zm7.25986-.87987-6.27625.81984V10.049l6.27625,4.97134Z"/></g></g></svg>