<svg id="Layers" xmlns="http://www.w3.org/2000/svg" viewBox="0 0 60 60"><defs><style>.cls-1{fill:#fff;}</style></defs><title>Free Samples 60</title><g id="Icons_60" data-name="Icons 60"><g id="Free_Samples_60" data-name="Free Samples 60"><path class="cls-1" d="M55.57569,35.19371h-.44954V23.66419a.49273.49273,0,0,0-.19979-.39575.485.485,0,0,0-.43609-.074l-1.9785.60683.01705-9.37572.997-11.16931a.4849.4849,0,0,0-.01123-.09558.48068.48068,0,0,0-.01951-.24926L52.49808.31506A.49262.49262,0,0,0,52.03893,0H7.379a.49257.49257,0,0,0-.4822.39575L6.38,2.99212a.48854.48854,0,0,0,.00157.1974.47359.47359,0,0,0-.00733.08116l1.314,11.01083v9.08683L5.77869,22.719a.49251.49251,0,0,0-.6503.46586V35.19371H4.42431a.49152.49152,0,0,0-.4918.4918V59.5082A.49152.49152,0,0,0,4.42431,60H55.57569a.49152.49152,0,0,0,.4918-.4918V35.68551A.49152.49152,0,0,0,55.57569,35.19371Zm-4.853-10.8438.26925-3.02082c.02209-.24879.03362-.49757.03266-.74539,0-.2094-.00961-.41977-.0269-.62725L50.892,18.68468H38.36162L38.256,19.95645a7.90276,7.90276,0,0,0,.00576,1.3736l.611,6.654-3.17085.97244,1.383-14.11329,14.46131.02906L51.52768,24.103Zm-5.67976,1.74184h-.33475a.7158.7158,0,0,0,.58786-.7293.72794.72794,0,0,0-.3847-.67071c-.02215-.01008-.0637-.03194-.08771-.04082-.01381-.005-.04083-.00048-.04269.022v.36153c.00186.01141.00229.02257.01255.03.02474.01753.08285.03242.10782.0676a.36742.36742,0,0,1-.2124.56588.10234.10234,0,0,1-.05847-.00192.03487.03487,0,0,1-.01807-.0293v-.99849s.00072-.01729-.00667-.02365c-.00684-.00565-.013-.003-.02227-.00325a.7761.7761,0,0,0-.89211.73158.72129.72129,0,0,0,.58455.71886h-.533v.39875l-3.90916,1.19889-.54535-5.93958H49.9669l-.25635,2.87685.08519.00745Zm-.7314-.40127c-.011.01248-.02449.00768-.0419.00408a.31885.31885,0,0,1,.00864-.62844.02821.02821,0,0,1,.02846.00552.0533.0533,0,0,1,.01237.02882v.56372A.04958.04958,0,0,1,44.31152,25.69048Zm-5.0758-5.65334.03074-.36885H49.98719l.03074.36981c.01537.18155.023.36309.023.54752.00024.06027-.0066.12043-.00792.18058H39.2392A6.96814,6.96814,0,0,1,39.23572,20.03714ZM27.17934,29.9952,25.47477,14.44672H36.13541L34.682,29.26926l-5.06716,1.55393Zm-1.7679-17.20255.02881-.32947H36.16387l.02978.32947c.01537.171.02209.34292.02305.51486.00024.05187-.00642.10373-.00756.1556H25.41486A5.96837,5.96837,0,0,1,25.41144,12.79265ZM51.70082.98361l.66686,1.73668H7.43672L7.7824.98361ZM7.41643,3.70389H52.49808L51.591,13.88864l-14.41755-.02882c.01441-.18586.02762-.37173.0269-.55712q-.00144-.29969-.0269-.5965l-.10854-1.22663H24.53925l-.10758,1.22567a7.09141,7.09141,0,0,0-.00354,1.11712l-15.81155-.0317ZM8.66827,14.77427l15.856.03194,1.62711,14.83935L22.027,28.24339l.02827.00264.64261-6.85451q.03459-.37029.03362-.74443c-.001-.20652-.0096-.414-.02689-.61955l-.10566-1.26409H10.06852l-.10566,1.26409a7.68142,7.68142,0,0,0,.00576,1.35438l.219,2.836-1.51588-.51534ZM17.63612,26.3242v.2459h-.37258v.0538l-.33853-.11527.03626.01032v-.4272h-.54662a.71585.71585,0,0,0,.58792-.7293.72794.72794,0,0,0-.3847-.67071c-.02215-.01008-.06369-.03194-.08771-.04082-.01387-.005-.04082-.00048-.04268.022v.36153c.00186.01141.00222.02257.01248.03.02474.01753.08291.03242.10789.0676a.36744.36744,0,0,1-.21241.56588.10255.10255,0,0,1-.05853-.00192.03473.03473,0,0,1-.018-.0293v-.99849s.00072-.01729-.00672-.02365c-.00679-.00565-.013-.003-.02228-.00325a.776.776,0,0,0-.892.73158.72123.72123,0,0,0,.58456.71886h-.28379l-4.49887-1.52968-.21666-2.81226h10.6927l-.579,6.17732-3.79833-1.29147h.38879V26.3242Zm-1.618-.63372c-.01105.01248-.0245.00768-.042.00408a.31886.31886,0,0,1,.00865-.62844.02814.02814,0,0,1,.02845.00552.05281.05281,0,0,1,.01237.02882v.56372A.05.05,0,0,1,16.01807,25.69048Zm-5.07545-5.58034.03074-.36309H21.6941l.03073.36309c.01537.18059.0221.36117.02306.54176.00018.03818-.00481.07612-.00529.1143H10.9458C10.94274,20.54708,10.92461,20.328,10.94262,20.11014ZM6.112,23.87167l23.33664,7.93417a.47957.47957,0,0,0,.30258.00384l24.39133-7.47983V35.19371H6.112ZM55.08389,59.01639H4.91611V36.17732H55.08389Z"/><rect class="cls-1" x="33.63095" y="45.59794" width="1.15176" height="4.07599"/><rect class="cls-1" x="33.63095" y="44.03969" width="1.15176" height="1.02371"/><path class="cls-1" d="M40.63765,45.45914a1.954,1.954,0,0,0-1.938,1.48V45.59794H37.54785v4.076h1.15182V48.299a1.93692,1.93692,0,0,0,1.966,1.48622,1.963,1.963,0,0,0,1.80843-1.03716c.02695-.05956.086-.1717.10968-.2363.014-.03746.00168-.1101-.059-.11514h-.97472c-.03067.005-.06069.006-.08074.03374-.04731.06663-.08765.22332-.18239.2908a.99046.99046,0,0,1-1.5253-.57261.274.274,0,0,1,.005-.15777.09422.09422,0,0,1,.079-.04863h2.69177s.04671.00193.0637-.018c.01531-.01837.008-.03506.009-.06A2.09257,2.09257,0,0,0,40.63765,45.45914Zm.81233,1.659a.14285.14285,0,0,1-.07769.03326h-1.52a.13515.13515,0,0,1-.071-.02029c-.03332-.02966-.02065-.06592-.01068-.113a.8595.8595,0,0,1,1.69405.0233A.07632.07632,0,0,1,41.45,47.11814Z"/><path class="cls-1" d="M33.28371,48.73235l.00637-2.0156c-.07973-.94194-.9357-1.20874-1.73873-1.21438a1.64553,1.64553,0,0,0-1.52121.64357v-.59578a.82465.82465,0,0,0-.24146-.01669.97184.97184,0,0,0-1.01939.72437H28.754v-.65966H27.70122v1.2372a1.66483,1.66483,0,0,0-1.6629-1.40745,1.26535,1.26535,0,0,0-1.15645.62364l.00132-.44762H23.76907v6.2526h1.10716V49.26978l.01567.02245a1.33236,1.33236,0,0,0,1.20879.47452,1.653,1.653,0,0,0,1.60053-1.43147v1.33889h1.10709V47.85741c0-.80063.21511-1.34382.95569-1.34382a.23461.23461,0,0,1,.09606.02354,2.00142,2.00142,0,0,0-.05877.37773h.99609c.03938-.43645.2821-.56888.70294-.56888.38987,0,.65528.12751.6913.41856.04233.33943-.27814.29873-.95641.40007-.68625.09341-1.6333.4152-1.6333,1.3276a1.275,1.275,0,0,0,1.34219,1.30263,1.38394,1.38394,0,0,0,1.28384-.47691c.04773.12031.10572.21936.14445.34412h1.10073a.82962.82962,0,0,1-.14672-.35157A4.93794,4.93794,0,0,1,33.28371,48.73235Zm-7.47947.08861c-.71729.00228-.96673-.53455-.96673-1.18976,0-.655.23377-1.29591.959-1.30227.639-.00529.9.663.9,1.30227C26.6966,48.28641,26.4585,48.81892,25.80424,48.821Zm6.44339-.51642c-.029.30342-.19271.52915-.88334.62748-.26446.03771-.64159-.07132-.67059-.42048-.03368-.40415.40583-.53527.74863-.60563a7.59258,7.59258,0,0,0,.791-.1717A2.74622,2.74622,0,0,1,32.24763,48.30454Z"/><path class="cls-1" d="M22.00213,48.73247,21.99877,46.717c-.07966-.94206-.9357-1.20886-1.73866-1.21462-1.00744-.00732-1.68769.37558-1.75007,1.41261h.9961c.039-.43645.2821-.56888.70294-.56888.39017,0,.65492.12739.6913.41844.04232.33955-.27814.29885-.95641.39983a1.86291,1.86291,0,0,0-1.55094.92117V43.337H17.28594v6.32489H18.393v-.697a1.31046,1.31046,0,0,0,1.25947.82956,1.38323,1.38323,0,0,0,1.2842-.47655c.04767.12007.10536.21948.14438.34412h1.1008a.826.826,0,0,1-.14673-.35145A5.01314,5.01314,0,0,1,22.00213,48.73247Zm-1.0461-.42793c-.029.30354-.19241.52927-.88371.6276-.26409.03771-.64123-.07144-.67022-.4206-.03338-.40415.40583-.53551.74893-.60551a7.36478,7.36478,0,0,0,.79335-.18106A3.28885,3.28885,0,0,1,20.956,48.30454Z"/><path class="cls-1" d="M37.44075,45.52806a.82889.82889,0,0,0-.24176-.01693.97122.97122,0,0,0-1.01909.72438l-.01567.02233v-.65966H35.11146v4.076h1.1071V47.85741c0-.70961.21511-1.34382.95575-1.34382a.966.966,0,0,1,.26644.04371Z"/><rect class="cls-1" x="37.54785" y="44.03969" width="1.15182" height="1.02371"/><path class="cls-1" d="M29.141,50.92421c-.1247-.01032-.27941-.03362-.27941-.165,0-.13808.1627-.18947.35847-.18947.15405,0,.27046.07708.27808.207h.18611c0-.22465-.14739-.35733-.4535-.35733-.32317,0-.56529.06532-.56529.36813,0,.29273.36987.297.63163.3344.11568.01669.23773.04646.23773.15873,0,.16173-.19439.21336-.3518.21336-.22039,0-.35312-.06724-.35679-.231h-.1771c-.00732.25983.11575.38482.52188.38482.31578,0,.55724-.11539.55724-.3781C29.72828,50.99661,29.43718,50.94823,29.141,50.92421Z"/><polygon class="cls-1" points="31.3 51.464 30.944 50.488 30.728 50.488 30.35 51.464 29.994 50.488 29.801 50.488 30.231 51.634 30.455 51.634 30.831 50.659 31.181 51.634 31.417 51.634 31.851 50.488 31.681 50.488 31.3 51.464"/><rect class="cls-1" x="31.97094" y="50.48788" width="0.17038" height="1.14594"/><polygon class="cls-1" points="32.272 50.648 32.776 50.648 32.776 51.634 32.968 51.634 32.968 50.648 33.44 50.648 33.44 50.488 32.272 50.488 32.272 50.648"/><polygon class="cls-1" points="34.618 50.648 34.618 50.488 33.594 50.488 33.594 50.648 34.386 50.648 33.547 51.495 33.547 51.633 34.628 51.633 34.628 51.495 33.763 51.495 34.618 50.648"/><polygon class="cls-1" points="35.028 51.131 35.671 51.131 35.671 50.98 35.028 50.98 35.028 50.638 35.704 50.638 35.704 50.488 34.845 50.488 34.845 51.633 35.732 51.633 35.732 51.492 35.028 51.492 35.028 51.131"/><path class="cls-1" d="M36.93549,51.31708c0-.213-.15206-.2411-.15206-.2411a.27081.27081,0,0,0,.19673-.29777c-.0033-.213-.18371-.28913-.51786-.29009h-.49654v1.14522h.18076v-.488h.28108a.64352.64352,0,0,1,.21643.01969.18528.18528,0,0,1,.12205.18034c.03037.29117.03668.23054.06706.28793h.206C36.95519,51.61053,36.95681,51.43259,36.93549,51.31708Zm-.46352-.33175h-.31783v-.33716H36.472c.32448-.00564.32815.07577.32815.15741C36.80012,50.897,36.79411,50.98473,36.472,50.98533Z"/><polygon class="cls-1" points="37.41 50.489 37.234 50.489 37.234 51.631 38.073 51.631 38.073 51.493 37.41 51.493 37.41 50.489"/><path class="cls-1" d="M38.81656,50.48812l-.59494,1.14282h.18544l.15-.26415h.71165l.12841.26415h.2097L39,50.48812Zm-.19409.7185.28846-.55977.27412.55977Z"/><polygon class="cls-1" points="40.716 51.445 40.703 51.445 39.99 50.488 39.73 50.488 39.73 51.631 39.898 51.631 39.898 50.663 39.902 50.663 40.633 51.631 40.865 51.631 40.865 50.488 40.716 50.488 40.716 51.445"/><path class="cls-1" d="M41.97264,50.54383a.95315.95315,0,0,0-.39947-.06736h-.46191V51.6313h.46191a.947.947,0,0,0,.39947-.07036.58638.58638,0,0,0,0-1.01711Zm.0057.818c-.05439.06568-.14576.10939-.40619.10939H41.291v-.83761h.28115a.5401.5401,0,0,1,.40619.10927.46281.46281,0,0,1,0,.61895Z"/><path class="cls-1" d="M17.68721,26.20029l-.098-.05571v-.26391l.098-.04755v-.0778l-.42391.225v.06808l.42391.22069Zm-.15735-.07984-.20772-.107.20772-.10169Z"/><polygon class="cls-1" points="17.687 25.647 17.328 25.647 17.328 25.646 17.687 25.375 17.687 25.288 17.263 25.288 17.263 25.344 17.618 25.344 17.618 25.349 17.263 25.613 17.263 25.71 17.687 25.71 17.687 25.647"/><path class="cls-1" d="M17.68733,25.02589a.35186.35186,0,0,0-.02606-.14816.2175.2175,0,0,0-.37731,0,.3532.3532,0,0,0-.025.14816v.17134h.42835Zm-.05938.10459h-.31074v-.10422a.19976.19976,0,0,1,.04059-.15057.17117.17117,0,0,1,.22957,0c.02437.02005.04058.054.04058.15057Z"/><rect class="cls-1" x="29.33992" y="20.2415" width="0.37978" height="0.42721"/><rect class="cls-1" x="29.91799" y="20.2415" width="1.51197" height="0.42721"/><path class="cls-1" d="M30.45176,18.78854H29.918v.42733H31.43v-.42733h-.54733a.71561.71561,0,0,0,.58858-.7293.7281.7281,0,0,0-.3847-.67082c-.02216-.01-.0637-.03194-.08771-.04059-.01381-.00528-.04083-.00072-.04263.02185v.36153c.0018.01141.00222.02246.01249.0299.02473.01753.08285.03266.10782.06772a.36733.36733,0,0,1-.21234.56577.10054.10054,0,0,1-.05854-.00193.03485.03485,0,0,1-.01807-.02929v-.9985s.00078-.01729-.00666-.02353c-.00678-.00576-.013-.003-.02227-.00336a.77619.77619,0,0,0-.89212.7317A.72121.72121,0,0,0,30.45176,18.78854Zm.00168-1.02563a.02819.02819,0,0,1,.02846.0054.05318.05318,0,0,1,.01236.02882V18.361a.05042.05042,0,0,1-.00756.02641c-.011.01225-.02449.00757-.0419.00384a.31878.31878,0,0,1,.00864-.62832Z"/><path class="cls-1" d="M29.92021,23.91369V24.327h2.31932v-.41063h-.95947l.00828-.00589a.49417.49417,0,0,0,.176-.44846.61381.61381,0,0,0-.53887-.59362H31.43v-.41063h-.67388c-.297,0-.49853-.07985-.49853-.35457a.08611.08611,0,0,1,.01525-.046.61676.61676,0,0,0,.13363.03218v-.36957c-.16191-.01453-.211-.10458-.211-.26079,0-.14456.04725-.243.15525-.25635.12589-.01573.11083.10314.14841.35481.03464.25454.154.60587.49246.60587a.4729.4729,0,0,0,.48316-.49793.5134.5134,0,0,0-.17686-.47632c.04466-.01753.0814-.03914.12763-.05355V20.7273a.30856.30856,0,0,1-.13039.05439,1.83165,1.83165,0,0,1-.21445.01585l-.74767-.00228c-.3494.02954-.4484.347-.4505.64489a.60308.60308,0,0,0,.24777.5642h-.23a.30459.30459,0,0,0-.00618.08958.36043.36043,0,0,0,.26865.37821v.00577h-.2447v.39046h.4735a.61871.61871,0,0,0-.53665.6168.46973.46973,0,0,0,.23131.429ZM30.922,21.18188c.11257.01081.19631.07156.23282.32767.014.0981-.02648.238-.156.24866-.15.01261-.19854-.15044-.22465-.2776a2.821,2.821,0,0,0-.0637-.29345A1.01986,1.01986,0,0,1,30.922,21.18188Zm-.24974,2.05919c.243,0,.44059.08825.44131.33091.0009.26607-.19829.35864-.44131.35864s-.4807-.08681-.483-.35576C30.18719,23.33784,30.43507,23.24107,30.67221,23.24107Z"/><path class="cls-1" d="M31.43,19.70887h-.67388c-.26326,0-.49853-.07972-.49853-.35444a.362.362,0,0,1,.01621-.09894h-.3817a.30579.30579,0,0,0-.00631.08981.36033.36033,0,0,0,.26866.378l.00828.00576h-.2447v.39047H31.43Z"/><rect class="cls-1" x="29.33992" y="18.78854" width="0.37978" height="0.42733"/><path class="cls-1" d="M31.843,22.51057c.1086,0,.11023-.13712.12409-.23414.00619-.043.01717-.08825.0589-.08825.06,0,.07912.07216.07912.13052,0,.08164-.025.13087-.08567.13231v.06568c.09636.00276.14271-.04287.14271-.19367,0-.11707-.04281-.20664-.14025-.20664-.10133,0-.11928.10794-.12817.21792-.00384.04623-.01249.10362-.06123.10362-.05121,0-.07024-.06039-.07024-.13291,0-.05716.02857-.10038.07678-.10326v-.069c-.08333,0-.13256.05463-.13256.16822C31.70648,22.42075,31.73068,22.51057,31.843,22.51057Z"/><polygon class="cls-1" points="32.157 21.49 31.732 21.329 31.732 21.392 32.094 21.533 31.732 21.666 31.732 21.746 32.094 21.886 31.732 22.018 31.732 22.089 32.157 21.93 32.157 21.847 31.795 21.707 32.157 21.578 32.157 21.49"/><rect class="cls-1" x="31.73188" y="21.22126" width="0.42504" height="0.06328"/><polygon class="cls-1" points="32.157 20.915 31.791 20.915 31.791 20.739 31.732 20.739 31.732 21.173 31.791 21.173 31.791 20.986 32.157 20.986 32.157 20.915"/><polygon class="cls-1" points="31.732 20.682 31.791 20.682 31.791 20.389 32.106 20.7 32.157 20.7 32.157 20.299 32.106 20.299 32.106 20.62 31.791 20.303 31.732 20.303 31.732 20.682"/><polygon class="cls-1" points="31.732 19.9 31.732 20.218 32.157 20.218 32.157 19.889 32.104 19.889 32.104 20.15 31.971 20.15 31.971 19.912 31.915 19.912 31.915 20.15 31.788 20.15 31.788 19.9 31.732 19.9"/><path class="cls-1" d="M31.95,19.49935a.10062.10062,0,0,0-.11046-.073c-.07907.00132-.10722.0682-.10764.19211v.18419h.4248v-.067H31.9758v-.10434a.23693.23693,0,0,1,.00726-.08021.06886.06886,0,0,1,.06694-.04538c.108-.01117.08549-.01345.10674-.02474V19.4045c-.0084.03109-.07444.03061-.11725.03854C31.96043,19.443,31.95,19.49935,31.95,19.49935Zm-.03362.23342h-.12511V19.615c-.0021-.12043.0281-.12175.05842-.12175.03391,0,.06639.00216.06669.12175Z"/><polygon class="cls-1" points="31.732 19.267 31.732 19.332 32.156 19.332 32.156 19.021 32.105 19.021 32.105 19.267 31.732 19.267"/><path class="cls-1" d="M32.15584,18.52979V18.452l-.4239.22525v.068l.4239.22068v-.0688l-.098-.05559v-.264Zm-.15735.28745-.20766-.1071.20766-.10158Z"/><polygon class="cls-1" points="31.732 18.31 31.732 18.406 32.156 18.406 32.156 18.344 31.797 18.344 31.797 18.342 32.156 18.071 32.156 17.985 31.732 17.985 31.732 18.041 32.087 18.041 32.087 18.046 31.732 18.31"/><path class="cls-1" d="M32.156,17.72269a.35176.35176,0,0,0-.02611-.14817.21746.21746,0,0,0-.37726,0,.35213.35213,0,0,0-.025.14817v.17122H32.156Zm-.05937.10458h-.31074v-.10422a.20035.20035,0,0,1,.04058-.15069.17155.17155,0,0,1,.22957,0c.02438.02017.04059.054.04059.15069Z"/><path class="cls-1" d="M31.42552,26.32108h-.27478a.48086.48086,0,0,0,.32395-.46707.5132.5132,0,0,0-.1768-.47643c.04454-.01777.0814-.03915.12769-.05355v-.40836a.305.305,0,0,1-.13039.05439,1.82991,1.82991,0,0,1-.21451.01225l-.74761.0012c-.34946.02966-.4484.34724-.4505.645-.00276.37366.13928.626.524.64922v-.36946c-.16191-.01453-.211-.1047-.211-.26079,0-.1448.04725-.243.15519-.25646.12595-.01561.11089.10325.14835.3548a.65321.65321,0,0,0,.38074.57525h-1.8005v.41064h2.34621Zm-.65137-.65209a2.731,2.731,0,0,0-.06718-.29429,1.22925,1.22925,0,0,1,.215-.00433c.11257.01081.19631.07132.23282.32779.014.098-.02648.238-.156.24867C30.84889,25.95919,30.80014,25.79638,30.77415,25.669Z"/><rect class="cls-1" x="43.16474" y="26.09175" width="0.37978" height="0.42721"/><polygon class="cls-1" points="45.557 25.344 45.912 25.344 45.912 25.349 45.557 25.613 45.557 25.71 45.981 25.71 45.981 25.647 45.622 25.647 45.622 25.646 45.981 25.375 45.981 25.288 45.557 25.288 45.557 25.344"/><path class="cls-1" d="M45.7661,24.76847a.201.201,0,0,0-.18863.10926.35338.35338,0,0,0-.025.14816v.17134h.4284v-.17134a.352.352,0,0,0-.02611-.14816A.20118.20118,0,0,0,45.7661,24.76847Zm.15537.362h-.31074v-.10422a.19976.19976,0,0,1,.04059-.15057.17117.17117,0,0,1,.22957,0c.02437.02005.04058.054.04058.15057Z"/></g></g></svg>