<svg id="Layers" xmlns="http://www.w3.org/2000/svg" viewBox="0 0 60 60"><defs><style>.cls-1{fill:none;}.cls-2{fill:#fff;}</style></defs><title>Personal Add-On 60</title><g id="Backgrounds_Titles" data-name="Backgrounds &amp; Titles"><rect class="cls-1" x="-0.23341" y="-0.23341" width="60.46683" height="60.46683"/></g><g id="Icons_60" data-name="Icons 60"><g id="Personal_Add-On_60" data-name="Personal Add-On 60"><path class="cls-2" d="M55.57569,35.19371h-.44954V23.66419a.49117.49117,0,0,0-.63588-.46971l-1.9794.60707.018-9.376.997-11.16931a.4849.4849,0,0,0-.01123-.09558.48068.48068,0,0,0-.01951-.24926L52.49808.31506A.49262.49262,0,0,0,52.03893,0H7.379a.49257.49257,0,0,0-.4822.39575L6.38,2.99212a.48856.48856,0,0,0,.00157.1974.47143.47143,0,0,0-.00733.08116l1.314,11.01083v9.08683L5.77869,22.719a.49793.49793,0,0,0-.44474.06627.49209.49209,0,0,0-.20556.39959V35.19371H4.42431a.49152.49152,0,0,0-.4918.4918V59.5082A.49152.49152,0,0,0,4.42431,60H55.57569a.49152.49152,0,0,0,.4918-.4918V35.68551A.49152.49152,0,0,0,55.57569,35.19371ZM50.722,24.35l.27-3.02094c.02209-.24879.03362-.49757.03266-.74539,0-.2094-.00961-.41784-.0269-.62725L50.892,18.68468H38.36162L38.256,19.95645a7.90276,7.90276,0,0,0,.00576,1.3736l.611,6.65375-3.17085.97256,1.383-14.11293,14.46125.02882-.01933,9.23091Zm-5.67982,1.742h-.33463a.71565.71565,0,0,0,.58834-.72954.72758.72758,0,0,0-.3847-.67047c-.02215-.01008-.0637-.03218-.08771-.04082-.01387-.00528-.04083-.00048-.04269.02209v.36117c.00186.01153.00222.02257.01249.03026.02474.01729.08291.03266.10788.06772a.36732.36732,0,0,1-.2124.56576.10553.10553,0,0,1-.05847-.00192.03512.03512,0,0,1-.01807-.0293v-.99849s.00072-.01729-.00673-.02353c-.00678-.00577-.013-.00337-.02221-.00337a.77577.77577,0,0,0-.89211.73146.7216.7216,0,0,0,.58479.719h-.53334v.39863l-3.90892,1.19877-.54535-5.93958H49.96666l-.25707,2.87685.08549.00769Zm-.7308-.401c-.011.012-.02449.00768-.042.00384a.319.319,0,0,1,.00864-.62868.0282.0282,0,0,1,.02846.00576c.00967.00721.01237.02882.01237.02882v.56384A.05127.05127,0,0,1,44.31134,25.691Zm-5.07562-5.65382.03074-.36885H49.98719l.03074.36981c.01537.18155.023.36309.023.54752.00024.06051-.0066.12055-.00792.18058H39.2392A6.96861,6.96861,0,0,1,39.23572,20.03714ZM27.17928,29.9952,25.474,14.44672H36.13541L34.682,29.269l-5.06716,1.55417Zm-1.7688-17.20255.02881-.32851H36.16387l.02882.32851c.01537.171.023.34388.024.51293,0,.05235-.00642.10518-.00762.15753H25.4139A6.15391,6.15391,0,0,1,25.41048,12.79265ZM51.70082.98361l.66686,1.73668H7.43672L7.7824.98361ZM7.41643,3.70389H52.49808L51.591,13.88864l-14.41755-.02882c.01411-.18538.0269-.37029.0269-.55712-.001-.19883-.01057-.39863-.02786-.5965l-.10758-1.22567H24.53829l-.10758,1.22567a7.08374,7.08374,0,0,0-.00282,1.11616l-15.81131-.0317ZM8.66827,14.77427l15.856.0317,1.62711,14.83959L22.027,28.24315l.02827.00288.64261-6.85355q.03459-.37173.03362-.74443c-.001-.20652-.01056-.413-.02689-.62051L22.597,18.76345H10.06948L9.9619,20.02754a7.5987,7.5987,0,0,0,.00672,1.35534l.21811,2.83459-1.515-.51486Zm8.96761,11.55017v.2459H17.2633v.05332l-.33733-.11479.03512.01008v-.427H16.414a.71565.71565,0,0,0,.58834-.72954.72758.72758,0,0,0-.3847-.67047c-.02209-.01008-.06369-.03218-.08771-.04082-.01381-.00528-.04076-.00048-.04262.02209v.36117c.00186.01153.00222.02257.01248.03026.02474.01729.08285.03266.10783.06772a.36735.36735,0,0,1-.21235.56576.10574.10574,0,0,1-.05853-.00192.03512.03512,0,0,1-.01807-.0293v-.99849s.00078-.01729-.00666-.02353c-.00679-.00577-.013-.00337-.02228-.00337a.7758.7758,0,0,0-.89211.73146.7216.7216,0,0,0,.5848.719h-.28307l-4.50055-1.53016-.21582-2.812H21.67591l-.57916,6.17732-3.79833-1.29147H17.687v-.31122ZM16.01783,25.691c-.011.012-.0245.00768-.04191.00384a.319.319,0,0,1,.00865-.62868.02825.02825,0,0,1,.02845.00576c.00967.00721.01237.02882.01237.02882v.56384A.051.051,0,0,1,16.01783,25.691Zm-5.07617-5.58082.03074-.36309H21.6941l.03073.36117q.02161.27089.02306.54464c.00018.03746-.00475.0754-.00523.11334H10.94538C10.94214,20.5472,10.92365,20.32867,10.94166,20.11014ZM6.112,23.87167l23.33664,7.93417a.47957.47957,0,0,0,.30258.00384l24.39133-7.47983V35.19371H6.112ZM55.08389,59.01639H4.91611V36.17732H55.08389Z"/><rect class="cls-2" x="33.63071" y="45.59794" width="1.15182" height="4.07611"/><rect class="cls-2" x="33.63071" y="44.03993" width="1.15182" height="1.02347"/><path class="cls-2" d="M40.63747,45.45914a1.9539,1.9539,0,0,0-1.938,1.47974V45.59794H37.54767v4.07611h1.15182V48.2995a1.93709,1.93709,0,0,0,1.96595,1.486,1.96309,1.96309,0,0,0,1.80842-1.0374c.027-.05956.086-.17146.10975-.2363.014-.03746.00162-.11-.05908-.11478h-.97472c-.03067.0048-.06069.00576-.08068.03362-.04737.06675-.08771.22332-.18239.29056a.99031.99031,0,0,1-1.5253-.57249.27357.27357,0,0,1,.005-.15753.09419.09419,0,0,1,.07906-.049h2.69177s.04665.00193.06364-.01777c.01537-.01873.008-.03506.009-.06A2.09264,2.09264,0,0,0,40.63747,45.45914ZM41.4498,47.118a.14138.14138,0,0,1-.07769.03362h-1.52a.13583.13583,0,0,1-.071-.02017c-.03338-.02978-.02071-.06628-.01068-.11335a.85949.85949,0,0,1,1.694.02354A.07559.07559,0,0,1,41.4498,47.118Z"/><path class="cls-2" d="M33.28353,48.73271l.00636-2.01572c-.07972-.94182-.93575-1.20886-1.73872-1.21462a1.64736,1.64736,0,0,0-1.52121.64357V45.5504a.81662.81662,0,0,0-.24146-.01681.972.972,0,0,0-1.01939.72425h-.01537v-.65942H27.701v1.2372a1.66561,1.66561,0,0,0-1.66284-1.40769,1.26578,1.26578,0,0,0-1.15645.62388l.00132-.44762H23.76889v6.25224H24.876V49.27014l.01567.02209a1.33132,1.33132,0,0,0,1.20885.47452A1.653,1.653,0,0,0,27.701,48.33552v1.339h1.10715V47.85765c0-.80063.21505-1.34382.95569-1.34382a.23242.23242,0,0,1,.096.02354,2.00379,2.00379,0,0,0-.05871.37749h.99609c.03932-.43657.2821-.56864.70294-.56864.38981,0,.65528.12727.6913.41832.04233.33955-.27814.29873-.95641.40055-.68625.09317-1.63336.415-1.63336,1.32748a1.27527,1.27527,0,0,0,1.34225,1.30251,1.38518,1.38518,0,0,0,1.28384-.47691c.04767.12007.10572.21948.14439.34388h1.10079a.82858.82858,0,0,1-.14672-.35109A4.95383,4.95383,0,0,1,33.28353,48.73271Zm-7.47947.08837c-.71729.0024-.96673-.53455-.96673-1.18964s.23377-1.29627.959-1.30251c.639-.00529.9.66326.9,1.30251C26.69642,48.28653,26.45832,48.81916,25.80406,48.82108Zm6.44339-.5163c-.029.30306-.19277.52927-.88334.62724-.26446.038-.64165-.07108-.67065-.42024-.03368-.40439.40583-.535.74863-.60563a7.55229,7.55229,0,0,0,.791-.17194A2.75,2.75,0,0,1,32.24745,48.30478Z"/><path class="cls-2" d="M22.002,48.73271,21.99859,46.717c-.07966-.94182-.9357-1.20886-1.73872-1.21462-1.00738-.0072-1.68769.37558-1.75,1.413h.996c.039-.43657.28216-.56912.70294-.56912.39017,0,.655.12727.6913.41832.04238.33955-.27808.29873-.95635.40007a1.86256,1.86256,0,0,0-1.55094.92117v-4.7485H17.28576v6.32477h1.10709v-.69689a1.3102,1.3102,0,0,0,1.25947.82944,1.384,1.384,0,0,0,1.2842-.47643c.04767.12007.10536.21948.14438.34436h1.1008A.82922.82922,0,0,1,22.035,49.311,5.01685,5.01685,0,0,1,22.002,48.73271Zm-1.0461-.42793c-.029.30354-.19241.52927-.88371.62773-.26409.03746-.64123-.07157-.67028-.42073-.03332-.40439.40583-.53551.749-.60563a7.35989,7.35989,0,0,0,.79329-.18106A3.29341,3.29341,0,0,1,20.95585,48.30478Z"/><path class="cls-2" d="M37.44051,45.5283a.82045.82045,0,0,0-.24176-.01681.971.971,0,0,0-1.01909.72426l-.01567.02209v-.65942H35.11122v4.07611h1.10716V47.85765c0-.70985.215-1.34382.95569-1.34382a.96549.96549,0,0,1,.26644.04371Z"/><rect class="cls-2" x="37.54767" y="44.03993" width="1.15182" height="1.02347"/><path class="cls-2" d="M29.14085,50.92421c-.12476-.01008-.27947-.03362-.27947-.16473,0-.13832.16276-.18971.35847-.18971.15411,0,.27046.07732.27814.207h.186c0-.22477-.14739-.35733-.4535-.35733-.32311,0-.56523.06532-.56523.36837,0,.29249.36981.29681.63157.33428.11574.01681.23779.04658.23779.159,0,.16137-.19439.21324-.3518.21324-.22045,0-.35318-.06724-.35685-.231h-.177c-.00732.25983.11569.3847.52188.3847.31578,0,.55724-.11527.55724-.378C29.7281,50.99673,29.43694,50.94823,29.14085,50.92421Z"/><polygon class="cls-2" points="31.3 51.464 30.944 50.488 30.727 50.488 30.35 51.464 29.994 50.488 29.801 50.488 30.231 51.634 30.455 51.634 30.831 50.659 31.181 51.634 31.417 51.634 31.851 50.488 31.681 50.488 31.3 51.464"/><rect class="cls-2" x="31.97076" y="50.48812" width="0.17038" height="1.14594"/><polygon class="cls-2" points="32.272 50.649 32.776 50.649 32.776 51.634 32.968 51.634 32.968 50.649 33.44 50.649 33.44 50.488 32.272 50.488 32.272 50.649"/><polygon class="cls-2" points="34.617 50.648 34.617 50.488 33.594 50.488 33.594 50.648 34.386 50.648 33.547 51.496 33.547 51.633 34.628 51.633 34.628 51.496 33.763 51.496 34.617 50.648"/><polygon class="cls-2" points="35.028 51.131 35.671 51.131 35.671 50.98 35.028 50.98 35.028 50.638 35.704 50.638 35.704 50.488 34.845 50.488 34.845 51.633 35.732 51.633 35.732 51.492 35.028 51.492 35.028 51.131"/><path class="cls-2" d="M36.93525,51.31756c0-.21324-.152-.2411-.152-.2411a.27154.27154,0,0,0,.19673-.29825c-.00336-.21276-.18377-.28865-.51792-.29009h-.49648v1.14546h.1807v-.488h.28114a.64662.64662,0,0,1,.21643.01969.185.185,0,0,1,.12205.1801c.03031.29153.03668.23054.067.28817H37.039C36.95495,51.61053,36.95663,51.43283,36.93525,51.31756Zm-.46346-.33187H36.154v-.33716h.31783c.32442-.00576.32809.07541.32809.157C36.79988,50.89732,36.79387,50.98473,36.47179,50.98569Z"/><polygon class="cls-2" points="37.41 50.489 37.233 50.489 37.233 51.631 38.073 51.631 38.073 51.493 37.41 51.493 37.41 50.489"/><path class="cls-2" d="M38.81638,50.48812l-.59494,1.14306h.18538l.15009-.26415h.71165l.12835.26415h.20976l-.60689-1.14306Zm-.19409.719.2884-.56.27412.56Z"/><polygon class="cls-2" points="40.716 51.445 40.702 51.445 39.99 50.488 39.73 50.488 39.73 51.631 39.898 51.631 39.898 50.663 39.902 50.663 40.633 51.631 40.865 51.631 40.865 50.488 40.716 50.488 40.716 51.445"/><path class="cls-2" d="M41.97246,50.54383a.95735.95735,0,0,0-.39953-.06724h-.46185v1.15507h.46185a.95129.95129,0,0,0,.39953-.0706.58654.58654,0,0,0,0-1.01723Zm.00564.81839c-.05433.06532-.1457.109-.40613.109h-.28115v-.83761H41.572a.53862.53862,0,0,1,.40613.10951.46279.46279,0,0,1,0,.61907Z"/><path class="cls-2" d="M17.687,26.20053l-.098-.05571v-.26415l.098-.04755v-.0778l-.42391.22524v.0682l.42391.22045Zm-.15735-.0802L17.322,26.0137l.20766-.10181Z"/><polygon class="cls-2" points="17.687 25.647 17.328 25.647 17.328 25.646 17.687 25.375 17.687 25.288 17.263 25.288 17.263 25.344 17.618 25.344 17.618 25.349 17.263 25.613 17.263 25.71 17.687 25.71 17.687 25.647"/><path class="cls-2" d="M17.68715,25.02626a.352.352,0,0,0-.02612-.14841.21769.21769,0,0,0-.37725,0,.35241.35241,0,0,0-.025.14841v.171h.42835Zm-.05938.1047H17.317v-.1047a.19966.19966,0,0,1,.04059-.15033.17117.17117,0,0,1,.22957,0c.02437.02017.04058.05379.04058.15033Z"/><rect class="cls-2" x="29.33974" y="20.24174" width="0.37978" height="0.42697"/><rect class="cls-2" x="29.91781" y="20.24174" width="1.51191" height="0.42697"/><path class="cls-2" d="M30.453,18.7889h-.53515v.427h1.51191v-.427h-.549a.7156.7156,0,0,0,.59026-.72954.72829.72829,0,0,0-.3847-.67094c-.02216-.01009-.0637-.0317-.08771-.04035-.01387-.00528-.04083-.001-.04269.02161v.36165c.00186.01153.00222.02258.01249.02978.02473.01777.08291.03266.10788.06772a.33928.33928,0,0,1,.0652.22669.33457.33457,0,0,1-.2776.33908.09746.09746,0,0,1-.05848-.00193.03407.03407,0,0,1-.01807-.02881v-.999s.00072-.01729-.00666-.02353c-.00684-.00576-.013-.00288-.02227-.00336a.77642.77642,0,0,0-.89212.73194A.72077.72077,0,0,0,30.453,18.7889Zm.0003-1.02587a.02914.02914,0,0,1,.0284.00528.05352.05352,0,0,1,.01236.02882V18.361a.05026.05026,0,0,1-.0075.02641c-.011.01249-.02449.00769-.042.00384a.31871.31871,0,0,1,.0087-.6282Z"/><path class="cls-2" d="M29.92,23.91393v.413h2.31932v-.41063h-.95953l.00828-.00577a.49427.49427,0,0,0,.176-.44858.61423.61423,0,0,0-.53929-.59362h.505v-.41063H30.7559c-.297,0-.49847-.07973-.49847-.35445a.08642.08642,0,0,1,.01525-.04611.63105.63105,0,0,0,.13363.03218V21.72c-.16191-.01441-.211-.1047-.211-.26079,0-.14456.04725-.243.15525-.25647.12589-.01585.11083.10326.14841.35493.03464.25454.154.60563.49246.60563a.4727.4727,0,0,0,.48316-.49757.51387.51387,0,0,0-.17692-.47643c.04466-.01778.0814-.03939.12769-.05332V20.7273a.30691.30691,0,0,1-.13039.05475,1.85809,1.85809,0,0,1-.21451.01585l-.74761-.0024c-.34946.0293-.4484.34676-.4505.645a.60248.60248,0,0,0,.24782.56384H29.9a.30916.30916,0,0,0-.00618.08982.36.36,0,0,0,.26871.378v.00577h-.2447v.39046h.473a.61854.61854,0,0,0-.53617.61716.46968.46968,0,0,0,.23131.42888Zm1.00174-2.73181c.11257.01057.19631.07156.23276.32755.014.098-.02642.23822-.156.24878-.14991.01249-.19854-.15032-.22465-.2776a2.821,2.821,0,0,0-.0637-.29345A1.0207,1.0207,0,0,1,30.92177,21.18212Zm-.2498,2.05895c.24308,0,.44065.08837.44137.33091.00084.26607-.19829.35876-.44137.35876-.2429,0-.4807-.08693-.483-.35588C30.187,23.33808,30.43483,23.24107,30.672,23.24107Z"/><path class="cls-2" d="M31.42984,19.70911H30.7559c-.2632,0-.49847-.07972-.49847-.35444a.35978.35978,0,0,1,.01621-.09894h-.38176a.30754.30754,0,0,0-.00631.08981.36073.36073,0,0,0,.26866.378l.00834.00576h-.2447v.39047h1.512Z"/><rect class="cls-2" x="29.33974" y="18.7889" width="0.37978" height="0.42697"/><path class="cls-2" d="M31.84282,22.51057c.1086,0,.11022-.13688.12409-.2339.00619-.04322.01717-.08837.05884-.08837.06,0,.07918.072.07918.13064,0,.08164-.025.13111-.08573.13207v.0658c.09636.00288.14277-.04274.14277-.19355,0-.11719-.04281-.20652-.14031-.20652-.10127,0-.11922.10758-.12811.21756-.00384.04659-.01249.10374-.06123.10374-.05121,0-.07031-.06051-.07031-.133,0-.05716.02858-.10038.07685-.10326v-.06868c-.08339,0-.13262.05475-.13262.1681C31.70624,22.42123,31.7305,22.51057,31.84282,22.51057Z"/><polygon class="cls-2" points="32.157 21.49 31.732 21.329 31.732 21.392 32.094 21.534 31.732 21.666 31.732 21.746 32.094 21.886 31.732 22.018 31.732 22.089 32.157 21.93 32.157 21.847 31.795 21.708 32.157 21.578 32.157 21.49"/><rect class="cls-2" x="31.7317" y="21.2215" width="0.42504" height="0.0634"/><polygon class="cls-2" points="32.157 20.915 31.791 20.915 31.791 20.739 31.732 20.739 31.732 21.173 31.791 21.173 31.791 20.986 32.157 20.986 32.157 20.915"/><polygon class="cls-2" points="31.732 20.683 31.791 20.683 31.791 20.389 32.105 20.7 32.157 20.7 32.157 20.299 32.105 20.299 32.105 20.62 31.791 20.303 31.732 20.303 31.732 20.683"/><polygon class="cls-2" points="31.732 19.9 31.732 20.219 32.157 20.219 32.157 19.889 32.104 19.889 32.104 20.15 31.97 20.15 31.97 19.912 31.914 19.912 31.914 20.15 31.788 20.15 31.788 19.9 31.732 19.9"/><path class="cls-2" d="M31.94986,19.49971a.10043.10043,0,0,0-.11046-.073c-.07907.001-.10728.06772-.10764.19211v.18395h.4248v-.06724h-.181v-.10422a.23756.23756,0,0,1,.00732-.08021.0683.0683,0,0,1,.06688-.04514c.108-.01153.08549-.01345.1068-.025v-.07636c-.0084.03122-.0745.03073-.11731.03842C31.96025,19.443,31.94986,19.49971,31.94986,19.49971Zm-.03368.23342h-.12505V19.615c-.0021-.12055.0281-.12151.05842-.12151.03385,0,.06639.00192.06663.12151Z"/><polygon class="cls-2" points="31.732 19.267 31.732 19.333 32.156 19.333 32.156 19.021 32.105 19.021 32.105 19.267 31.732 19.267"/><path class="cls-2" d="M32.15566,18.53v-.0778l-.4239.22525v.06772l.4239.22092v-.06868l-.098-.05571v-.26415Zm-.15735.28721-.20772-.1071.20772-.10134Z"/><polygon class="cls-2" points="31.732 18.31 31.732 18.407 32.156 18.407 32.156 18.344 31.797 18.344 31.797 18.343 32.156 18.072 32.156 17.985 31.732 17.985 31.732 18.041 32.087 18.041 32.087 18.046 31.732 18.31"/><path class="cls-2" d="M32.15578,17.72269a.35129.35129,0,0,0-.026-.14793.21727.21727,0,0,0-.37732,0,.35356.35356,0,0,0-.025.14793v.17146h.42834Zm-.05937.1047h-.31068v-.10422a.20061.20061,0,0,1,.04052-.15081.17268.17268,0,0,1,.22963,0c.02438.02017.04053.05427.04053.15081Z"/><path class="cls-2" d="M31.42528,26.32108h-.27382a.48069.48069,0,0,0,.323-.46683.51292.51292,0,0,0-.17674-.47643c.04454-.01777.0814-.03939.12763-.05379v-.40824a.31377.31377,0,0,1-.13039.05475,1.88426,1.88426,0,0,1-.21445.012l-.74767.00144c-.3494.0293-.4484.34676-.4505.64453-.0027.37366.13928.62628.524.64934v-.36934c-.16191-.0144-.211-.1047-.211-.26079,0-.145.04725-.243.15525-.25646.12595-.01585.11083.10325.14829.35492a.65314.65314,0,0,0,.38026.57489h-1.8v.41112h2.34615Zm-.65131-.65173a2.74178,2.74178,0,0,0-.06718-.29441,1.1711,1.1711,0,0,1,.215-.00433c.11257.01057.19631.07156.23282.32755.014.098-.02648.23822-.156.24879C30.84865,25.95943,30.8,25.79662,30.774,25.66935Z"/><rect class="cls-2" x="43.16456" y="26.09199" width="0.37978" height="0.42697"/><polygon class="cls-2" points="45.557 25.344 45.912 25.344 45.912 25.349 45.557 25.613 45.557 25.71 45.98 25.71 45.98 25.647 45.621 25.647 45.621 25.646 45.98 25.375 45.98 25.288 45.557 25.288 45.557 25.344"/><path class="cls-2" d="M45.76586,24.76883a.20072.20072,0,0,0-.18863.109.35445.35445,0,0,0-.025.14841v.171h.42834v-.171a.35213.35213,0,0,0-.02605-.14841A.20086.20086,0,0,0,45.76586,24.76883Zm.15537.36213h-.31068v-.1047a.1997.1997,0,0,1,.04053-.15033.17125.17125,0,0,1,.22963,0c.02431.02017.04052.05379.04052.15033Z"/></g></g></svg>