<svg id="Layers" xmlns="http://www.w3.org/2000/svg" viewBox="0 0 60 60"><defs><style>.cls-1{fill:none;}.cls-2{fill:#b5b5b5;}.cls-3{fill:#fff;}</style></defs><title>Secure Payment 60</title><g id="Backgrounds_Titles" data-name="Backgrounds &amp; Titles"><rect class="cls-1" x="-0.23341" y="-0.23341" width="60.46683" height="60.46683"/></g><g id="Icons_60" data-name="Icons 60"><g id="Secure_Payment_60" data-name="Secure Payment 60"><path class="cls-2" d="M17.06663,34.01895h8.22522a.39383.39383,0,0,0,0-.78765H17.06663a.39383.39383,0,1,0,0,.78765Z"/><path class="cls-2" d="M23.55133,30.69832H37.94618a.39383.39383,0,0,0,0-.78765H23.55133a.39383.39383,0,1,0,0,.78765Z"/><path class="cls-2" d="M46.32028,43.31135H26.44835a.36949.36949,0,0,0-.09491.01921H16.0446a.39383.39383,0,1,0,0,.78765H26.44835a.36866.36866,0,0,0,.0948-.01921H46.32028a.39383.39383,0,1,0,0-.78765Z"/><path class="cls-3" d="M21.807,30.60707H20.66678a.39436.39436,0,0,0-.39382.39383v1.44275a.39436.39436,0,0,0,.39382.39382H21.807a.39436.39436,0,0,0,.39383-.39382V31.0009A.39436.39436,0,0,0,21.807,30.60707Zm-.39383,1.44275h-.35252v-.6551h.35252Z"/><path class="cls-3" d="M33.77545,41.7322h2.4158a.39436.39436,0,0,0,.39382-.39383V39.29143a.39436.39436,0,0,0-.39382-.39382h-2.4158a.39436.39436,0,0,0-.39382.39382v2.04694A.39436.39436,0,0,0,33.77545,41.7322Zm.39383-2.04694h1.62814v1.25928H34.16928Z"/><path class="cls-3" d="M37.65609,41.7322h2.41675a.39436.39436,0,0,0,.39383-.39383V39.29143a.39436.39436,0,0,0-.39383-.39382H37.65609a.39436.39436,0,0,0-.39383.39382v2.04694A.39436.39436,0,0,0,37.65609,41.7322Zm.39383-2.04694H39.679v1.25928h-1.6291Z"/><path class="cls-3" d="M41.63566,41.7322h2.41579a.39436.39436,0,0,0,.39383-.39383V39.29143a.39436.39436,0,0,0-.39383-.39382H41.63566a.39436.39436,0,0,0-.39382.39382v2.04694A.39436.39436,0,0,0,41.63566,41.7322Zm.39383-2.04694h1.62814v1.25928H42.02949Z"/><path class="cls-3" d="M35.40167,37.9553h1.27466a.39436.39436,0,0,0,.39382-.39382V35.113a.39436.39436,0,0,0-.39382-.39383H35.40167a.39437.39437,0,0,0-.39383.39383v2.44845A.39437.39437,0,0,0,35.40167,37.9553Zm.39383-2.44845h.487v1.6608h-.487Z"/><path class="cls-3" d="M32.714,34.7192H31.45956a.39437.39437,0,0,0-.39383.39383v2.44845a.39437.39437,0,0,0,.39383.39382H32.714a.39436.39436,0,0,0,.39383-.39382V35.113A.39436.39436,0,0,0,32.714,34.7192Zm-.39382,2.44845h-.46683v-1.6608h.46683Z"/><path class="cls-3" d="M29.26566,37.56148V35.113a.39436.39436,0,0,0-.39383-.39383H27.59718a.39436.39436,0,0,0-.39383.39383v2.44845a.39436.39436,0,0,0,.39383.39382h1.27465A.39436.39436,0,0,0,29.26566,37.56148Zm-.78766-.39383h-.487v-1.6608h.487Z"/><path class="cls-3" d="M38.56285,37.31846H39.85a.39437.39437,0,0,0,.39383-.39383V35.113A.39436.39436,0,0,0,39.85,34.7192H38.56285a.39436.39436,0,0,0-.39382.39383v1.8116A.39437.39437,0,0,0,38.56285,37.31846Zm.39383-1.81161h.49949V36.5308h-.49949Z"/><path class="cls-3" d="M20.10582,38.181H17.89175a.39436.39436,0,0,0-.39383.39383v2.507a.39436.39436,0,0,0,.39383.39383h2.21407a.39436.39436,0,0,0,.39383-.39383v-2.507A.39436.39436,0,0,0,20.10582,38.181Zm-.39383,2.507H18.28557V38.96869H19.712Z"/><path class="cls-3" d="M24.97487,38.181H22.76175a.39437.39437,0,0,0-.39383.39383v2.507a.39437.39437,0,0,0,.39383.39383h2.21312a.39436.39436,0,0,0,.39382-.39383v-2.507A.39436.39436,0,0,0,24.97487,38.181Zm-.39383,2.507H23.15558V38.96869H24.581Z"/><path class="cls-3" d="M17.88886,37.98412h2.21408a.39437.39437,0,0,0,.39383-.39383v-2.507a.39437.39437,0,0,0-.39383-.39383H17.88886a.39436.39436,0,0,0-.39382.39383v2.507A.39436.39436,0,0,0,17.88886,37.98412Zm.39383-2.507h1.42642v1.7194H18.28269Z"/><path class="cls-3" d="M24.97487,34.68846H22.76175a.39437.39437,0,0,0-.39383.39383v2.507a.39437.39437,0,0,0,.39383.39383h2.21312a.39436.39436,0,0,0,.39382-.39383v-2.507A.39436.39436,0,0,0,24.97487,34.68846Zm-.39383,2.507H23.15558V35.47611H24.581Z"/><path class="cls-3" d="M31.80728,39.54022H28.82572a.39436.39436,0,0,0-.39382.39382v1.39857a.39436.39436,0,0,0,.39382.39382h2.98156a.39436.39436,0,0,0,.39383-.39382V39.934A.39436.39436,0,0,0,31.80728,39.54022Zm-.39383,1.39856h-2.1939v-.61091h2.1939Z"/><rect class="cls-3" x="33.27975" y="48.29614" width="0.84709" height="0.75307"/><rect class="cls-3" x="33.27975" y="49.44208" width="0.84709" height="2.99789"/><path class="cls-3" d="M38.43288,49.34026a1.43674,1.43674,0,0,0-1.42534,1.08831v-.98649h-.84709V52.44h.84709V51.4285a1.42439,1.42439,0,0,0,1.44593,1.09311,1.443,1.443,0,0,0,1.33-.76268c.01987-.0437.06327-.12631.08068-.17386.01027-.02737.0012-.08068-.0434-.08453h-.71688c-.02257.00385-.04466.00433-.05937.0245-.03482.04947-.06448.16473-.13412.2142a.67205.67205,0,0,1-.44882.1292.66417.66417,0,0,1-.673-.5504.20113.20113,0,0,1,.00366-.11575.06851.06851,0,0,1,.05811-.036h1.9797s.03434.00144.04683-.01345c.01129-.01344.00588-.02545.0066-.0437A1.539,1.539,0,0,0,38.43288,49.34026Zm.5974,1.2199a.10481.10481,0,0,1-.05715.0245H37.85528a.09731.09731,0,0,1-.05223-.01489c-.02449-.02161-.01518-.04851-.00786-.08309a.63207.63207,0,0,1,1.2459.01729A.05564.05564,0,0,1,39.03028,50.56016Z"/><path class="cls-3" d="M33.02442,51.74741l.00462-1.48214c-.05859-.693-.68817-.889-1.27873-.89331a1.19453,1.19453,0,0,0-1.11875.49132V49.407a.60145.60145,0,0,0-.17758-.012.71472.71472,0,0,0-.74971.53263H29.693v-.48508h-.77426v.90964a1.22429,1.22429,0,0,0-1.223-1.035.93055.93055,0,0,0-.85051.45866l.001-.32947h-.81935v4.59865H26.841V52.14267l.01153.01633a.97889.97889,0,0,0,.88905.34916,1.21588,1.21588,0,0,0,1.1771-1.05276V52.44H29.733V51.10384c0-.58882.15813-.98841.70288-.98841a.19826.19826,0,0,1,.09287.02257,1.24378,1.24378,0,0,0-.06549.2728h.7326c.02894-.32083.20748-.41832.517-.41832.28672,0,.482.09365.50843.30785.03116.24975-.20454.21949-.70343.29393-.50471.06868-1.20123.30546-1.20123.9764a.93758.93758,0,0,0,.98715.95816,1.01778,1.01778,0,0,0,.94422-.35061c.03507.08838.07775.16138.10621.25311h.80956a.611.611,0,0,1-.10794-.25887A3.62672,3.62672,0,0,1,33.02442,51.74741Zm-5.50085.06531c-.52752.00144-.71093-.39334-.71093-.87506s.17188-.95335.70529-.95767c.47-.00432.66194.48748.66194.95767C28.17987,51.41938,28.00475,51.81128,27.52357,51.81272Zm4.73883-.37989c-.02131.22284-.14174.389-.64969.46154-.19445.02738-.47181-.05235-.49319-.3093-.02473-.29729.2985-.39382.55058-.44521a5.73282,5.73282,0,0,0,.58174-.12632A2.01683,2.01683,0,0,1,32.2624,51.43283Z"/><path class="cls-3" d="M24.72734,51.74741l-.00246-1.48214c-.05865-.693-.68817-.889-1.27874-.89331-.74088-.00528-1.24121.27616-1.28708,1.03884h.73255c.02869-.32083.20748-.41832.517-.41832.28691,0,.48166.09365.50838.30785.03115.24975-.20454.21949-.70337.29393a1.371,1.371,0,0,0-1.1406.67719V47.77936h-.81424v4.65148H22.073v-.54463a.95319.95319,0,0,0,.92628.64261,1.018,1.018,0,0,0,.94446-.35061c.03506.08838.07745.16138.10614.25311h.80963a.6072.6072,0,0,1-.10794-.25887A3.67979,3.67979,0,0,1,24.72734,51.74741Zm-.76934-.31458c-.02137.22332-.14156.389-.64993.46154-.19428.02786-.47164-.05235-.493-.3093-.02455-.29729.29843-.39382.55082-.44521a5.4482,5.4482,0,0,0,.58347-.13352A2.42658,2.42658,0,0,1,23.958,51.43283Z"/><path class="cls-3" d="M36.08168,49.39069a.62074.62074,0,0,0-.17782-.01249.71423.71423,0,0,0-.74947.53311l-.01153.01633v-.48508H34.3686V52.44h.81425V51.10384c0-.52158.15819-.98841.70288-.98841a.72474.72474,0,0,1,.19595.03218Z"/><rect class="cls-3" x="36.16045" y="48.29614" width="0.84709" height="0.75307"/><path class="cls-3" d="M29.97767,53.3597c-.09174-.00769-.20556-.025-.20556-.12151,0-.10182.11971-.13929.26367-.13929.11329,0,.1989.05668.20454.15225h.13682c0-.16521-.10837-.26319-.33349-.26319-.23768,0-.41574.048-.41574.27088,0,.21516.272.21852.46454.2459.08507.01249.17482.0341.17482.11671,0,.1191-.14294.157-.25875.157-.16209,0-.2597-.04947-.26241-.17H29.6159c-.0054.19115.08513.28336.3838.28336.23227,0,.40986-.085.40986-.27856C30.40956,53.41253,30.19541,53.377,29.97767,53.3597Z"/><polygon class="cls-3" points="31.566 53.756 31.303 53.039 31.145 53.039 30.867 53.756 30.605 53.039 30.463 53.039 30.779 53.881 30.944 53.881 31.221 53.164 31.478 53.881 31.651 53.881 31.971 53.039 31.846 53.039 31.566 53.756"/><rect class="cls-3" x="32.05889" y="53.03839" width="0.12535" height="0.84289"/><polygon class="cls-3" points="32.28 53.157 32.651 53.157 32.651 53.881 32.792 53.881 32.792 53.157 33.14 53.157 33.14 53.039 32.28 53.039 32.28 53.157"/><polygon class="cls-3" points="34.005 53.156 34.005 53.038 33.253 53.038 33.253 53.156 33.835 53.156 33.218 53.779 33.218 53.881 34.013 53.881 34.013 53.779 33.377 53.779 34.005 53.156"/><polygon class="cls-3" points="34.307 53.511 34.78 53.511 34.78 53.401 34.307 53.401 34.307 53.149 34.804 53.149 34.804 53.039 34.173 53.039 34.173 53.881 34.825 53.881 34.825 53.777 34.307 53.777 34.307 53.511"/><path class="cls-3" d="M35.59822,53.47112a.19947.19947,0,0,0,.14475-.219c-.00246-.15657-.13514-.21276-.38092-.21324h-.36513v.84193h.13291V53.522h.20676a.475.475,0,0,1,.15916.01441.13657.13657,0,0,1,.08975.13255c.02233.21421.02695.16954.04929.21181h.15158c-.06183-.01681-.06057-.14745-.0763-.23246C35.71007,53.49177,35.59822,53.47112,35.59822,53.47112Zm-.229-.06676h-.23371v-.24782h.23371c.23864-.00432.24134.05571.24134.11574C35.61053,53.33952,35.60609,53.40388,35.36919,53.40436Z"/><polygon class="cls-3" points="36.059 53.039 35.929 53.039 35.929 53.879 36.547 53.879 36.547 53.778 36.059 53.778 36.059 53.039"/><path class="cls-3" d="M37.09351,53.03887l-.43754.84048h.1364l.11035-.19451h.52338l.09443.19451h.15423l-.44636-.84048Zm-.14271.5283.21211-.41159.20159.41159Z"/><polygon class="cls-3" points="38.491 53.743 38.481 53.743 37.957 53.038 37.765 53.038 37.765 53.879 37.889 53.879 37.889 53.167 37.892 53.167 38.429 53.879 38.6 53.879 38.6 53.038 38.491 53.038 38.491 53.743"/><path class="cls-3" d="M39.41468,53.07969a.69858.69858,0,0,0-.29381-.04946H38.7812v.84912h.33967a.69219.69219,0,0,0,.29381-.05187.43106.43106,0,0,0,0-.74779Zm.00415.60179c-.04.048-.10717.08021-.29868.08021h-.20676v-.6162h.20676a.39706.39706,0,0,1,.29868.08069.34032.34032,0,0,1,0,.4553Z"/><path class="cls-3" d="M43.48473,23.60752V11.87532C43.48473,4.99392,37.71853,0,29.77475,0c-7.816,0-13.71,5.2379-13.71,12.18366v11.834a20.55685,20.55685,0,0,0-5.69446,21.82522.43.43,0,0,0,.18989.51773,20.6923,20.6923,0,1,0,32.92453-22.7531ZM17.04838,12.18366c0-6.3848,5.47131-11.2,12.72637-11.2,7.37417,0,12.72637,4.58088,12.72637,10.89171v10.945c-.35985-.27375-.71927-.547-1.09695-.79725V12.68122c0-6.18116-4.89114-10.66694-11.62942-10.66694-6.62974,0-11.62846,4.71824-11.62846,10.97528v9.34667c-.37467.26271-.742.5355-1.09791.82175Zm23.37218,9.241a20.52339,20.52339,0,0,0-21.29066.27376V12.98956c0-5.78925,4.47714-9.99167,10.64485-9.99167,6.26857,0,10.64581,3.98149,10.64581,9.68333ZM30.00048,19.56647A19.68357,19.68357,0,0,1,48.68276,45.57153H46.71411V37.135h.20748a.39359.39359,0,0,0,.37077-.52446l-.39-1.10416-.52255-2.48063a.39369.39369,0,0,0-.38518-.31314H44.10344l-1.732-1.69489V27.19038a.39438.39438,0,0,0-.39383-.39383H40.51181a.39437.39437,0,0,0-.39382.39383v1.6219l-.779-.7622a.39344.39344,0,0,0-.2728-.11239l-17.314-.10278-.52536-.58017a.39373.39373,0,0,0-.292-.12968h-.001a.39816.39816,0,0,0-.292.13064l-1.86569,2.07768H15.353a.39282.39282,0,0,0-.38422.31025l-.78477,3.6309a.39355.39355,0,0,0,.38422.47739h.171a.37126.37126,0,0,0,.03362.12583.39319.39319,0,0,0,.35829.23246h.33331a.38557.38557,0,0,0,.18634-.05331V45.47355H11.28128a19.6914,19.6914,0,0,1,18.7192-25.90708Zm2.582,26.00506h-.72906v-.55616h.72906Zm.39382-1.34381H31.45956a.39437.39437,0,0,0-.39383.39382v.95H26.84218V34.09244a.37082.37082,0,0,0,.08837.01777h.38614a.39436.39436,0,0,0,.39383-.39383.38935.38935,0,0,0-.12535-.2848L37.78,33.458h.001a.39251.39251,0,0,0,.28721-.12487l1.92206-2.0527,1.655,1.76549.0096,2.13724-.14918.14648-.00378.00384-.94687.9303-.00048.001a.38687.38687,0,0,0-.08909.13832.39744.39744,0,0,0-.028.13832l-.0006.00288v.19691a.39436.39436,0,0,0,.39383.39383h5.09573v8.43654H33.3701v-.95A.39436.39436,0,0,0,32.97627,44.22772ZM15.81431,32.716a.38844.38844,0,0,0-.11605.133l-.11953.13736a.39679.39679,0,0,0-.13063-.02209h-.39191L15.671,30.121h2.40426Zm.62412,12.85557V33.19768l2.413-2.76975.0009-.00048,2.08344-2.3207.35516.39239.007.00768,1.71645,1.89565.0099.00721.00547.00816,3.02478,2.98636V45.57153ZM41.58379,30.24686l-.67815-.66374V27.58421h.67815Zm3.953,4.96894H42.442l-.01-2.32838a.39412.39412,0,0,0-.10662-.267l-2.0479-2.1843a.40467.40467,0,0,0-.57441,0l-2.09209,2.23425-10.88306-.02882h-.001a.38266.38266,0,0,0-.23659.08741l-2.89361-2.85668-1.12757-1.24536,16.43375.0975Zm-3.59457.78766h4.3019l.12133.34388H41.5922Zm2.96613-2.5032h.76742l.19913.94566ZM30.00048,59.01639A19.74252,19.74252,0,0,1,11.642,46.45716H16.0446a.47955.47955,0,0,0,.27958-.098H48.39393A19.74041,19.74041,0,0,1,30.00048,59.01639Z"/></g></g></svg>