<?xml version="1.0" encoding="UTF-8"?>
<svg width="24px" height="26px" viewBox="0 0 24 26" version="1.1" xmlns="http://www.w3.org/2000/svg" xmlns:xlink="http://www.w3.org/1999/xlink">
    <!-- Generator: sketchtool 62 (101010) - https://sketch.com -->
    <title>504C5A84-4726-4D68-ADA2-651365D01B1E@3x</title>
    <desc>Created with sketchtool.</desc>
    <g id="Asset-Artboard-Page" stroke="none" stroke-width="1" fill="none" fill-rule="evenodd">
        <g id="My-Account" fill="#FFFFFF" fill-rule="nonzero" stroke="#FFFFFF" stroke-width="0.4">
            <g id="Account_30">
                <g>
                    <path d="M12.3439592,13.977132 C16.2306284,13.9769071 19.3812127,10.8478371 19.3809861,6.98815869 C19.3807596,3.12848027 16.229808,-0.00022493806 12.3431389,2.37421636e-08 C8.45646968,0.000224985545 5.30588541,3.12929492 5.30611194,6.98897335 C5.31024944,10.8470416 8.45891098,13.973473 12.3439592,13.977132 Z M12.3439589,0.838707997 C15.7640835,0.838928175 18.53643,3.59233366 18.53643,6.98870731 C18.53643,10.385081 15.7638158,13.1384408 12.3436913,13.1384408 C8.92356679,13.1384408 6.15090672,10.3853467 6.15068501,6.98897309 C6.15444147,3.59382185 8.92506539,0.842438372 12.3439589,0.838707997 Z" id="Shape"></path>
                    <path d="M12.2177713,15.846211 C5.84634751,15.846211 0.662600756,20.2133965 0.662600756,25.5806113 C0.662600756,25.8122141 0.85166488,26 1.08488729,26 C1.3181097,26 1.50717382,25.8122141 1.50717382,25.5806113 C1.50717382,20.6752778 6.31153731,16.6848843 12.2177713,16.6848843 C18.1240053,16.6848843 22.929163,20.6753385 22.929163,25.580646 C22.929163,25.8122488 23.1182271,26 23.3514495,26 C23.5846719,26 23.7737361,25.8122488 23.7737361,25.580646 C23.7737361,20.2133965 18.5900155,15.846211 12.2177713,15.846211 Z" id="Path"></path>
                </g>
            </g>
        </g>
    </g>
</svg>