<?xml version="1.0" encoding="UTF-8"?>
<svg width="30px" height="30px" viewBox="0 0 30 30" version="1.1" xmlns="http://www.w3.org/2000/svg" xmlns:xlink="http://www.w3.org/1999/xlink">
    <!-- Generator: Sketch 63.1 (92452) - https://sketch.com -->
    <title>Group 2@3x</title>
    <desc>Created with Sketch.</desc>
    <g id="ðŸ¤ŸðŸ»-Homepage---1920" stroke="none" stroke-width="1" fill="none" fill-rule="evenodd">
        <g id="Logged-In-Icon---1" transform="translate(-1795.000000, -124.000000)">
            <g id="Global-Elements-/-Header-/-1920" transform="translate(0.000000, 100.000000)">
                <g id="Header">
                    <g id="My-Account">
                        <g transform="translate(1659.000000, 25.000000)">
                            <g id="Account_30">
                                <g>
                                    <g id="Group-2" transform="translate(136.000000, 0.000000)">
                                        <g id="Group-3" transform="translate(0.662601, 0.000000)">
                                            <path d="M11.6813585,13.977132 C15.5680277,13.976907 18.718612,10.8478371 18.7183854,6.98815865 C18.7181589,3.12848024 15.5672073,-0.000224961802 11.6805382,-1.03028697e-13 C7.793869,0.000224961802 4.64328474,3.12929489 4.64351127,6.98897331 C4.64764877,10.8470416 7.7963103,13.9734729 11.6813585,13.977132 Z M11.6813585,0.838707976 C15.1014832,0.838928154 17.8738298,3.59233375 17.8738298,6.98870752 C17.8738298,10.3850813 15.1012155,13.1384413 11.6810909,13.1384413 C8.26096626,13.1384413 5.48830608,10.3853471 5.48808436,6.98897331 C5.49184082,3.59382193 8.26246485,0.842438351 11.6813585,0.838707976 Z" id="Shape" stroke="#FFFFFF" stroke-width="0.5" fill="#FFFFFF" fill-rule="nonzero"></path>
                                            <path d="M11.5551709,15.8462113 C15.7451261,15.8462113 19.421225,17.7343572 21.4477009,20.5534336 L20.8280593,21.1312637 C18.9730462,18.4750589 15.5110878,16.6848846 11.5551709,16.6848846 C5.64893673,16.6848846 0.844573091,20.675278 0.844573091,25.5806113 C0.844573086,25.8122141 0.655508961,26 0.422286545,26 C0.18906413,26 1.41398004e-12,25.8122141 1.41398004e-12,25.5806113 C1.41398004e-12,20.2133966 5.18374691,15.8462113 11.5551709,15.8462113 Z" id="Combined-Shape" stroke="#FFFFFF" stroke-width="0.5" fill="#FFFFFF" fill-rule="nonzero"></path>
                                            <g id="Icons/Forms-/Checkbox/Selected" transform="translate(17.337399, 19.923106)"></g>
                                        </g>
                                        <path d="M18.1373143,24.9503094 C18.0450022,24.8603037 18,24.7236077 18,24.6336021 C18,24.5435965 18.0450022,24.4097131 18.1373143,24.3197075 L18.7840762,23.6891055 C18.9692774,23.5085318 19.2462138,23.5085318 19.430838,23.6891055 L19.4764171,23.7352334 L22.0161546,26.3892743 C22.1084668,26.4798425 22.245781,26.4798425 22.3386701,26.3892743 L28.522429,20.1333208 L28.5697389,20.1333208 C28.7549401,19.9555597 29.0318765,19.9555597 29.2165008,20.1333208 L29.8615318,20.7639227 C30.0461561,20.9444965 30.0461561,21.2145134 29.8615318,21.3945246 L22.4782922,28.8661166 C22.3859801,28.9561222 22.293091,29 22.1534689,29 C22.0161546,29 21.9238425,28.9561222 21.8315304,28.8661166 L18.2296264,25.0841927 L18.1373143,24.9503094 Z" id="Fill-1" fill="#FFFFFF"></path>
                                    </g>
                                </g>
                            </g>
                        </g>
                    </g>
                </g>
            </g>
        </g>
    </g>
</svg>