<?xml version="1.0" encoding="UTF-8"?>
<svg width="23px" height="23px" viewBox="0 0 23 23" version="1.1" xmlns="http://www.w3.org/2000/svg" xmlns:xlink="http://www.w3.org/1999/xlink">
    <!-- Generator: sketchtool 55.2 (78181) - https://sketchapp.com -->
    <title>A0DF9414-98EA-465B-9095-F6AB0230905D</title>
    <desc>Created with sketchtool.</desc>
    <g id="🇺🇸🇪🇺-Checkout---Large-1366-&amp;-1920" stroke="none" stroke-width="1" fill="none" fill-rule="evenodd">
        <g id="Returning-Checkout---Payment-Default--Desktop" transform="translate(-652.000000, -725.000000)">
            <g id="Payment-Method" transform="translate(63.000000, 362.000000)">
                <g id="payment-method-choices" transform="translate(0.000000, 52.000000)">
                    <g id="Payment-icons-Checkout" transform="translate(409.000000, 311.000000)">
                        <g id="AmEx">
                            <g transform="translate(180.000000, 0.000000)">
                                <polygon id="Fill-1" fill="#E7E7E7" points="0.00345 -7.2327044e-06 0.00345 22.9105242 22.9136198 22.9105242 22.9136198 12.4867506 22.9136198 -7.2327044e-06"></polygon>
                                <g id="Group-9" transform="translate(0.000000, 7.070909)" fill="#292C2E">
                                    <path d="M6.67995943,6.61518333 L6.67995943,6.0673783 L4.52012925,6.0673783 L4.52012925,8.76727453 L6.67995943,8.76727453 L6.67995943,8.2232305 L5.16832421,8.2232305 L5.16832421,7.67969277 L6.64538711,7.67969277 L6.64538711,7.13962673 L5.16832421,7.13962673 L5.16832421,6.61518333 L6.67995943,6.61518333 Z M8.92853491,8.76727453 L9.73852547,8.76727453 L8.65463239,7.40579025 L9.73078648,6.0673783 L8.94415755,6.0673783 L8.28055692,6.92365818 L7.62115126,6.0673783 L6.81116069,6.0673783 L7.89107579,7.41721792 L6.8149217,8.76727453 L7.60183994,8.76727453 L8.26515126,7.89942233 L8.92853491,8.76727453 Z M9.8811544,6.0673783 L9.8811544,8.76727453 L10.5291324,8.76727453 L10.5291324,7.87606069 L11.342884,7.87606069 C11.9330726,7.87606069 12.2992645,7.49055755 12.2992645,6.96980283 C12.2992645,6.43393176 11.9408116,6.0673783 11.3659563,6.0673783 L9.8811544,6.0673783 Z M11.6475255,6.97363616 C11.6475255,7.15524937 11.5319469,7.30540031 11.3043336,7.30540031 L10.5291324,7.30540031 L10.5291324,6.64223365 L11.3043336,6.64223365 C11.5319469,6.64223365 11.6475255,6.78862358 11.6475255,6.97363616 L11.6475255,6.97363616 Z M13.2983179,7.79519906 L13.6030318,7.79519906 L14.4091167,8.76727453 L15.2151292,8.76727453 L14.3166104,7.77212673 C14.7756701,7.68714245 15.0492833,7.35559528 15.0492833,6.92365818 C15.0492833,6.41830912 14.6906858,6.0673783 14.1160475,6.0673783 L12.6504123,6.0673783 L12.6504123,8.76727453 L13.2983179,8.76727453 L13.2983179,7.79519906 Z M14.0581135,6.61894434 C14.2894877,6.61894434 14.4130223,6.76931226 14.4130223,6.95461415 C14.4130223,7.13962673 14.2894877,7.28601667 14.0581135,7.28601667 L13.2983179,7.28601667 L13.2983179,6.61894434 L14.0581135,6.61894434 Z M17.6759123,6.61518333 L17.6759123,6.0673783 L15.5160821,6.0673783 L15.5160821,8.76727453 L17.6759123,8.76727453 L17.6759123,8.2232305 L16.1639877,8.2232305 L16.1639877,7.67969277 L17.641123,7.67969277 L17.641123,7.13962673 L16.1639877,7.13962673 L16.1639877,6.61518333 L17.6759123,6.61518333 Z M19.4537833,8.22720849 L18.0692991,8.22720849 L18.0692991,8.76727453 L19.4343274,8.76727453 C20.0169217,8.76727453 20.3641638,8.41236572 20.3641638,7.90708899 C20.3641638,7.42488459 20.051711,7.14360472 19.5270506,7.14360472 L18.9022173,7.14360472 C18.7478714,7.14360472 18.6400318,7.04314245 18.6400318,6.88503553 C18.6400318,6.72302296 18.7478714,6.61518333 18.9022173,6.61518333 L20.0746387,6.61518333 L20.3138965,6.0673783 L18.921384,6.0673783 C18.3390789,6.0673783 17.9918368,6.42228711 17.9918368,6.90825252 C17.9918368,7.40579025 18.3199123,7.69112044 18.8328557,7.69112044 L19.4537833,7.69112044 C19.6079123,7.69112044 19.7197299,7.7912934 19.7197299,7.95352296 C19.7197299,8.11915189 19.6079123,8.22720849 19.4537833,8.22720849 L19.4537833,8.22720849 Z M22.022406,8.22720849 L20.637777,8.22720849 L20.637777,8.76727453 L22.0028777,8.76727453 C22.5856167,8.76727453 22.9325695,8.41236572 22.9325695,7.90708899 C22.9325695,7.42488459 22.620189,7.14360472 22.0957456,7.14360472 L21.4708399,7.14360472 C21.3163494,7.14360472 21.2086544,7.04314245 21.2086544,6.88503553 C21.2086544,6.72302296 21.3163494,6.61518333 21.4708399,6.61518333 L22.6431167,6.61518333 L22.8825915,6.0673783 L21.4900789,6.0673783 C20.9074846,6.0673783 20.5605318,6.42228711 20.5605318,6.90825252 C20.5605318,7.40579025 20.8886072,7.69112044 21.4014783,7.69112044 L22.022406,7.69112044 C22.1765349,7.69112044 22.2883525,7.7912934 22.2883525,7.95352296 C22.2883525,8.11915189 22.1765349,8.22720849 22.022406,8.22720849 L22.022406,8.22720849 Z" id="Fill-5"></path>
                                    <path d="M2.44526164,3.38642453 L3.17424591,3.38642453 L2.02099119,0.686528302 L1.16876164,0.686528302 L0.0116012579,3.38642453 L0.701962893,3.38642453 L0.929648428,2.80780818 L2.21388742,2.80780818 L2.44526164,3.38642453 Z M1.37308553,1.69332075 L1.56988742,1.18804403 L1.76647233,1.69332075 L2.00558553,2.29110377 L1.13795031,2.29110377 L1.37308553,1.69332075 Z M3.95342516,1.54295283 L3.93780252,0.814040881 L4.68609811,3.38642453 L5.27238113,3.38642453 L6.02053208,0.829374214 L6.00512642,1.53904717 L6.00512642,3.38642453 L6.63372075,3.38642453 L6.63372075,0.686528302 L5.49211069,0.686528302 L4.9791673,2.59957862 L4.46246289,0.686528302 L3.32461384,0.686528302 L3.32461384,3.38642453 L3.95342516,3.38642453 L3.95342516,1.54295283 Z M9.32587799,1.23433333 L9.32587799,0.686528302 L7.1660478,0.686528302 L7.1660478,3.38642453 L9.32587799,3.38642453 L9.32587799,2.83493082 L7.81402579,2.83493082 L7.81402579,2.29877044 L9.29108868,2.29877044 L9.29108868,1.75899371 L7.81402579,1.75899371 L7.81402579,1.23433333 L9.32587799,1.23433333 Z M10.4480321,2.41456604 L10.7527459,2.41456604 L11.5590478,3.38642453 L12.3649881,3.38642453 L11.4663245,2.39127673 C11.9253119,2.30650943 12.1992145,1.97467296 12.1992145,1.54295283 C12.1992145,1.0376761 11.8403277,0.686528302 11.2657616,0.686528302 L9.80012642,0.686528302 L9.80012642,3.38642453 L10.4480321,3.38642453 L10.4480321,2.41456604 Z M11.2078277,1.23823899 C11.4392742,1.23823899 11.5628088,1.38860692 11.5628088,1.57376415 C11.5628088,1.75899371 11.4392742,1.90531132 11.2078277,1.90531132 L10.4480321,1.90531132 L10.4480321,1.23823899 L11.2078277,1.23823899 Z M12.5693843,3.38642453 L13.2173623,3.38642453 L13.2173623,2.19816352 L13.2173623,0.686528302 L12.5693843,0.686528302 L12.5693843,2.18275786 L12.5693843,3.38642453 Z M14.8719157,3.38642453 L14.9066327,3.38642453 L15.1726516,2.81178616 L14.9759943,2.81178616 C14.5323403,2.81178616 14.2701547,2.53412264 14.2701547,2.05589623 L14.2701547,2.01741824 C14.2701547,1.58916981 14.5052899,1.26912264 14.9683277,1.26912264 L15.6701893,1.26912264 L15.6701893,0.686528302 L14.9142994,0.686528302 C14.0812365,0.686528302 13.6261547,1.24597799 13.6261547,2.01344025 L13.6261547,2.05972956 C13.6261547,2.86198113 14.0928811,3.38266352 14.8719157,3.38642453 L14.8719157,3.38642453 Z M17.6987459,3.38642453 L18.4275855,3.38642453 L17.2746925,0.686528302 L16.4220289,0.686528302 L15.2653025,3.38642453 L15.9555195,3.38642453 L16.1831327,2.80780818 L17.4673717,2.80780818 L17.6987459,3.38642453 Z M16.6267868,1.69332075 L16.8233717,1.18804403 L17.0198119,1.69332075 L17.2592868,2.29110377 L16.3914346,2.29110377 L16.6267868,1.69332075 Z M19.2106704,1.77042138 L19.2029314,1.54671384 L19.337966,1.77042138 L20.3713748,3.38642453 L21.1276264,3.38642453 L21.1276264,0.686528302 L20.4951264,0.686528302 L20.4951264,2.2486478 L20.5027931,2.44921069 L20.3832365,2.2486478 L19.372466,0.686528302 L18.5783874,0.686528302 L18.5783874,3.38642453 L19.2106704,3.38642453 L19.2106704,1.77042138 Z" id="Fill-7"></path>
                                </g>
                            </g>
                        </g>
                    </g>
                </g>
            </g>
        </g>
    </g>
</svg>