<?xml version="1.0" encoding="UTF-8"?>
<svg width="21px" height="21px" viewBox="0 0 21 21" version="1.1" xmlns="http://www.w3.org/2000/svg" xmlns:xlink="http://www.w3.org/1999/xlink">
    <!-- Generator: sketchtool 51.3 (57544) - http://www.bohemiancoding.com/sketch -->
    <title>D484C2FA-1465-41F9-871C-E0091347C974</title>
    <desc>Created with sketchtool.</desc>
    <defs></defs>
    <g id="🌑-PDP---Desktop-1920" stroke="none" stroke-width="1" fill="none" fill-rule="evenodd">
        <g id="PDP-(Make-up)---1920" transform="translate(-1440.000000, -472.000000)" stroke="#FFFFFF">
            <g id="Hero-Product-" transform="translate(0.000000, 119.000000)">
                <g id="Product-Details" transform="translate(1320.000000, 140.000000)">
                    <g id="PRoduct-name-+-Benefit">
                        <g id="Size-Tabs" transform="translate(71.000000, 212.000000)">
                            <g id="Group" transform="translate(23.000000, 0.000000)">
                                <g id="Group-4">
                                    <g id="Group-3" transform="translate(24.000000, 0.000000)">
                                        <g id="Brush" transform="translate(12.412132, 12.212132) rotate(-315.000000) translate(-12.412132, -12.212132) translate(7.912132, 0.212132)">
                                            <path d="M7.80582923,4.36357403 C9.13044462,1.77656104 7.15967538,0.155781818 4.18736769,0.155781818 C1.21506,0.155781818 -0.723401538,1.77656104 0.568906154,4.36357403 L2.00595231,7.92024935 C2.03567538,7.9934961 2.10869077,8.0414961 2.19010615,8.0414961 L6.18462923,8.0414961 C6.26604462,8.0414961 6.33906,7.9934961 6.36878308,7.92024935 L7.80582923,4.36357403 Z" id="Stroke-1"></path>
                                            <polygon id="Stroke-3" points="6.27344308 8.04158961 2.06892 8.04158961 2.25598154 12.7063169 6.08605846 12.7063169"></polygon>
                                            <path d="M2.25611077,12.7064104 L2.76592615,22.6286961 C2.79823385,23.3452675 3.41208,23.9063065 4.15515692,23.9063065 C4.93021846,23.937787 5.54438769,23.3767481 5.57637231,22.6286961 L6.08586462,12.7064104 L2.25611077,12.7064104 Z" id="Stroke-5"></path>
                                        </g>
                                    </g>
                                </g>
                            </g>
                        </g>
                    </g>
                </g>
            </g>
        </g>
    </g>
</svg>