<?xml version="1.0" encoding="UTF-8"?>
<svg width="30px" height="23px" viewBox="0 0 30 23" version="1.1" xmlns="http://www.w3.org/2000/svg" xmlns:xlink="http://www.w3.org/1999/xlink">
    <!-- Generator: Sketch 56.3 (81716) - https://sketch.com -->
    <title>Shape</title>
    <desc>Created with Sketch.</desc>
    <g id="Symbols" stroke="none" stroke-width="1" fill="none" fill-rule="evenodd">
        <g id="Payment-icons-Checkout" transform="translate(-1.000000, -1.000000)" fill="#FFFFFF" fill-rule="nonzero">
            <g id="icons8-discover" transform="translate(1.000000, 1.000000)">
                <path d="M3,0 C1.35,0 0,1.38 0,3.06666667 L0,19.0133333 C0,20.7 1.35,22.08 3,22.08 L27,22.08 C28.65,22.08 30,20.7 30,19.0133333 L30,3.06666667 C30,1.38 28.65,0 27,0 L3,0 Z M3,1.22666667 L27,1.22666667 C28.0007814,1.22666667 28.8,2.04364568 28.8,3.06666667 L28.8,19.0133333 C28.8,20.0363543 28.0007814,20.8533333 27,20.8533333 L3,20.8533333 C1.9992186,20.8533333 1.2,20.0363543 1.2,19.0133333 L1.2,3.06666667 C1.2,2.04364568 1.9992186,1.22666667 3,1.22666667 Z M12.7125,9.1425 C11.6132814,9.1425 10.725,10.0313543 10.725,11.1358333 C10.725,12.2522914 11.5898436,13.11 12.69375,13.11 C13.0054686,13.11 13.2820314,13.0572914 13.6125,12.8991667 L13.6125,12.0175 C13.321875,12.3145833 13.059375,12.4391667 12.73125,12.4391667 C12,12.4391667 11.475,11.9048957 11.475,11.1358333 C11.475,10.4075 12.0140628,9.8325 12.69375,9.8325 C13.0382814,9.8325 13.3101564,9.95229136 13.6125,10.2541667 L13.6125,9.39166667 C13.29375,9.22635432 13.0242186,9.1425 12.7125,9.1425 Z M9.28125,9.16166667 C8.6226564,9.16166667 8.11875,9.63125 8.11875,10.2541667 C8.11875,10.776458 8.3601564,11.0471877 9.0375,11.3083333 C9.43125,11.459271 9.75,11.5359377 9.75,11.9025 C9.75,12.2115623 9.5109372,12.4391667 9.1875,12.4391667 C8.8429686,12.4391667 8.5664064,12.271458 8.4,11.9408333 L7.93125,12.4008333 C8.2664064,12.9015623 8.6742186,13.1291667 9.225,13.1291667 C9.9773436,13.1291667 10.5,12.6188543 10.5,11.8833333 C10.5,11.2795833 10.25625,11.0040623 9.43125,10.695 C8.9953128,10.5296877 8.86875,10.4218753 8.86875,10.2158333 C8.86875,9.97625 9.1007814,9.79416667 9.4125,9.79416667 C9.6304686,9.79416667 9.8039064,9.88520864 9.99375,10.1008333 L10.36875,9.58333333 C10.0570314,9.30541667 9.6890628,9.16166667 9.28125,9.16166667 Z M15.76875,9.16166667 C14.6976564,9.16166667 13.81875,10.0409377 13.81875,11.1358333 C13.81875,12.230729 14.6976564,13.1291667 15.76875,13.1291667 C16.8398436,13.1291667 17.7,12.230729 17.7,11.1358333 C17.7,10.0409377 16.8398436,9.16166667 15.76875,9.16166667 Z M3.54375,9.23833333 L3.54375,13.0333333 L4.6125,13.0333333 C6.2296872,13.0333333 6.6,11.7276043 6.6,11.1358333 C6.6,10.0145833 5.7890628,9.23833333 4.6125,9.23833333 L3.54375,9.23833333 Z M6.9375,9.23833333 L6.9375,13.0333333 L7.66875,13.0333333 L7.66875,9.23833333 L6.9375,9.23833333 Z M17.56875,9.23833333 L19.14375,13.1291667 L19.5375,13.1291667 L21.15,9.23833333 L20.3625,9.23833333 L19.35,11.7875 L18.35625,9.23833333 L17.56875,9.23833333 Z M21.46875,9.23833333 L21.46875,13.0333333 L23.53125,13.0333333 L23.53125,12.3816667 L22.2,12.3816667 L22.2,11.3658333 L23.475,11.3658333 L23.475,10.7141667 L22.2,10.7141667 L22.2,9.87083333 L23.53125,9.87083333 L23.53125,9.23833333 L21.46875,9.23833333 Z M24,9.23833333 L24,13.0333333 L24.73125,13.0333333 L24.73125,11.5 L24.825,11.5 L25.81875,13.0333333 L26.71875,13.0333333 L25.55625,11.4425 C26.1023436,11.3275 26.4,10.9321877 26.4,10.35 C26.4,9.63843765 25.9242186,9.23833333 25.0875,9.23833333 L24,9.23833333 Z M24.73125,9.8325 L24.95625,9.8325 C25.4085936,9.8325 25.65,10.0193753 25.65,10.3883333 C25.65,10.769271 25.3992186,10.9825 24.9375,10.9825 L24.73125,10.9825 L24.73125,9.8325 Z M4.275,9.87083333 L4.51875,9.87083333 C5.5054686,9.87083333 5.85,10.539271 5.85,11.1358333 C5.85,11.4209377 5.7679686,12.3816667 4.4625,12.3816667 L4.275,12.3816667 L4.275,9.87083333 Z" id="Shape"></path>
            </g>
        </g>
    </g>
</svg>