<?xml version="1.0" encoding="UTF-8"?>
<svg width="17px" height="22px" viewBox="0 0 17 22" version="1.1" xmlns="http://www.w3.org/2000/svg" xmlns:xlink="http://www.w3.org/1999/xlink">
    <!-- Generator: Sketch 56.3 (81716) - https://sketch.com -->
    <title>Icon/Edit</title>
    <desc>Created with Sketch.</desc>
    <g id="ðŸ”-Checkout---Large-1366-&amp;-1920" stroke="none" stroke-width="1" fill="none" fill-rule="evenodd">
        <g id="Returning-Checkout---Pick-Your-Delivery-(address)---Desktop" transform="translate(-611.000000, -459.000000)" fill="#FFFFFF">
            <g id="Your-details" transform="translate(63.000000, 275.000000)">
                <g id="Delivery-Address" transform="translate(0.000000, 122.000000)">
                    <g id="Address-Default">
                        <path d="M558.456747,62.0019 C558.290799,62.0135426 558.14145,62.1066736 558.058459,62.2502494 L548.062507,79.6347133 C548.020531,79.7103829 547.999055,79.7967216 548,79.8830628 L548,83.3599556 C548,83.5268167 548.083983,83.6820401 548.223574,83.7742025 C548.363165,83.8663626 548.54082,83.8828554 548.695058,83.8178574 L552.193641,82.3277605 C552.295163,82.2860452 552.380088,82.2123177 552.435731,82.1182156 L562.431683,64.7337517 C562.499148,64.618309 562.516608,64.481528 562.481467,64.353479 C562.446327,64.224454 562.361399,64.1158011 562.244258,64.0507906 L558.745675,62.0639948 C558.657821,62.0145186 558.557274,61.9931754 558.456742,62.0019074 L558.456747,62.0019 Z M558.683218,63.18156 L561.307155,64.6716569 L560.127933,66.7205402 L557.519489,65.2071481 L558.683218,63.18156 Z M557.027639,66.0686228 L559.636082,67.5820148 L551.639321,81.4818871 L548.99989,82.6072083 L548.99989,80.0228836 L557.027639,66.0686228 Z M554.950355,82.8632566 C554.817596,82.8690775 554.692659,82.9272836 554.60382,83.0252649 C554.514011,83.1222752 554.468133,83.2513027 554.47399,83.3832359 C554.479848,83.5151691 554.538417,83.6393339 554.637009,83.7276221 C554.734625,83.816874 554.864457,83.8624684 554.997213,83.8566471 L564.493368,83.8566471 C564.627104,83.8585872 564.755961,83.8071709 564.851623,83.7140399 C564.946312,83.6199378 565,83.4928549 565,83.3599432 C565,83.2270315 564.946312,83.0999461 564.851623,83.0058465 C564.755959,82.9127154 564.627104,82.8612996 564.493368,82.8632393 L554.997213,82.8632393 C554.981595,82.8622682 554.965976,82.8622682 554.950357,82.8632393 L554.950355,82.8632566 Z" id="Icon/Edit"></path>
                    </g>
                </g>
            </g>
        </g>
    </g>
</svg>