<?xml version="1.0" encoding="UTF-8"?>
<svg width="30px" height="20px" viewBox="0 0 30 20" version="1.1" xmlns="http://www.w3.org/2000/svg" xmlns:xlink="http://www.w3.org/1999/xlink">
    <!-- Generator: Sketch 63.1 (92452) - https://sketch.com -->
    <title>Email@3x</title>
    <desc>Created with Sketch.</desc>
    <g id="Symbols" stroke="none" stroke-width="1" fill="none" fill-rule="evenodd">
        <g id="Global-Elements-/-Footer-/-Section-/-Can-we-help?-/-375" transform="translate(-195.000000, -138.000000)">
            <g id="Group-4">
                <g id="Group-9" transform="translate(15.000000, 25.000000)">
                    <g id="Group-2" transform="translate(33.000000, 108.000000)">
                        <g id="Group-8">
                            <g id="Group">
                                <g id="Icons-/-Customer-Service-/-Email-Us-/-30" transform="translate(147.000000, 0.000000)">
                                    <g id="Backgrounds_Titles">
                                        <rect id="Rectangle" x="0.05835" y="0" width="29.88329" height="29.88329"></rect>
                                    </g>
                                    <g id="Send_an_email_30" transform="translate(0.000000, 5.000000)" fill="#FFFFFF">
                                        <rect id="Rectangle" fill-rule="nonzero" x="17.00805" y="10.42755" width="1" height="1"></rect>
                                        <rect id="Rectangle" fill-rule="nonzero" x="17.00805" y="11.27743" width="1" height="2.22242"></rect>
                                        <path d="M20.82879,11.20157 C20.3145419,11.1940185 19.8690286,11.556606 19.77198,12.06167 L19.77198,11.27743 L19.1439,11.27743 L19.1439,13.49984 L19.772,13.49984 L19.772,12.69539 C19.8644667,13.2102569 20.3212135,13.5789479 20.844,13.56072 C21.2538945,13.5766962 21.6368858,13.3570762 21.83013,12.99524 C21.84487,12.96243 21.87703,12.90155 21.88999,12.86612 C21.8976,12.84591 21.89088,12.8062 21.85777,12.80358 L21.32624,12.80358 C21.30954,12.8062 21.29319,12.80667 21.28224,12.82189 C21.25644,12.85828 21.23444,12.94364 21.18278,12.9805 C21.0370366,13.081469 20.8510315,13.1045119 20.6850554,13.0421596 C20.5190792,12.9798073 20.3942541,12.8399948 20.35104,12.66804 C20.3434894,12.6397801 20.3444425,12.6099208 20.35378,12.5822 C20.3624842,12.5663794 20.3788371,12.5562718 20.39688,12.55556 L21.86466,12.55556 C21.86466,12.55556 21.89016,12.55675 21.89943,12.54581 C21.90776,12.53581 21.90377,12.52681 21.90431,12.513 C21.9529614,12.19326 21.8636344,11.8678943 21.6585434,11.6178176 C21.4534524,11.3677409 21.1518678,11.2164503 20.82879,11.20157 Z M21.27174,12.10637 C21.2597126,12.1164622 21.2449589,12.1227549 21.22935,12.12445 L20.40052,12.12445 C20.386856,12.1244563 20.3734585,12.120669 20.36182,12.11351 C20.34363,12.0971 20.35053,12.07736 20.356,12.05168 C20.3977849,11.8273365 20.595081,11.6656994 20.8232605,11.6688712 C21.0514401,11.672043 21.2441671,11.8391018 21.2797,12.06452 C21.284928,12.0788737 21.2818726,12.0949379 21.27174,12.10637 L21.27174,12.10637 Z" id="Shape" fill-rule="nonzero"></path>
                                        <path d="M16.8187,12.98645 L16.82215,11.88737 C16.77869,11.37373 16.31191,11.2282 15.87401,11.22511 C15.5516082,11.1854582 15.2333421,11.3253298 15.04453,11.58965 L15.04453,11.25127 C15.0013276,11.2417444 14.9569467,11.238711 14.91285,11.24227 C14.6561932,11.2213445 14.4216632,11.3880099 14.35701,11.63727 L14.34862,11.63727 L14.34862,11.27749 L13.77453,11.27749 L13.77453,11.97327 C13.7138364,11.5196865 13.3254474,11.1819205 12.86783,11.18475 C12.6106227,11.171431 12.3674277,11.302548 12.2372,11.52475 L12.23791,11.28075 L11.63041,11.28075 L11.63041,14.69023 L12.23411,14.69023 L12.23411,13.27964 L12.24267,13.29177 C12.4026371,13.4865103 12.6521071,13.5844271 12.90183,13.55049 C13.3450966,13.540418 13.7151977,13.2094432 13.77453,12.77005 L13.77453,13.50005 L14.37829,13.50005 L14.37829,12.5094 C14.37829,12.07281 14.49552,11.77652 14.89941,11.77652 C14.9234263,11.776312 14.9471127,11.7821184 14.96831,11.79341 C14.9445021,11.8587218 14.9282072,11.9265318 14.91974,11.99553 L15.46292,11.99553 C15.48438,11.75726 15.61672,11.68521 15.84625,11.68521 C16.05877,11.68521 16.20353,11.75465 16.22315,11.91349 C16.24627,12.09849 16.0715,12.07638 15.70167,12.13155 C15.32744,12.18244 14.81101,12.35793 14.81101,12.85539 C14.8065137,13.048935 14.8829091,13.2355922 15.0218131,13.3704461 C15.1607172,13.5052999 15.3495527,13.57614 15.54288,13.56592 C15.8058085,13.6088164 16.0718798,13.5099498 16.243,13.30577 C16.269,13.3714 16.30061,13.42538 16.32171,13.49339 L16.922,13.49339 C16.8808085,13.4365844 16.8534178,13.3709633 16.842,13.30173 C16.8280866,13.1971815 16.8203067,13.091908 16.8187,12.98645 Z M12.74019,13.0347251 C12.34902,13.03614 12.213,12.74318 12.213,12.38602 C12.213,12.02886 12.34046,11.6793 12.736,11.67602 C13.08443,11.67316 13.22681,12.03746 13.22681,12.38602 C13.22678,12.74318 13.09694,13.03377 12.74019,13.0347251 Z M16.25371,12.75317 C16.23789,12.91867 16.1486,13.04185 15.77206,13.09536 C15.62783,13.11604 15.42214,13.05659 15.40633,12.86612 C15.38796,12.64569 15.62766,12.57435 15.81456,12.53583 C15.9599157,12.512321 16.1039085,12.4810463 16.24592,12.44214 C16.2593025,12.5452655 16.2619132,12.6495039 16.25371,12.75317 L16.25371,12.75317 Z" id="Shape" fill-rule="nonzero"></path>
                                        <path d="M10.66687,12.98645 L10.66509,11.8876 C10.62163,11.37373 10.15484,11.22844 9.71695,11.22511 C9.16764,11.22131 8.79669,11.43011 8.76268,11.99556 L9.3058,11.99556 C9.32708,11.75756 9.45965,11.68524 9.68912,11.68524 C9.90189,11.68524 10.04629,11.75468 10.06612,11.91352 C10.08924,12.09852 9.91446,12.07641 9.54458,12.13158 C9.17907927,12.1418435 8.8511638,12.3588976 8.69892,12.69134 L8.69892,10.04447 L8.0952,10.04447 L8.0952,13.49347 L8.69889,13.49347 L8.69889,13.08947 C8.79936951,13.3810668 9.07732256,13.573843 9.38564,13.56577 C9.64857901,13.6089233 9.91477373,13.5101191 10.08588,13.30586 C10.11188,13.37149 10.14337,13.42547 10.16465,13.49348 L10.7649,13.49348 C10.7236395,13.4367132 10.6962418,13.3710751 10.6849,13.30182 C10.6728061,13.197133 10.666786,13.0918333 10.66687,12.98645 L10.66687,12.98645 Z M10.09646,12.75317 C10.08065,12.91867 9.99154,13.04185 9.61458,13.09559 C9.47058,13.11604 9.2649,13.05659 9.24909,12.86612 C9.2309,12.64569 9.47036,12.57412 9.6575,12.53583 C9.80342886,12.5110328 9.94785488,12.4780846 10.0901,12.43714 C10.1014974,12.5420921 10.1036256,12.6478443 10.09646,12.75317 Z" id="Shape" fill-rule="nonzero"></path>
                                        <path d="M18.398,11.62508 L18.38944,11.63721 L18.38944,11.27743 L17.81544,11.27743 L17.81544,13.50008 L18.41914,13.50008 L18.41914,12.50943 C18.41914,12.12254 18.53643,11.77655 18.94027,11.77655 C18.989572,11.7776626 19.0384759,11.7856668 19.08556,11.80033 L19.08556,11.23938 C19.0423407,11.2296959 18.9979219,11.2264909 18.95376,11.22987 C18.6970632,11.208981 18.4625418,11.3757531 18.398,11.62508 Z" id="Path" fill-rule="nonzero"></path>
                                        <rect id="Rectangle" fill-rule="nonzero" x="19.1439" y="10.42755" width="1" height="1"></rect>
                                        <path d="M29.99631,0.48328 C29.9884265,0.432423658 29.9757706,0.38242286 29.95851,0.33394 C29.95589,0.32847 29.95631,0.32229 29.95339,0.31706 C29.9432028,0.302758783 29.9319544,0.289244 29.91974,0.27663 C29.8732806,0.215974548 29.8119768,0.168312569 29.74174,0.13824 C29.7147996,0.129474513 29.6869273,0.123886632 29.65869,0.12159 C29.6427287,0.117061158 29.6264543,0.113718712 29.61,0.11159 L0.39,0.11159 C0.368723331,0.113937637 0.347707977,0.118239123 0.32722,0.12444 C0.305457497,0.12690635 0.283941428,0.131201536 0.2629,0.13728 C0.236326036,0.147590526 0.210983138,0.160828803 0.18734,0.17675 C0.168485656,0.187242249 0.150566572,0.199333282 0.13378,0.21289 C0.11325026,0.232524486 0.0949648272,0.254378463 0.07926,0.27805 C0.0674801358,0.290266851 0.0565764263,0.303299173 0.04663,0.31705 C0.04371,0.32252 0.04413,0.32846 0.04151,0.33393 C0.0312879076,0.358360061 0.0236204334,0.383782028 0.01863,0.40979 C0.0112873673,0.433738884 0.00631023109,0.458349918 0.00377,0.48327 C0.00345,0.4897 0,0.49493 0,0.50159 L0,18.727 C0.00100331672,19.3683705 0.520958898,19.8879101 1.16233,19.8884 L28.83862,19.8884 C29.4796703,19.8875077 29.9991187,19.3680503 30,18.727 L30,0.50159 C30,0.49516 29.99661,0.4897 29.99631,0.48328 Z M28.06131,0.89157 L15,7.91313 L1.93867,0.89157 L28.06131,0.89157 Z M28.8386,19.10843 L1.16233,19.10843 C0.951494085,19.10843 0.780419241,18.9378355 0.78,18.727 L0.78,1.15385 L14.81551,8.69885 C14.9306847,8.76098288 15.0693953,8.76098288 15.18457,8.69885 L29.22,1.15385 L29.22,18.727 C29.2196862,18.9375083 29.0491283,19.1080886 28.83862,19.10843 L28.8386,19.10843 Z" id="Shape" fill-rule="nonzero"></path>
                                    </g>
                                </g>
                            </g>
                        </g>
                    </g>
                </g>
            </g>
        </g>
    </g>
</svg>