<?xml version="1.0" encoding="UTF-8"?>
<svg width="26px" height="26px" viewBox="0 0 26 26" version="1.1" xmlns="http://www.w3.org/2000/svg" xmlns:xlink="http://www.w3.org/1999/xlink">
    <!-- Generator: sketchtool 62 (101010) - https://sketch.com -->
    <title>A9F0D4F8-BF08-4DAC-987F-7F214386FBFC@3x</title>
    <desc>Created with sketchtool.</desc>
    <g id="Asset-Artboard-Page" stroke="none" stroke-width="1" fill="none" fill-rule="evenodd">
        <g id="Search-Copy-2-Icons-/-Location-/-Light" fill="#696D6E" fill-rule="nonzero">
            <g id="internet">
                <path d="M22.7222069,21.6167586 C24.7591724,19.3211379 26,16.3033448 26,13 C26,9.56306897 24.6569655,6.43589655 22.4711724,4.10889655 C22.4711724,4.10889655 22.4711724,4.10844828 22.4711724,4.10844828 C22.4693793,4.10575862 22.4666897,4.10486207 22.4653448,4.10262069 C20.1885517,1.68237931 16.9986207,0.133137931 13.4505172,0.0116551724 L13.450069,0.0112068966 L13.1967931,0.00448275862 C13.1313448,0.00224137931 13.0658966,0 13,0 C12.9341034,0 12.8686552,0.00224137931 12.8032069,0.00448275862 L12.5508276,0.0112068966 L12.5503793,0.0116551724 C9.00227586,0.133137931 5.81234483,1.68237931 3.53555172,4.10262069 C3.53375862,4.10486207 3.53106897,4.10575862 3.52972414,4.10844828 C3.52972414,4.10844828 3.52972414,4.10889655 3.52927586,4.10934483 C1.34303448,6.43589655 0,9.56306897 0,13 C0,16.3033448 1.24082759,19.3211379 3.2777931,21.6167586 C3.28048276,21.6207931 3.28048276,21.6252759 3.28362069,21.6293103 C3.29168966,21.6405172 3.30334483,21.6458966 3.31186207,21.6562069 C5.60075862,24.2149655 8.88482759,25.8632759 12.549931,25.9887931 L12.5503793,25.9892414 L12.8027586,25.9959655 C12.8686552,25.9977586 12.9341034,26 13,26 C13.0658966,26 13.1313448,25.9977586 13.1967931,25.9955172 L13.4491724,25.9887931 L13.4496207,25.9883448 C17.1187586,25.8623793 20.4064138,24.210931 22.6953103,21.6467931 C22.7011379,21.6391724 22.7105517,21.636931 22.715931,21.6288621 C22.7195172,21.6252759 22.7195172,21.6207931 22.7222069,21.6167586 Z M0.907758621,13.4482759 L6.28841379,13.4482759 C6.33906897,15.3485172 6.71024138,17.1949655 7.371,18.9248621 C6.09610345,19.3861379 4.87724138,20.0047586 3.73503448,20.7766897 C2.05534483,18.7787241 1.00996552,16.232069 0.907758621,13.4482759 Z M3.9797931,4.94134483 C5.09510345,5.66665517 6.28258621,6.24762069 7.52117241,6.68155172 C6.76268966,8.52262069 6.34310345,10.5075862 6.28841379,12.5517241 L0.907758621,12.5517241 C1.01489655,9.6347931 2.15710345,6.97875862 3.9797931,4.94134483 Z M25.0922414,12.5517241 L19.7115862,12.5517241 C19.6568966,10.5075862 19.2373103,8.52262069 18.4788276,6.68155172 C19.7174138,6.24762069 20.9048966,5.66665517 22.0202069,4.94134483 C23.8428966,6.97875862 24.9851034,9.6347931 25.0922414,12.5517241 Z M12.5517241,6.70755172 C11.2557586,6.6707931 9.98355172,6.47758621 8.75437931,6.13241379 C9.66303448,4.26848276 10.946,2.58610345 12.5517241,1.18524138 L12.5517241,6.70755172 Z M12.5517241,7.60410345 L12.5517241,12.5517241 L7.18496552,12.5517241 C7.24010345,10.6026207 7.64893103,8.71224138 8.38006897,6.95948276 C9.72758621,7.34993103 11.1266552,7.566 12.5517241,7.60410345 Z M13.4482759,7.60410345 C14.8733448,7.566 16.2724138,7.35037931 17.6203793,6.95948276 C18.3515172,8.71224138 18.7603448,10.6026207 18.8154828,12.5517241 L13.4482759,12.5517241 L13.4482759,7.60410345 Z M13.4482759,6.70755172 L13.4482759,1.18524138 C15.054,2.58610345 16.3369655,4.26848276 17.2456207,6.13241379 C16.0164483,6.47758621 14.7442414,6.6707931 13.4482759,6.70755172 Z M18.1143793,5.85986207 C17.2532414,4.05555172 16.0581379,2.41172414 14.5783793,1.0027931 C17.2034828,1.34617241 19.5654483,2.5332069 21.3845517,4.28327586 C20.3517241,4.93865517 19.2561379,5.46582759 18.1143793,5.85986207 Z M7.88562069,5.85986207 C6.74386207,5.46582759 5.64827586,4.93865517 4.61589655,4.28327586 C6.43455172,2.5332069 8.79696552,1.34617241 11.422069,1.0027931 C9.94186207,2.41172414 8.74675862,4.05555172 7.88562069,5.85986207 Z M7.18496552,13.4482759 L12.5517241,13.4482759 L12.5517241,17.948069 C11.0692759,17.9875172 9.61686207,18.2188276 8.22093103,18.6388621 C7.5902069,17.0004138 7.23562069,15.2498966 7.18496552,13.4482759 Z M12.5517241,18.8446207 L12.5517241,24.8147586 C10.8330345,23.3152759 9.48551724,21.4934828 8.56924138,19.4726552 C9.85444828,19.0938621 11.1894138,18.8831724 12.5517241,18.8446207 Z M13.4482759,24.8147586 L13.4482759,18.8446207 C14.8105862,18.8827241 16.1455517,19.0938621 17.4307586,19.4722069 C16.5144828,21.4934828 15.1669655,23.3152759 13.4482759,24.8147586 Z M13.4482759,17.948069 L13.4482759,13.4482759 L18.8150345,13.4482759 C18.7643793,15.2498966 18.4097931,17.0004138 17.7786207,18.6393103 C16.3831379,18.2188276 14.9307241,17.9875172 13.4482759,17.948069 Z M19.7115862,13.4482759 L25.0922414,13.4482759 C24.9900345,16.232069 23.9451034,18.7787241 22.2649655,20.7766897 C21.1227586,20.0047586 19.9038966,19.3861379 18.629,18.9248621 C19.2902069,17.1949655 19.660931,15.3485172 19.7115862,13.4482759 Z M4.34424138,21.4482069 C5.40486207,20.7435172 6.53406897,20.1768966 7.71393103,19.7532759 C8.58582759,21.7077586 9.83741379,23.4887586 11.4216207,24.9972069 C8.66427586,24.6363448 6.19651724,23.3453103 4.34424138,21.4482069 Z M14.5783793,24.9972069 C16.1625862,23.4892069 17.4141724,21.7082069 18.286069,19.7532759 C19.465931,20.1768966 20.5946897,20.7435172 21.6557586,21.4482069 C19.8034828,23.3453103 17.3357241,24.6363448 14.5783793,24.9972069 Z" id="Shape"></path>
            </g>
        </g>
    </g>
</svg>