<svg xmlns="http://www.w3.org/2000/svg" xmlns:xlink="http://www.w3.org/1999/xlink" preserveAspectRatio="xMidYMid" width="35" height="25" viewBox="0 0 35 25">
  <defs>
    <style>
      .cls-1 {
        fill: #fff;
        fill-rule: evenodd;
      }
    </style>
  </defs>
  <path d="M27.500,25.000 L27.500,20.000 L35.000,20.000 L35.000,25.000 L27.500,25.000 ZM27.500,10.000 L35.000,10.000 L35.000,15.000 L27.500,15.000 L27.500,10.000 ZM27.500,-0.000 L35.000,-0.000 L35.000,5.000 L27.500,5.000 L27.500,-0.000 ZM13.750,20.000 L21.250,20.000 L21.250,25.000 L13.750,25.000 L13.750,20.000 ZM13.750,10.000 L21.250,10.000 L21.250,15.000 L13.750,15.000 L13.750,10.000 ZM13.750,-0.000 L21.250,-0.000 L21.250,5.000 L13.750,5.000 L13.750,-0.000 ZM-0.000,20.000 L7.500,20.000 L7.500,25.000 L-0.000,25.000 L-0.000,20.000 ZM-0.000,10.000 L7.500,10.000 L7.500,15.000 L-0.000,15.000 L-0.000,10.000 ZM-0.000,-0.000 L7.500,-0.000 L7.500,5.000 L-0.000,5.000 L-0.000,-0.000 Z" class="cls-1"/>
</svg>
