<?xml version="1.0" encoding="utf-8"?>
<!-- Generator: Adobe Illustrator 20.0.0, SVG Export Plug-In . SVG Version: 6.00 Build 0)  -->
<svg version="1.1" id="KO_Circle" xmlns="http://www.w3.org/2000/svg" xmlns:xlink="http://www.w3.org/1999/xlink" x="0px" y="0px"
	 viewBox="0 0 303.5 306.5" style="enable-background:new 0 0 303.5 306.5;" xml:space="preserve">
<style type="text/css">
	.st0{fill:#36393A;}
</style>
<g>
	<path class="st0" d="M273.4,145.5v4c-0.5-0.8-0.8-1.4-0.8-2C272.6,146.3,272.6,146.1,273.4,145.5z"/>
</g>
<g>
	<path class="st0" d="M139.2,173.5h3.9v1.6c-0.7,0.5-0.7,1-0.8,1.3h-1.9c0-0.6-0.5-1-1.3-1.3v-1.6H139.2z"/>
</g>
<path class="st0" d="M198.6,106.7H187c-0.3,0.6-0.7,0.5-1.3,0.5c0,0.8-0.5,1.8-0.5,2.5s0.5,0.5,0.5,1.1v4.9c0,0.6,0.5-0.4,0.5,0.2
	s-0.5-0.1-0.5,0.5s0.5-0.3,0.5,0.3v3.2c0,0.6-0.5,0.1-0.5,0.5c0.3,0,0.5,0.4,0.5,0.7c0.5,9.7,0.6,7.8,0.8,8.6h12.2v-17.5
	c0-0.6,0.5,0.2,0.5-0.4v-4C199.1,107.5,198.9,107.3,198.6,106.7z M197.1,127.7c-0.3,0-0.7,0.2-0.8,0.7h-8.5c0.2-0.2,0.2-0.2,0.3-0.3
	c0.2-0.2-0.2-1.1-0.3-19.1c2.2,1.1,2.8,0,3.2,0c0.6,0,0.4,0.5,1,0.5s0.5-0.1,0.5-0.5c0.3,0,0.1,0.5,0.7,0.5h3.7v18.2H197.1z"/>
<path class="st0" d="M170.1,109.7c0-0.6-0.8-1.9-1.3-3h-12.1c-0.3,0.6-0.7,0.5-1.3,0.5c0,0.6-0.2,1-0.5,1v3.7c0.3,0,0.5-0.5,0.5,0.1
	v6.9c0,0.6,0.5-0.4,0.5,0.2s-0.5-0.3-0.5,0.3v8.6c0.5,0.5,0.8,1,1.3,1.6h12.5v-18.8C170.2,110.6,170.1,110.7,170.1,109.7z
	 M167.2,127.3v0.4h-9c0.2-0.4,0.3-0.3,0.3-0.3s-0.2-0.3-0.3-3.5c0-0.5-0.5-0.6-0.5-1.2v-13.9h9.7
	C167.4,126.1,166.9,126.6,167.2,127.3z"/>
<path class="st0" d="M73.4,114.1c0-0.3-0.6-1.4-1.3-1.8v-3.5c-0.6-0.3-0.5-0.4-0.5-1.1s0.2-1,0.5-1.4c-0.4-0.1-0.5-0.1-0.5-0.7
	s1.2-4,1.2-4.6c0-1-1.4-4-2.9-4H51.7c-0.6,1-2.1,3.6-2.1,4c0,1.2,1,2.1,1,3.1v6.6c0,0.4-1,2.1-1,2.4v9.6c0.5,0.5,1.3,0.5,1.6,1.1
	h5.2c0.6,0-0.1-0.5,0.5-0.5h16.4C72.8,122.7,72.9,122.6,73.4,114.1z M70.1,119.9c-1.2,0.3-2.2-0.4-2.2,1.3H54.5
	c-0.4-0.6-0.8-0.9-1.5-0.8c0-0.3,0-0.7-0.5-1v-19.2h6.7c0.6,0,0.2-0.1,0.3-0.5c9.2,0,9.2,0.3,9.3,0.4c0.1,0,0.1-0.1,1.3-0.3
	C70.1,99.8,70.1,119.9,70.1,119.9z"/>
<path class="st0" d="M111.1,114.1c0-1.1-1.5-4-1.5-5.1c0-0.6,0.5-0.4,0.5-1s-0.5,0.1-0.5-0.5s0.5-0.1,0.5-0.8s-0.5-0.8-0.5-1.4
	s1-3.8,1-4.4c0-0.3-1.3-3.1-1.8-4H89.7c-0.3,0.6-0.7,0.5-1.2,0.5C88,98.5,88,100,87.4,101c0.5,0.6,1,1.3,1,1.9v8.8
	c0,0.6-1,1.1-1,1.7v8.1c0.5,0.5,0.8,1,1.1,1.6h21.6c0.1-0.3,0.9-1.1,0.5-3.5L111.1,114.1z M107.9,119.4c-0.5,0.3-0.7,0.5-1,1
	l-16.1-0.2c0.2,0,0.3-0.1-0.1-0.9c-0.1-0.2-0.1-0.5,0-19.5h17.2C107.9,99.8,107.9,119.4,107.9,119.4z"/>
<path class="st0" d="M151.7,0C68.1,0,0,68.7,0,153.2s68.1,153.2,151.7,153.2c83.7,0,151.7-68.7,151.7-153.2
	C303.5,68.7,235.4,0,151.7,0z M289.4,112.5h1.4c0.2,0.6,4.5,14.9,4.5,17.8c0,1.4-4.1,1.2-6.7,3.8c-3.1-0.1-7.2,1.3-6.9,5.4
	c-1.5,1.4-4.1,2.7-6,3.9h-15.6c0.5-0.7,0.6-0.8,0.6-0.9c0-0.2-0.7-0.1-0.6-4c0.1-1.7,1.7-2.7,3.3-4.4h6.8c0.6,0,0.4-0.5,1-0.5
	s0.8,0.3,1.3,0.6v8h1v-9.6c-0.4-0.2-0.5-0.7-1.1-0.7h-41.3V131c0.8-0.5,2.6-1.7,3.3-2.8h9.4c0.6,0,0.4,0,1,0h6c0.6,0,0.4,0,1,0h4.3
	c0.6,0-0.1-0.5,0.5-0.5h31.6c0.2-0.4,0.7-0.6,0.7-1.3c0-1.4-27.1-11-33-15.7h2.2c0.6,0.9,1.1,0.7,1.3,0.7c0.4,0,4.5-2.2,5.1-2.2
	s2.8,1,4.3,1c-0.2,2.2,0.1,2.7,1.7,2.7c0.8,0,1.4,0.2,2.2-1h0.9c0,0.3,0.5,0.1,0.5,0.7v3.3c2.3,1.1,0.6,1.9,2.6,1.9
	c2.6,0,6.9-6,8.9-6c1.4,0,0.7,1.5,2.6,1.5C288.3,113.5,289.1,113.9,289.4,112.5z M274.7,156.2h-24.1c-1.2,1.1-0.6,2.7-2.2,3.5v18.1
	c0.2,0.2,0.5,0.5,0.7,0.7h26.7c0.2-0.2,0.5-0.5,0.7-0.7v-4.3h1.7c0.5,1.3,1.1,3.6,1.1,4.2s-0.8,1.2-1.1,2c-1.8-0.4-2.7,0.7-4,1h-4
	c-0.2,0.2,0,0.5-0.7,0.5c-0.4,0-2.7-1.1-2.9-1.5h-2.9c-0.8,1.4-2.3,1.3-3.5,2c-0.3,0,0-0.5-0.7-0.5h-3.2c-0.6,0,0.1,0.5-0.5,0.5H253
	c-0.6,0-0.7-0.5-1.3-0.5s-1.2,0.5-1.7,0.5c-4,0.2-2.8-1.1-4.6,0c-0.1-1.3,0.4-0.9,0.4-1.5v-3c-0.2-0.2-0.4-0.4-1-0.7v-16.3
	c-1.8-1.4-1.6-2.5-2.9-3.9h-22.4c-1.5,0-1.5,3.3-4.2,3.2c-0.2,0.7-0.7,1.3-0.7,1.9v5.1c-0.4,0-0.5,0.2-0.5,0.5h-1.2
	c0-0.3-0.2-0.5-0.5-0.5v-6.8c-1.8-0.9-2.3-2.2-3.5-3.4h-22.4c-1.7,0-1.1,3.3-3.8,3.2v18.9c-0.1,0.2,0,0.6,0.4,0.7v1.7h-1.4
	c-0.5-1-1.1-2.6-1.1-3.2s0.5-0.8,0.5-1.4s-0.5,0.2-0.5-0.4v-15.6c-2.4-1.2-3.3-2.4-4.7-3.9H154c-3.2,0-1.1,1.5-3.9,3.9v7.6h0.8
	c0.6-2,0.8-4.7,1.2-6.5H179c-0.3,0.9-0.2,1.2-0.1,1.6c0.1,0.2-0.1,0.5,0.1,10c0,0.5-0.5,1-0.5,1.8h-1.4c-0.5-0.9-0.7-2.7-2.5-2.7
	h-4.4c-1.2,0-3.3-1.1-3.6-1.8c-0.2,0-0.6,0.1-0.6,0.7h-0.9c0-0.3,0-0.5-0.2-0.7H161c-0.6,0-2.5-1.5-3.2-1.5s-0.8,0.1-0.8,0.5h-4.8
	c-0.6,0-0.3-0.5-0.9-0.5s-1,0.5-1.6,0.5s-0.8-0.3-1.4-0.6v-8.5c-0.5-1.2-1.8-0.4-2.6-0.8c-0.6-0.7-0.6-1.9-1.3-2.6
	c-1.2-0.1-2.7-0.6-3.3-0.6s-2,0.5-2.6,0.5s-1-0.5-1.6-0.5s0.1,0.5-0.5,0.5h-2.8c-0.6,0-0.4-0.5-1-0.5s-0.6-0.1-0.9,0.5h-7.8
	c-0.3,0.5-0.8,1.6-0.7,2.2c-0.6,0-0.8,0.5-1.5,0.5s-0.7-0.3-1.2-0.6c0.5-4.8,0.5-5,0.1-5.4h21.2c0.6,0,0.2-0.2,0.3-0.5
	c0.3,0,0.1,0.5,0.7,0.5h11.5c0.6,0,0.2-0.1,0.3-0.5c0.3,0,0.1,0.5,0.7,0.5h11.6c0.2-0.2,0-0.5,0.7-0.5s0.6,0.5,1.2,0.5
	s0.8-0.1,0.8-0.5h73.8c0.2-0.2,0.2-0.5,0.8-0.5s0.2,0.5,0.8,0.5h17.3c0.6,0-0.1-0.5,0.5-0.5H277c0.7,0.9,2,1,2.8,1v1.7
	c-1.3,0.7-3.1,1-3.3,2.8h-0.9C275.5,157.5,275,156.8,274.7,156.2z M273.6,177.4h-24.1c0.5-0.4,0.4-0.6-0.1-8.6
	c0-0.5-0.5-0.6-0.5-1.3s0.5-0.1,0.5-0.7v-5.1c0.6-0.3,1-0.7,1-1.3h23.1c0.5,0.7,1,0.7,1.3,0.8v1.4c-1.6,0.5-3.2,2.7-3.2,4.7
	s1.6,4,3.2,4.7l-0.7,3.2C275,178.2,273.9,176.1,273.6,177.4z M252.1,183v0.9c-1,0.5-2.3,1.6-3,1.6s-1.7-1-2.5-1.6
	c0-0.8,0.5-1.1,0.5-1.6h4.4C251.6,182.6,251.8,183,252.1,183z M231.6,178.3v1.4c-0.5,0.8-1.2,1.3-1.8,2.1c-6.8-0.2-7.9-0.2-9.1-0.4
	c-0.4-0.1-1.4-0.5-1.5,0.3v-1.8c-0.1-0.6,0.2,0,0.4-0.2v-3.8c0.5-0.5,1.2-1.1,1.2-1.7c0-3.5-2.8-4.6-5-6.4v-5.9
	c0.6-0.3,1.1-0.6,1.8-0.5v-0.8h24.2c0.4,0.6,0.5,0.9,1,0.7c0,9.8-0.3,5.3,0,15.2h-4.7c-0.6-0.8-0.6-0.7-0.9-0.7c-0.1,0-3,0-4.2,1.7
	h-6.8c-0.1,0-1.4,0.5-1.5,0.5c-0.6,0-1.5-0.5-2.1-0.5s-1,0.4-1.3,0.9C221.6,178.5,222,178.5,231.6,178.3z M147.1,190h-3.3
	c-1.2,0-3.8,2.2-4,2.7h-7.1c-0.7-1-1-0.7-1.1-0.7c-0.8,0-2.8,1.2-4,1.2c-0.7,0-2-1.9-2-2s1.2-2.9,1.3-3.1V183
	c0.7-0.5,1.5-1.9,1.5-2.9c0-1.7-1.5-1.7-1.5-2.9c0-0.6,0.5-1.1,0.5-2c3-0.8,4.7-3.4,7.9-2.8c1.4,2.1,0.5,6.5,4.7,6.5h2.9
	c2.6,0,5.2-6,5.5-6.5h8.5c1.4,0,15.2,3.7,18.8,4.6c1.3,2,2.6,7.4,6.3,7.4h3.4c2,0,3.4-7.4,5.7-8v-1.2c2.3-1.4,2.5-4.7,5.3-5.6h6.2
	c0.6,0,2-1.5,2.7-1.5s2.5,1.5,3.2,1.5h5.8c0.5,1,1.8,2.9,3.3,2.8v2.2c-1.2,0.8-1.2,1.9-1.2,2v3.9c0,3.7-2.5,2-2.5,5.3
	c0,2.4,2.4,5.1,5.2,4.7c-1.6,1.6-3.2,2.6-4.8,4.7h-4.8c-1-0.5-2.4-1.5-3-1.5H203c-0.3-0.6-0.6-1-1.2-1h-4c-2.4-1.3-6.2-2.6-9.3-2.8
	c-0.2-1-0.1-1.7-0.7-2.7h-6.6c-0.6,2,0.2,5.5-2.2,5.5c-0.1,0-3.5-1.8-4.2-1.8h-9.9c-0.1,0-1.4,0.5-1.5,0.5s-1.4-0.5-1.5-0.5h-7.2
	c-0.2,0.2,0,0.5-0.7,0.5c-0.6,0-3.5-2-3.4-2h-2.8C147,189.5,147.8,190,147.1,190z M123.6,173.5v3.8c0,0.6,0.1,0.2,0.5,0.2
	c0,0.3-0.5,0.3-0.5,1s1,2.1,1,2.8c0,1.3-2.4,6.9-3.2,7.5c-0.1-3.4,0,3.8-0.6-11.1c0-0.5-0.5-0.6-0.5-1.2v-15.1h25.6
	c0.3,0.7,0.2-1.2,0.8,8.9c-0.8,0.5-1.5,1.3-2.3,2.3H139c-0.6-0.8-3.6-2.7-4.6-2.7c-2.8,0-4.5,1.5-6.3,2.7h-6.4v0.8
	C122.3,173.5,123,173.5,123.6,173.5z M123.1,192.8v1.4c-0.6,0-1,0.5-1.3,1c-0.3,0-0.6-0.5-0.9-0.5v-1.9H123.1z M184,161.3h1.6v-0.7
	h15.7c0,0.3,0.5,0.3,0.6,0h7.4c0.7,1,0.9,0.9,1.8,1.3v4.1c-0.5,0.3-1.2,0.6-1.9,0.6s-3.2-1-3.9-1s-1.5,0.5-2.1,0.5s-2.1-0.5-2.8-0.5
	c-1.9,0-4.1,1.9-5.8,2.2c-1.6,0.6-3.9,0.6-5.6,1.1c-0.7,3.1-2.9,3.6-4,6.4h-1C184.1,173.1,183.6,163.1,184,161.3z M216.9,186.6
	c0.8-1.4,1.8-2.9,2.8-4.4h9.6c0,1.6,1,1.5,1,3.1c0,1.1-1.7,3.7-1.5,4.6c-1.6,0.6-4.5,1.1-5.1,1.1C222.6,191,220.6,187.5,216.9,186.6
	z M120.2,148.2h-1l-0.6,19.1c0.5,8-0.2,9.3-0.5,10.2h-3.6c-0.5-0.8-1.6-1.9-1.6-2.5s0.5-1,0.5-1.6c0-1.2-1.4-2.1-2.7-2.5
	c-0.4-1.1-0.6-3.3-1.8-3.9v-7.4c0.9-0.6,0.7-0.9,0.7-1.4c0-5.9-8.1-8.8-11.5-9.9c0-0.3,0.5-0.6,0.5-0.9h22.1
	c2.2-1.5,0.8-2.3,2.8-2.3c0.6,0,1.1,0.3,1.6,0.6v5.4c-1.6,0.1-1.2,0.1-2.3,0.1C121.3,151,121.1,150.1,120.2,148.2z M120.4,179.8v9.6
	c-0.7,0.1-1.9,0.3-1.8,1.5h-1.4c-0.4-1-0.5-2.4-0.6-3c-0.6-0.4-1.7-2.4-1.7-3.5v-5.9h4.2C119.4,179,119.9,179.3,120.4,179.8z
	 M61.4,185.6c0-2.3,10.6-5.1,11.6-5.9h1.9c0.5,2,5.2,3.2,5.3,3.2c4.3,0,6.4-5.1,8.4-7.2c0.9,0.8,5.4,6.5,7.3,6.5
	c2.6,0,6.7-6,7.5-6.5c0.3,0,0.4,0.5,0.6,0.8h3.4c0.2-0.4,0.7-0.7,1.3-1.2h1.1c0.3,2.1,1.6,4,2.5,6.1v4c1,0.7,0.1,1.5,1.2,2v2.2h-1.7
	c0-0.3,0-0.5-0.2-0.7h-3.9c-0.5,0-3.1-1.5-3.6-1.5h-3.6c0-0.4-0.5-0.6-0.7-1h-2.9c-1.1,0-1.8,1-3.3,1c-1.1,0-3.8-1.8-4.5-1.8
	c-1.8,0-5.1,3.8-6.1,4.4c-2.1-0.6-4.6,1-5.5,2.7c-2.9-0.3-2.8,3.6-3.6,5.3h-1.6c-1.4-3.4-5.1-2.8-7.4-4.4c-1.1-1.2-1-3.1-2.8-3.2
	v-3.6C61.9,186.7,61.4,186,61.4,185.6z M59.4,188.3v3.2c-0.6,0-1,0.4-1.3,1.2h-0.9c0.2-2.4-2.6-2.8-3.8-4v-3.1
	c0-0.5,2.4-5.9,2.8-6.5h7.9c-1.9,1-6,5.2-6,7.1C58.1,187.2,58.1,187.9,59.4,188.3z M33,184.5h3.4c3.6-4,2.5-12.5,8.8-12.5
	c2,0,7.1,7.8,7.1,9c0,2-1.8,5.5-1.8,7.6c0,0.6,0.5,2,0.5,3.2c1.1,0.7,1.1,0.9,2.7,1c0.5,1.3,1.8,3.1,1.8,3.7c0,1.8-2.9,2.8-4.1,4h-3
	c-3.5,0-11.9-6.8-13-8.8c-2.5-1.6-5-2.4-6.9-4.5v-3.7h1.8C31.1,183.5,32.4,184.5,33,184.5z M32.9,181.1c0.3-0.4,0.5-0.8,0.5-1.4h2.2
	v1.4c-0.3,0-0.7,0.2-0.7,0.5h-1.4C33.4,181.3,33.3,181.2,32.9,181.1z M45.9,160.8c0-5.6,2.9-4.5,7.6-7.9h6.3c2.6,0,7.4,3.8,7.6,5.1
	v11.6c-0.6,0.3-1,0.7-1,1.3H49.7c-0.9-1-2-1.5-3.3-2.3v-5.3c-0.2-0.2-0.5,0-0.5-0.7s0.5-0.1,0.5-0.8S45.9,161.5,45.9,160.8z
	 M52.9,139c0.6-0.3,0.7-0.5,1-1H70c-0.5,0.4-0.4,0.6,0,6.4c-1.1,0.3-2,0.3-2.8,1H60c-0.6,0,0.1-0.5-0.5-0.5H53
	C53.5,144.5,53.4,144.4,52.9,139z M69.9,137H61c-0.6,0-0.7,0.5-1.3,0.5S59,137,58.4,137h-5.6c0-5.8,0-6.8,0.4-7.9
	c0.1-0.3,0.2-0.3-0.4-0.8h17C69.6,129.4,69.9,130.3,69.9,137z M60.4,147.2h32.9c0,0.3,0.2,0.5,0.5,0.5v0.9
	c-4.6,0.9-11.2,4.3-11.2,10c0,0.6,0.5,1.3,1,1.8v5.8c0,0.6-0.5,0.5-0.5,0.8c0,3,0.5,3.8,0.5,4.7c1.7,0.2,3.2,0.7,4.8,1.1
	c-1.4,1-3.3,3.1-4.3,4.6h-4.5c-0.6,0-0.4,0.5-1,0.5c-0.8,0-2.3-1.5-3.5-1.5c-0.9,0-3.5,1.5-3.9,2h-3.5c-0.6,0-1.2-1-1.8-1h-4.1
	c-0.6,0,0.1,0.5-0.5,0.5h-4.2c-0.6,0,0.1-0.5-0.5-0.5s0.1,0.5-0.5,0.5c-3.4,0-2.9-2-4.7-4.6v-0.9h11.7c0.6,0-0.1-0.5,0.5-0.5H69
	c0.7-1.2,1.7-3.1,1.7-3.8s-0.4-1-1-1.3c0.4-6,0.1-7,0.4-8.1c0-0.2,0.1-0.6,0.1-1.2c0-5.4-8-7-10.7-9.8
	C59.8,147.7,60.2,147.8,60.4,147.2z M80.9,138h7.4c0,1.2,0,5.4,0,6.9c-2,0-2.3,0.5-2.8,0.5c-0.6,0,0-0.5-0.6-0.5H81
	C80.7,144.4,80.7,138.5,80.9,138z M107.8,136.9H91.1c-0.7-5.4,0-8.2,0-8.7c0.8,0,2.5,0.4,3.3-0.5h9c0.6,0,0.5,0.5,1.2,0.5
	s0.5-0.1,0.6-0.5c0.6,0.5,1.3,0.5,2.1,0.5c0,0.6,0.5,1.1,0.5,1.6C107.4,136.4,107.3,136.5,107.8,136.9z M107.4,163.8
	c0,0.6-0.5,1-0.5,1.6s0.5,1,0.5,1.6s-0.5,2.1-1.1,3.1H95.1c-0.2,0.2-0.2,0.4-0.2,0.8c-0.4-0.3-0.3-0.7-0.9-0.7s-0.5,0.4-0.5,0.7
	c-0.3,0-0.4-0.5-0.6-0.7H92c-0.2,0.8-0.5,0.8-0.9,0.8s-0.7,0.1-1-0.8c-0.2,0-0.3,0.4-0.3,0.7h-2.1c-0.4-0.6-0.8-0.9-1.5-0.8
	c0-0.3,0.2-1-0.8-1.5V159c1.7-0.6,1.8-3.4,3.4-4.2s3.7-1.6,5.5-2.3h3.5c2.4,0,8.2,4.1,9.4,4.8v5.3
	C106.9,163.2,107.4,163.2,107.4,163.8z M102.4,172.5c-1.4,1.6-3.3,3.4-4.8,5.4h-0.8c-2.6,0-5.3-3.7-5.7-5.1c0-0.3,0.5-0.5,0.5-0.9
	h10.2C101.9,172.3,102,172.5,102.4,172.5z M91.2,144.9V138h16.4c-0.2,6.3-0.3,6.5,0,6.9H91.2z M81.3,179v0.7h-1.4V179H81.3z
	 M115.4,142.3c-1.8,1.9-0.7,2.7-2.9,2.7c-0.6,0-1.3,0-1.9-0.6V138h3.2C114.6,139.2,113.3,141.5,115.4,142.3z M121.4,143.4v-8.2h1.1
	c0.6-0.7,2.7,1.2,2.7,2.4v6.3c-1.1,0.1-1,0.1-2.1,0.1C122.4,144,122,143.7,121.4,143.4z M128.9,134.7h6.9c0.1,0.7,0.3-0.8,0.8,6.8
	c0,0.5,0.5,0.6,0.5,1.3s-0.3,0.6-0.6,1.1h-8.2c0-0.3-0.4-0.5-1-0.5v-1.1c0-0.6,0.5-0.5,0.5-0.7l0.4-4.2
	C127.9,135.7,128.8,135.1,128.9,134.7z M128.9,145h6.9c0.5,0.5,1.3,1.4,1.3,2s-0.5,2.1-0.5,3.5c-0.8,0-1.8,0.5-2.3,0.5
	c-5.5,0.2-5.4-0.6-5.5-0.6c0,0-0.1,0.1-0.7,0.5v-3.6C127.9,145.8,128.8,145.4,128.9,145z M152.2,143.4c-0.3-0.5-1.1-0.6-1.3-1.2
	h-4.6c-0.5,0.7-1.8,1.1-2.2,1.8h-3.5c0,0-0.9-1.5-0.8-2.7l-0.6-4.2c0.8-0.8,1.3-1.8,2.3-2.3h4c0.6,0,1-0.5,2.1-1c0.6,0.5,1.4,1,2,1
	h4.3c0.5,0.8,1.1,1.8,1.5,2.8v5.9h-3.2V143.4z M155.4,145.5v4.4c-0.5,0.3-0.6,0.6-1.2,0.6s-0.9-0.5-1.5-0.5v-4.4h2.7V145.5z
	 M145.1,146.3v3.6c-1,0.5-2.6,1.1-3.2,1.1s-1.9-0.5-2.7-1.1v-3.6c0.6,0,0.8-0.7,1.3-1.3h3.6C144.4,145.5,144.6,146,145.1,146.3z
	 M167.4,143.4c-0.6,0-1,0-1.3,0.5h-6.9c-0.8-0.8-1.1,1.4-0.5-3.3l-0.5-5.4c0.3,0,0.7,0,1-0.5h6.3c0.1,0,1.7-0.1,1.2,3.3L167.4,143.4
	z M158.9,145h7.9c0.3,0.5,0.3,4.9,0,5.4h-7.9C158.7,150,159.3,146.9,158.9,145z M176.6,134.2h2.3c0.6,0,0.2,0.5,0.8,0.5h4.8
	c0,0.9,0.5,1.5,1,2.3v5.9h-1.4c0-0.3,0-0.5-0.2-0.7h-4.6c-0.5,0.7-1.8,1.1-2.2,1.8h-6.3c-0.1,0-0.9-1.4-0.8-2.4l-0.6-3.6
	c1-0.4,1.2-2.2,1.8-3.3h4.9C176.8,134.7,176,134.2,176.6,134.2z M177.6,150.5h-6.9c-0.3-0.6-0.3-4.9,0-5.5h6.9
	C177.9,145.5,177.9,149.9,177.6,150.5z M197.6,142.9c-1.3,0.5-3.5,1.1-4.1,1.1s-0.5-0.5-1.1-0.5s-0.8,0.5-1.4,0.5
	c-0.8,0-2-0.4-3.1-0.1v-8.1c0.5-0.3,0.7-0.5,1-1h7.4c0,0.3,0.4,0.5,0.8,0.5C196.9,137.6,197.4,132.9,197.6,142.9z M197.1,145
	c0,0.8,0.5,1.3,0.5,1.9s-0.5,1.9-0.5,3c-0.3,0-0.7,0.2-0.8,0.5h-7.4c-0.3-0.5-0.5-0.7-1-1c0-3.3,0.6-3.4,0.6-3.6
	c0-0.1-0.1-0.2-0.6-0.8L197.1,145L197.1,145z M216.3,142.2h-5c-0.7,1-0.7,0.6-1.5,1.3h-4c-0.6,0-0.7,0.5-1.3,0.5s-0.7-0.5-1.3-0.5
	h-3.6V137c0.9-0.7,1.2-1.4,1.8-2.3h4c0.6,0,1.8-1,2.4-1s1.5,1,2.2,1h4.8c0.5,1.3,1,2.6,1.6,3.9C215.9,141.6,215.8,141.7,216.3,142.2
	z M210.6,146.3v3.2c-0.6,0-1,0.5-1.3,1h-8.9c-0.2-0.6-0.3,0.2-0.8-4.9c0.3,0,0.7-0.2,0.8-0.5h8.9C209.6,145.5,209.8,146,210.6,146.3
	z M227.6,143.4h-8.4c-0.3-0.5-0.3-8.2,0-8.7h8.4C227.4,135.6,227.9,136.3,227.6,143.4z M219.2,145h8.6c-0.5,0.4-0.4,0.6,0.1,4.4
	c-0.6,0.3-1,0.5-1.3,1h-7.4C218.9,149.9,218.9,145.5,219.2,145z M229.9,144.5c3.5,0.7-2.9,0.7,10.3-0.1c0.8,0.5,2.1,0.5,3.1,1.1v3.9
	c-0.5,0.3-0.7,0.5-1,1H230C230.5,150,230.4,149.9,229.9,144.5z M242.8,143.5h-4c-0.2,0.2-1.1,0.2-1.3,0H230c-0.3-0.6-0.6-1-0.6-1.6
	s1-5,1-6.6c0.3,0,0.7-0.2,0.8-0.5h4.6c0.3,0,2.5-1,2.9-1c0.6,0,0.5,0.5,1.2,0.5h3.4c1.5,0,2.3,2.2,3.4,3.3v3.6
	C245.6,142.2,244.1,142.7,242.8,143.5z M258.1,150.4h-6.9c-0.3-0.5-0.7-0.7-1.3-1v-3.9c0.5-0.5,1.5-0.6,2.3-1.1
	c4.3,0,4.5,0.6,4.8,0.6c0.1,0,0.3-0.1,1.1-0.6C257.6,149.9,257.6,150,258.1,150.4z M258.1,143.4h-7.6c-0.5-0.5-1-1.2-1.6-1.8v-5.9
	c0.4,0,0.5-0.4,0.5-1c0.5,0,1.6,0.1,2.3-0.5h3.5c0.6,0,2.1,0.5,2.9,1.1C257.6,142.9,257.6,143,258.1,143.4z M276.4,149.4
	c-0.5,0.5-1.5,1.1-2.1,1.1s-0.2-0.5-0.9-0.5s0.1,0.5-0.5,0.5h-11.3c-0.1,0-0.9-1.3-0.8-2.1l-0.7-2.9c0.5-0.6,1.3-0.6,1.8-1.1h9.5
	c0.6,0,0.2,0.5,0.8,0.5h4C275.8,145.5,275.9,145.6,276.4,149.4z M234.5,34c10.8,6.9,18.9,15.7,28.7,25.6c2.9,3.7,5.6,7.3,8.3,11.3
	c2,3.8,17.4,30.4,17.4,35.5c0,0.6-0.5,1-0.5,1.8c-5.5-0.7-7.1,3.4-10.3,5.8c-1.2-0.1-1.2-0.8-1.2-1.5c0-5.7,7-1.5,7-7.4
	c0-2.2-2.3-4.4-4-4.4c-0.1,0-2.9,4.8-6.3,6.5h-3.1c-2.1-2.1-0.6-4.7-3.5-5.5h-1.7c-0.6,1.3-1.3,2.5-2,3.7h-0.9c-0.1-0.2-2-2-2.8-2
	c-1.5,0-3.2,3-3.4,3.1c-1.7,1-3.6,1.2-5.8,2.8c-0.3,1.1-0.6,2-1.2,2.4c-1.3,0.9-3.8,1.2-4.4,2.6c0.3-1.2-0.7-3-1.9-3
	c-0.6,0-0.5,0.1-0.5,0.5H241v-3.7c0.3,0,0.5,0.1,0.5-0.5s-1.1-1.5-1.8-1.5c-0.8,0-3.6,3.2-5.2,4.5v-2.4c0-0.6,0.5-0.2,0.5-0.8
	c0-0.6-0.4-1.2-0.5-1.8h-2c-0.2-0.3-0.3-0.5-0.4-0.8c-0.2,0.8-0.5,1.6-1,2.3c-0.6-0.3-1.4-1.1-1.8-1.8h-12.6c-0.2,1.2-1.2,2.4-1.2,3
	c0,0.7,0.3,2.3,1,3.1v7.8c-0.5,0.5-1,1.1-1,1.7c0,1.8,2,3.9,3.5,3.9c0.6,0-0.1-0.5,0.5-0.5s-0.1,0.5,0.5,0.5h7.3
	c1.9,0,3.2-1.9,3.2-3.2c0-0.6-0.9-2-1-2.9c-0.4-2.5,0.5-3.3,0.6-4.1c1.1,0.5,1.9,1.5,2.8,2c0.7-0.5,1.4-1,2.2-1.5h1.8
	c0.7,1,1.4,3.4,2.3,4.4c-0.3,0.3-0.5,1-0.5,1.6c-3.2,1.6-5.1,4.5-7.6,6.9c-1.3,1.2-4.1,2.4-4.4,3.9c-0.5,0-2-0.5-2.5,0.5H121.6
	c-0.2,0.7-0.7,1.5-1.3,2.3h-4.8c-0.1,0-1.2,0.9-1.2,1.7c-0.8,0-1.5,0.5-2.1,0.5s-1.1-1.2-2.1,0v-1.6c0-0.6,0.2,0,0.5-0.2v-3
	c0-0.6-0.1-0.1-0.5-0.1c0.5-0.6,0.5-1.6,0.6-2.5c0.9-0.6,1.8-0.9,2.8-1.6h4c0.2-0.4,0.7-0.6,0.7-1.3s-0.7-1-1.2-1.5H83.8
	c-0.2,0-1.2-0.2-2.4,0.7v2.1H85c2.3,0,1.9,1.8,3.4,3.3v4.5c0,0.6,0.1,0.2,0.5,0.2c0,0.3-0.2,0.6-0.5,1.2H81c-0.5-0.8-1-1.5-1.7-2.2
	h-5.2c-0.2,0.2-0.4,0.4-0.7,1h-1.2V131c1.2-0.9,1.2-1.5,1.3-2.8c1.6,0,2.8-0.5,4.2-0.7v-1.9c-1.2-0.8-2.6-0.7-2.9-0.7H54
	c-0.6,0-0.7,0.5-1.3,0.5s-1-0.5-1.6-0.5s-0.5,0.1-0.5,0.5h-9.7v-23.6c1.3-1.9,3.4-3.7,5-6.1h16.4c0.6,0-0.1-0.5,0.5-0.5h51.4
	c1.4,2.1,3.6,4.2,4.8,6.6v23c0,0.6-0.5-0.2-0.5,0.4v2.8c0,0.6,0.5-0.2,0.5,0.4v4.8h1.2v-20.1c1.4-0.2,3.2-0.2,4.8,0V129
	c0.2,0.2,0.5,0.5,0.7,0.7h12.1c0.2-0.4,0.8-1,1.2-1.2c-0.4-4.1-0.3-5.1-0.5-6c0-0.2-0.1-0.6-0.1-1.2s0.5-1.2,0.5-1.9s-0.5-0.4-0.5-1
	s0.3-0.5,0.5-0.7v-3c0-0.6-0.5,0.2-0.5-0.4c0-0.7,1.2-4.3,1.2-4.4c0-1.2-1.2-3.2-2.4-3.3h-12.7c-0.2-1.3-0.2-3.1,0-4.5h3.8
	c0.6,0-0.1-0.5,0.5-0.5h75.3c1.7,0,4.8-4,5-4.7h1c2.2-2.8,13.8-14.6,14.2-14.3c0.2,0.1,12.2,12.8,12.2,13.4c0,0.7-3.6,4-3.7,4.3
	c-0.3,0.6-0.5,1.4-0.6,2.1h2c0,0.2,0.1,0.4,0.2,0.6c2-6,11.2-3.3,11.9-12.1c0.5,0.1,1.1-0.3,1.7-0.7V87c1.4,0,3.7-0.6,4.7-1.7v-3.9
	c-1.4-1.3-1.3-4.2-2-6.3V72c0-1.9,4.2-2.9,4.2-5.8c0-1.2-2.2-2.8-2.9-2.8h-3c-0.6,0-0.7,0.5-1.3,0.5c-1.8,0-1.4-1.8-3.2-1.8
	c-1.3,0-4.3,3.2-5.1,3.2c-0.6,0-1.9-1-2.7-1.5h-2.9c-0.6,0-0.5,0.5-1.2,0.5c-1.4,0-2.4-1.5-5.2-1.6c1.7-4.8-3.6-4.1-6-5.5v-0.9
	c1.7-1.7,5.4-2.2,8.1-2.8c1.5-0.3,5.3-2.1,5.3-3.4v-3c-1.2-0.9-1.5-2.9-3.7-2.5c-0.4-2.5,0.4-3.7-2.6-3.7c-0.6,0-2.9,1-3.5,1
	s-1.1-0.5-1.7-0.5v-1.2c1.2-0.3,0.9-1.5,1.9-2c1-0.1,2.7-0.2,3.7-1.8h3.5C233.2,35.8,233.7,34.8,234.5,34z M226.1,122.2h-6.9
	c-0.5-0.5-0.6-1.5-1.1-2.3v-9.6c0.6-0.3,0.5-1,1.1-1.5h7.4c-0.1,0.6,0.1,0.7,0.8,1l-0.7,7.9C227.5,124.9,226.6,120.1,226.1,122.2z
	 M50.6,144.4c-0.3,0-0.5,0.2-0.5,0.5h-0.9c-2-2-1.7-4.2-4.3-4.2c-0.6,0-1.1,0.5-1.5,0.5c-0.2,1.2-0.2,2.7-0.8,3.7h-1.7
	c0-0.3-0.2-0.5-0.5-0.5V139c0.5-0.3,0.7-0.5,1-1h9.1C50.1,138.5,50.1,138.6,50.6,144.4z M46.9,137.5c-0.6,0-0.1-0.5-0.8-0.5
	s-0.8,0.5-1.4,0.5s-2.5-0.5-3.9-1.1c0-0.6,0.5-0.6,0.5-1.2s-0.5-0.6-0.5-1.1c0.1-5.2,0.7-5.4,0.7-5.5s-0.2-0.1-0.6-0.8h1.5
	c0.6,0-0.1,0.5,0.5,0.5h6.2c0.5,0.8,1.1,1.8,1.6,2.8v4.5c0,0.6,0.1,0.2,0.5,0.2C50.5,137.1,46.9,137.5,46.9,137.5z M74.6,89.2H85
	c0.2-0.2,0.5-0.5,1-0.7V76.2h10.7c2.7,3.3,15.6,15,15.6,16.9c0,0.6-0.3,0.6-0.6,1.1H87.1c-0.6,0,0.1,0.5-0.5,0.5h-7
	c-0.6,0,0-0.5-0.6-0.5s-0.2,0.5-0.9,0.5s-0.1-0.5-0.8-0.5s-1,0.5-1.6,0.5s-1-0.5-1.6-0.5s-0.8,0.5-1.4,0.5s-1.8-0.5-2.4-0.5
	S69.1,94,69,94.7h-6.3c-0.1,0-1.4-0.5-1.5-0.5c-0.6,0-1.9,0.5-2.5,0.5s-1-0.5-1.6-0.5s-1,0.5-1.6,0.5s-0.7-0.5-1.3-0.5h-5.1
	c0-0.4-0.4-0.5-0.8-0.6c0.9-1,2.5-2.5,2.8-4.3c4.4-3.3,7.1-8.9,11.5-11.3v-1.7c0.9,0.4,1.8,0.4,11.2,0v12.2
	C74.1,88.8,74.4,89,74.6,89.2z M84.1,87.7h-7.9c-0.2-0.6,0.2-1.3-0.8-1.8v-7.4c0.6-0.4,0.7-1,0.8-1.3c0.3,0,0.7,0,1-0.5h5.9
	c0.3,0.5,0.5,1,1,1.3C83.9,85.2,83.4,86.3,84.1,87.7z M123.5,111.9h-2.7v-10.2h2.7C123.1,103.4,123.6,110.6,123.5,111.9z
	 M137.1,117.3v3c0,0.6-0.5,0.2-0.5,0.8s0.1,0.6,0.5,0.7c0,0.3-0.5,0.3-0.5,1s0.1,0.5,0.5,0.6c-0.7,1.3-1,2.7-1.3,4.4h-7.4
	c0-0.6-0.5-1-1-1.3v-16.1c0.5-0.5,1-1,1.6-1.6h5.8c0.1,0,1.7,0,1.2,3C136.5,115.5,136.4,116.6,137.1,117.3z M249.8,68.7
	c-0.4-0.3-0.9-0.5-0.9-1.1s0.5-1.1,1.1-1.6h1.6c0,0.4,0.2,0.5,0.5,0.6C251.4,67.1,250.5,67.6,249.8,68.7z M28,74.1
	c3.5-5,27.4-34.1,31.3-34.1c0.6,0,0.6,0.3,1.1,0.6v4.7c2.2,0.7,4.1,1.4,5.8,1.5c1.9,0.6,0.5,2.7,1.7,3.8V52h-7.8
	c-2.6,2.4-6.2,5.3-8.6,7.7c-1.5,0.1-4.1-0.2-4.1,2.2c0,0.6,0.5,1.8,0.5,2.4c0,0.6-1,2.8-1,3.4s0.5,1.2,1,1.7v1.4
	c-1.3,0.4-1.2,0.5-1.6,1.2c-1.4,0.1-3.1,2.1-3.2,3.7c-1.6,0.4-4.2,1.1-5.7,1.2c-1.2,2.7-4.1,4.6-6.9,5.9c-1.5,0.7-4.8,0.7-5.9,1.8
	h-1.9C24.1,80.8,26.6,77.5,28,74.1z M24.1,90.3c-0.1-1.8,0.3-3.5,2-4.3c4.6-1.5,8.4-3.1,12.8-5c0.1-0.4,0.1-1.2,0.1-2
	c0.3,0,0.7,0,1-0.5h3.5c0,0,0.2-0.6,1.5-0.5c0.2-0.7,0.2-1.7,0.3-2.6c1.8-1.3,7.7-2.9,7.7-4.8c0-2.5-2.8-1.2-2.8-3
	c0-1.3,0.8-2.1,1.1-4c2.6-1,7.7-8.4,9.4-8.4c0.7,0,3.2,0.5,3.7,1.3h1.9c0.2-0.2,0.2-0.6,0.2-1.2H70c1.7,0,2.2-2.7,2.2-3.3
	s-0.1-0.5-0.5-0.5v-3.2c0.5-0.3,0.8-0.5,1.2-0.7V47c-1.1-0.7-3.3-1.8-4-3.2h-4.3c-0.4-1.1-0.4-2.4-0.6-3.1c-0.3-0.8-1.4-2.2-1.4-2.8
	c0-1.9,17.3-12.3,22.6-15.6c6.4-3.5,8.8-4.5,13.5-6c10-3.2,20.7-5.4,31.5-8.1c0,0,4.3-0.5,4.9-0.5c0,0,6.4-0.5,7-0.5h19.1
	c0.6,0,5.4,0.5,5.4,0.5c0.6,0,5.3,0.5,5.3,0.5c2.9,0,19.2,4.4,21,4.8c13.6,5.1,26.6,10.6,38.7,19v0.9c-4.6,1.2-13,6.1-13,9.3
	c0,0.2,9.4,5.5,9.4,5.5h3.6c0,0.4,0.4,0.5,1,0.5v1.6c-2.5,2-7.8,2.6-10.8,3.8h-6.2c-1,0-1.7,1.8-1.7,2.1c0,2.4,2.7,0.3,3,4.7
	c1.6,0.9,3.9,0.4,4.2,2.5h0.6c0.2-0.8,0.5-0.8,0.9-0.8c0.6,0,0.9,0.8,1.5,0.8v0.9c-1.3,0.9-1.2,1.5-1.2,1.7V68
	c0.7,0.2,1.4,0.7,2,0.7c0.7,0,3.1-1.6,3.6-2.2c0.8,0.5,2.2,1,2.8,1s0.6,0.1,0.9-0.5h2.7v1.2c-0.3,0-0.5-0.1-0.5,0.5
	c0,1.2,1.2,2,1.8,2c2.4,0,5.9-3.7,7.2-4.7c-0.1,0.6,0.2,0.7,0.8,1.1c-0.8,0.9-1.8,1.6-2.8,2.3V70c0.7,0.2,1.3,0.7,1.9,0.7
	s0.6,0.1,1-0.5c1.2,0.9,2.3,1.5,4.1,1.8c0.5,3.6,2,9.8,2,10.5c0,3.3-7,1-7,4.9c0,0.3-0.2,0.5,0.7,1c-0.7,0.7-2.7,1.7-2.7,2.9
	c0,0.6,0.5,1.5,1,2.1v0.9c-0.5,0.5-1.7,1.1-2.4,1.1c-1.8,0-9.2-8.7-11.1-10.3c0.3-0.9-0.4-1.4-1-1.7c0-0.8,0.5-0.4,0.5-1v-7.2
	c-0.2-0.2-0.5-0.5-0.7-0.9h-7.4c-0.4,0.4-0.4-0.1-1.5,0.7c0,0.2-0.2,0.7-0.2,1.3v8.3c0.2,0.2,0.5,0,0.5,0.7s-5,5.5-7.6,8.2H210
	c-1.2-1.3-3.5-2.9-5-4h-18.7c0,0-1.3,0.1-1.3,0h-64c-3.6,0-19-18.7-22.6-21.8H59.6c-5.6,5.7-28,29.1-28,30.3c0,0.9,4.7,8.5,6.5,10.8
	v0.8c-1.2,1.6-2.8,3.7-5.3,3.5c0.3,0.4,0.5,0.6,1,0.9c-1.9,3.6-5.5,7.7-8.5,11.1v1.2c0.2,0.2,0.1,0.2,0.8,0.2
	c1.1,0,9.4-9.5,11.6-13.5c0.6,0,1.2-0.2,1.6-0.5c0.1,0.9,0.6,1.7,0.6,2.4c0,1.5-7.3,8.9-8.3,9.8V146c1.5,0.9,1.8,1.7,3.6,1.7
	c0.6,0,1.9-0.5,2.5-0.5s0.8,0.5,1.4,0.5s0.6-0.5,0.9-0.5c9,0,10.2,0,11.8,0.4c0.5,0.1,1.2,0.1,1.9,0.1c0,0,0.2,0.1,0.6-0.5
	c0.1,1.4-0.4,1.6-0.4,2.2c-4.7,0.8-10.7,3.7-10.7,9c0,0.6,0.5,1.5,1,2.1v7.6c-1.8,1.4-3.5,3.3-5.2,5c-0.1,0.9-1.2,4.3-2.6,4.3
	c-0.6,0-0.9-0.5-1.5-0.5V153c0-0.6-0.1-0.1-0.5-0.1v-4.2h-1.1v6.5c-0.3,0-0.5,0.4-0.5,1c-1.6,0-2.6,0.7-4.9,1.8
	c-0.1-0.4-0.2-0.7-0.5-0.8c0.5-0.9,1.2-2.2,1.2-2.8s-1.8-3.2-1.8-3.9s1-2.6,1-3.2s-1.5-2.6-1.5-3.2s1-3.2,1-3.9
	c0-0.2-0.1-0.9-0.7-1.6c-4,0.7-2.1-3.3-5.5-3.3c-2.3,0-5.1,2.7-6.5,3.7h-0.9c-0.3-0.6-0.5-1-1-1.6v-3.1c1-1.5,3.7-4.4,3.7-6.3
	c0-0.6-0.5-0.9-0.5-1.5c-1.4,0-1.3-1.5-2.7,0V125c0.5-0.5,1-1,1.5-1.5V120c0.7-0.4,1.2-2.7,1.2-3.4v-4.1c4.9-3,10.7-2.5,10.7-8.8
	c0-2.7-2.2-1.5-3.7-2.6c1-1.3,2.7-3.4,2.7-4.5c0-2.7-3.8-0.6-3.8-3.8C22.1,92.2,23.2,91,24.1,90.3z M39.9,103.5v3.7
	c-0.3,0-0.5,0.4-0.5,1c-0.5-0.3-2.2-2.1-2.2-3.1c0-0.6,0.5-2.1,1.1-2.8h1.2C39.4,102.8,39.3,103.2,39.9,103.5z M33.4,124.6
	c0.4-0.5,4.2-5.6,5.4-5.6c0.6,0,0.6,0.3,1,0.6v15.1h-6.3C34,134.2,33.9,134.1,33.4,124.6z M12.5,166c-1.9,0-5.4-2.2-7.1-2.3
	c-0.2-0.5-0.2-0.7-0.8-1v-16.4c0.3,0,0.5,0,0.7-0.2v-5.8c0-0.6,0.3,0,0.5-0.2v-6.3c0-0.6,0.3,0,0.5-0.2v-4.2
	c0-7.5,8.9-30.5,11.2-34.1c-0.7,2.7,2.2,2,3.3,2.8V99c-0.6,0.6-1.5,1.8-1.5,2.9c0,2.2,1.9,1.7,3.7,3.2v1.6
	c-3.3,1.6-10.7,0.3-10.7,5.8c0,0.9,0.7,2.5,1,2.8c0,0.3-0.5,0-0.5,0.7v2.8c0,0.6,0.1,0.2,0.5,0.3c-0.6,1-1.3,2.8-1.6,4
	c-0.3,0.2-2.1,0.9-2.1,2v2.9c0.7,0.4,1.8,1.2,2.8,1.8c-0.8,1.6-2.7,4.4-2.7,5.1v3.4c0,2.1,2.6,3.9,4.2,3.9c2.8,0,4.5-3.2,6.1-4.2
	c1,0.9,0.9,0.9,0.9,1.4c0,0.6-0.5,1.6-0.5,2.2c0,1.5,1.1,2,2.1,3c0.8,3.7,1.6,1.9,1.6,4.5c0,0.6-0.5,2.2-0.5,2.9
	c0,2.1,0,1.4,1.8,3.4c-0.2,0.2-1.8,2.8-1.8,3.4c0,1.4,1.6,1.8,1.9,2.5h2.9c0.2-0.7,1.2-1,1.8-1.7h3.2c-0.5,0.5-0.6,0.6-0.6,0.6
	s0.6,0.1,0.6,4.2c0,0.5-0.5,1-0.5,1.6c-0.6,0-1.3,0-1.7,0.2v0.6c0.4,0.2,1.1,0.2,1.7,0.2c0,0.6,0,1,0.5,1.3v8.6
	c-0.8,1-2.1,1-1.8,2.8c-0.3,0-0.7,0-1,0.5h-1.9c0-3.4-5.2-8.2-6.2-8.2h-4.2c-0.6,0-1.5,1-2.2,1.5H15v-7h2.5c0.6,0,0.2,0.3,0.4,0.5
	l1.6-0.2v-0.6c-0.5-0.2-0.8-0.7-1.4-0.7H14C13.9,165.5,12.7,166,12.5,166z M287.1,207.6c0,2.9-37.4,93.6-135.7,93.7
	c-77.7,0.1-125.1-62.4-136.5-95.7c0.4-0.1,0.7-0.2,0.8-0.5h166.7v-16.2c0.6-0.3,1.3-0.6,1.9-0.6c1.2,0,0.9,1,2.6,1.3v8.9
	c-0.3,0-0.5,0-0.7,0.2v7.3h100.5c0,0.4,0.2,0.5,0.5,0.6v1H287.1z M294.1,184.3c0,2.2-1.6,5.9-2,7.6H291c-2-1.3-6.3-0.4-6.5-3.3h-4.6
	c-0.2,0.8-0.4,0.8-0.9,0.8s-1.4-0.8-2.1-0.8c-1.6,0-2.8,1.7-3.7,2.7h-3.4c-0.6,0,0.1-0.5-0.5-0.5h-7.6c-0.3,0.5-1.4,0.6-1,1.7h-2.4
	c0-0.3,0-0.5-0.2-0.7h-3.4c-0.9,1.4-5.8,4.8-6.6,4.8c-0.6,0-2.4-1.5-3-1.5h-4.7c-2.4,0-4.5-2.3-8.6-2.5c0-0.6-0.5-0.6-0.5-1.2
	c0-0.8,2.6-5.2,3.3-5.4v-4.7c0.5-0.3,0.5-1,1.1-1.5h4.2V179h2.7c-0.2,0.4-0.3,0.4-0.3,0.3c0.1,0.2,0.2,1,0.3,3.9
	c2.4,2.1,3.4,4.9,6.5,4.9c2.9,0,3.6-2.4,5.6-3.7h4c0.6,0,0.5,0.5,1.2,0.5c1.2,0,3.9-1.7,4.3-2.7h1.6c0.5,0.7,2.3,1.2,3,1.2h2.9
	c3,0,8.2-2.8,10-2.8c0.6,0,3.5,1,4.1,1s1.8-0.5,2.4-0.5c0.5,0,5,1.6,6.1,1.8v1.4H294.1z M297.4,154.3c0,0.6-0.5,0-0.5,0.6v10.3
	c0,0.6-0.5-0.2-0.5,0.4v6.6c0,0.6-0.5-0.2-0.5,0.4v3.6c0,0.8-1,2-1,3.4c-0.6,0-1,0-1.3,0.5c-1.3-0.6-2.8,0.2-2.9-1.3h-4.4
	c-0.2,0.2-0.2,0.4-0.2,0.7h-0.9c-0.4-0.8-2-1.6-2.7-2.4c0.2-3-0.9-6.9-5-6.3c-0.6-1.6-1.3-3.3-2-4.6V165c1.1-0.8,4.7-3.1,4.7-5.6
	c0-0.6-0.5-0.4-0.5-1c0-4.4,6.5-1.4,6.5-9.4c0-1.8-3.2-2.5-3.2-4.1c0-0.8,0.8-1.4,1.1-3.1c0.9-0.6,1-2.6,1.2-4.2
	c0.5-0.6,1.3-1.1,1.9-1.1s0.8,0.5,1.4,0.5c1.6,0,5-2.8,5.8-2.8c1.6,0,0.2,1.7,2.1,2.8v4c0,0.6,0.5-0.2,0.5,0.4v3.8
	c0,0.6,0.5-0.2,0.5,0.4v7.6c0,0.6-0.5-0.2-0.5,0.4S297.4,153.7,297.4,154.3z"/>
<g>
	<g>
		<g>
			<path class="st0" d="M81.6,210.9h-7.3v39.3h7.3V210.9z"/>
		</g>
		<g>
			<path class="st0" d="M104.8,229.8c0-6.8-7.1-8-11-8c-5.7,0-11.5,1.2-12.4,9.7h7c0.2-1.6,0.8-3.8,4.5-3.8c1.9,0,4.8,0.2,4.8,3.2
				c0,1.6-1.4,2-2.5,2.2l-6.6,1c-4.6,0.7-8.1,3.4-8.1,8.8c0,5.7,4.3,8.1,8.4,8.1c4.9,0,7.3-2.3,8.9-4c0.2,1.6,0.3,2,0.7,3.3h7.9
				v-1.1c-0.9-0.3-1.6-1-1.6-4.3C104.8,244.9,104.8,229.8,104.8,229.8z M97.7,240.3c0,3.4-3.3,5.5-6.5,5.5c-1.4,0-3.4-0.8-3.4-3.3
				c0-3,2.2-3.7,4.9-4.2c3-0.5,4.2-0.9,4.9-1.5L97.7,240.3L97.7,240.3z"/>
		</g>
		<g>
			<path class="st0" d="M122.8,237c0-4.4,1.2-8.9,6.2-8.9c4.6,0,6.2,4.1,6.2,8.5c0,3.3-1.3,8.4-6,8.4
				C124.6,244.9,122.8,241.1,122.8,237z M122.8,222.5h-7V264h7.3v-17.3h0.1c0.9,1.5,2.7,4.3,7.8,4.3c8.2,0,11.6-7.3,11.6-14.9
				c0-9.6-5.4-14.2-11.5-14.2c-4.9,0-6.9,2.5-8.3,4.7h-0.1L122.8,222.5L122.8,222.5z"/>
		</g>
		<g>
			<path class="st0" d="M141.5,250.2h7.3v-14.4c0-3.1,1-6.6,6.7-6.6c0.7,0,0.5,0,1.1,0.1v-7.4c-0.5-0.1,0.1-0.1-0.4-0.1
				c-4.4,0-6.1,2.7-7.6,5.5h-0.1v-4.8h-7V250.2z"/>
		</g>
		<g>
			<path class="st0" d="M179,229.8c0-6.8-7.1-8-11-8c-5.7,0-11.5,1.2-12.4,9.7h7c0.2-1.6,0.8-3.8,4.5-3.8c1.9,0,4.8,0.2,4.8,3.2
				c0,1.6-1.4,2-2.5,2.2l-6.6,1c-4.6,0.7-8.1,3.4-8.1,8.8c0,5.7,4.3,8.1,8.4,8.1c4.9,0,7.3-2.3,8.9-4c0.2,1.6,0.3,2,0.7,3.3h7.9
				v-1.1c-0.9-0.3-1.6-1-1.6-4.3L179,229.8L179,229.8z M171.8,240.3c0,3.4-3.3,5.5-6.5,5.5c-1.4,0-3.4-0.8-3.4-3.3
				c0-3,2.2-3.7,4.9-4.2c3-0.5,4.2-0.9,4.9-1.5v3.5H171.8z"/>
		</g>
		<g>
			<path class="st0" d="M180.5,222.5v27.7h7.3v-27.7H180.5z M187.7,212.5h-7.3v6.8h7.3V212.5z"/>
		</g>
		<g>
			<path class="st0" d="M189.5,250.2h7.3v-14.4c0-3.1,1-6.6,6.7-6.6c0.7,0,0.5,0,1.1,0.1v-7.4c-0.5-0.1,0.1-0.1-0.4-0.1
				c-4.4,0-6.1,2.7-7.6,5.5h-0.1v-4.8h-7V250.2z"/>
		</g>
		<g>
			<path class="st0" d="M205.8,221.5v28.7h7.3v-28.7H205.8z M213.1,212.5h-7.3v6.8h7.3V212.5z"/>
		</g>
		<g>
			<path class="st0" d="M231.1,242.1c-0.6,2-2.7,3-4.7,3c-5.9,0-6.3-4.7-6.5-6.8h19V237c0-12.6-7.5-15.2-13-15.2
				c-12.1,0-13.3,10.7-13.3,14c0,11.4,6,15.1,13.8,15.1c4.7,0,10.2-2.2,12.2-8.8H231.1z M220.1,233.6c0.4-3.6,2.2-5.8,5.7-5.8
				c2.3,0,5.2,1.4,5.6,5.8H220.1z"/>
		</g>
	</g>
	<g>
		<g>
			<path class="st0" d="M146.9,257.5c0-0.9-0.3-2.7-3.4-2.7c-2.1,0-3,1.3-3,2.7c0,1.5,1.3,1.9,1.8,2l1.8,0.4
				c1.4,0.3,1.8,0.6,1.8,1.5c0,1.2-1.4,1.5-2.3,1.5c-1.1,0-2.4-0.5-2.4-2h-1.1c0,0.8,0.1,1.5,0.9,2.2c0.4,0.3,1,0.8,2.6,0.8
				c1.5,0,3.4-0.6,3.4-2.6c0-1.4-0.8-2-2-2.3l-2.5-0.6c-0.5-0.1-1-0.4-1-1.1c0-1.3,1.2-1.5,2-1.5c1,0,2.1,0.4,2.1,1.8L146.9,257.5
				L146.9,257.5z"/>
		</g>
		<g>
			<path class="st0" d="M154.5,256.5L154.5,256.5l2.5,7.1h1.6l2.9-8.6h-1.6l-2.1,7l0,0l-2.5-7h-1.6l-2.5,7l0,0l-2.1-7h-1.6l2.9,8.6
				h1.6L154.5,256.5z"/>
		</g>
		<g>
			<path class="st0" d="M164.7,255h-1.2v8.6h1.2V255z"/>
		</g>
		<g>
			<path class="st0" d="M166.6,256h2.9v7.6h1.2V256h2.9v-1h-7L166.6,256L166.6,256z"/>
		</g>
		<g>
			<path class="st0" d="M182.1,262.6h-5.3l5.3-6.6v-1h-6.4v1h4.9l-5.3,6.6v1h6.8V262.6z"/>
		</g>
		<g>
			<path class="st0" d="M191.1,262.6h-5.2v-2.9h4.7v-1h-4.7V256h5.1v-1h-6.3v8.6h6.4V262.6z"/>
		</g>
		<g>
			<path class="st0" d="M195.3,259.9h2.8c1.4,0,1.5,0.8,1.5,1.5c0,0.3,0,1.6,0.2,2.2h1.4v-0.2c-0.4-0.2-0.4-0.4-0.4-0.9l-0.1-1.6
				c0-1.2-0.5-1.4-1-1.6c0.6-0.3,1.2-0.8,1.2-2.1c0-1.8-1.4-2.3-2.8-2.3h-4v8.6h1.2L195.3,259.9L195.3,259.9z M195.3,256h2.9
				c0.6,0,1.5,0.1,1.5,1.4s-0.9,1.5-1.8,1.5h-2.7V256H195.3z"/>
		</g>
		<g>
			<path class="st0" d="M205.2,255H204v8.6h5.5v-1h-4.4L205.2,255L205.2,255z"/>
		</g>
		<g>
			<path class="st0" d="M216.8,261.1l0.9,2.5h1.3l-3.1-8.6h-1.3l-3.2,8.6h1.2l0.9-2.5H216.8z M213.7,260.1l1.4-3.8l0,0l1.3,3.8
				H213.7z"/>
		</g>
		<g>
			<path class="st0" d="M227.1,262L227.1,262l-4.3-7h-1.4v8.6h1.1v-7l0,0l4.4,7h1.3V255h-1.1V262z"/>
		</g>
		<g>
			<path class="st0" d="M231.5,263.6h3.4c2.8,0,3.7-2.5,3.7-4.4c0-2.5-1.4-4.2-3.6-4.2h-3.5L231.5,263.6L231.5,263.6z M232.6,256
				h2.2c1.6,0,2.6,1.1,2.6,3.3s-1,3.4-2.5,3.4h-2.3V256z"/>
		</g>
	</g>
</g>
<path class="st0" d="M226.6,92.5c-0.5-0.5-1-1-1.6-1.6h-3c-1.3,0.8-2.3,1.5-2.3,3c0,0.6,0.5,1.6,0.5,2.5c0.6,0,1,0.5,1.3,1h3.6
	c0.3-0.5,0.7-0.5,1-0.5c0-0.6,0.8-1.2,0.8-1.9L226.6,92.5z M224.6,95.7h-2.2c-0.3-0.5-0.6-0.8-0.6-1.5s0.5-1.1,0.5-1.7h2.2
	c0,0.6,0.5,1.1,0.5,1.7S224.6,95.1,224.6,95.7z"/>
</svg>
