<?xml version="1.0" encoding="UTF-8"?>
<svg width="28px" height="22px" viewBox="0 0 28 22" version="1.1" xmlns="http://www.w3.org/2000/svg" xmlns:xlink="http://www.w3.org/1999/xlink">
    <!-- Generator: sketchtool 55.2 (78181) - https://sketchapp.com -->
    <title>09797CF6-BE47-43D8-BC72-B0A071050FE2</title>
    <desc>Created with sketchtool.</desc>
    <g id="🇺🇸🇪🇺-Checkout---Large-1366-&amp;-1920" stroke="none" stroke-width="1" fill="none" fill-rule="evenodd">
        <g id="Returning-Checkout---Payment-Default--Desktop" transform="translate(-599.000000, -727.000000)" fill-rule="nonzero">
            <g id="Payment-Method" transform="translate(63.000000, 362.000000)">
                <g id="payment-method-choices" transform="translate(0.000000, 52.000000)">
                    <g id="Payment-icons-Checkout" transform="translate(409.000000, 311.000000)">
                        <g id="maestro">
                            <g transform="translate(127.000000, 2.000000)">
                                <path d="M8.46940171,21.5958974 L8.46940171,20.16 C8.48633608,19.9163393 8.39758158,19.6771772 8.2257905,19.5035537 C8.05399941,19.3299302 7.81579245,19.2386432 7.57196581,19.2529915 C7.24980646,19.2318713 6.9416857,19.3877657 6.76786325,19.6598291 C6.60938706,19.3958775 6.31921191,19.2397706 6.01162393,19.2529915 C5.74380929,19.2394526 5.48885234,19.3687522 5.34153846,19.5928205 L5.34153846,19.3104274 L4.84376068,19.3104274 L4.84376068,21.5958974 L5.34632479,21.5958974 L5.34632479,20.3299145 C5.32377569,20.1713283 5.37365185,20.0110002 5.482184,19.8931918 C5.59071614,19.7753834 5.74642524,19.7125549 5.90632479,19.7220513 C6.2365812,19.7220513 6.40410256,19.9374359 6.40410256,20.3251282 L6.40410256,21.5958974 L6.90666667,21.5958974 L6.90666667,20.3299145 C6.88591067,20.1716889 6.93640679,20.0124073 7.04453234,19.8950403 C7.1526579,19.7776732 7.30727322,19.7143125 7.46666667,19.7220513 C7.80649573,19.7220513 7.96923077,19.9374359 7.96923077,20.3251282 L7.96923077,21.5958974 L8.46940171,21.5958974 Z M11.2694017,20.454359 L11.2694017,19.3128205 L10.7668376,19.3128205 L10.7668376,19.5904274 C10.5955984,19.3694476 10.328246,19.2446831 10.0488889,19.2553846 C9.38803534,19.2553846 8.85230769,19.7911123 8.85230769,20.4519658 C8.85230769,21.1128194 9.38803534,21.648547 10.0488889,21.648547 C10.328246,21.6592485 10.5955984,21.534484 10.7668376,21.3135043 L10.7668376,21.5911111 L11.2646154,21.5911111 L11.2694017,20.454359 Z M9.41948718,20.454359 C9.44162274,20.0787925 9.75990063,19.7898037 10.1358541,19.8039148 C10.5118077,19.8180259 10.8075267,20.1300604 10.8014465,20.5062295 C10.7953664,20.8823987 10.4897174,21.1847131 10.1135043,21.1866667 C9.92089182,21.191184 9.73529547,21.114312 9.60228634,20.9749257 C9.46927721,20.8355394 9.40117478,20.646549 9.41470085,20.454359 L9.41948718,20.454359 Z M21.9046154,19.2577778 C22.0684932,19.2573543 22.2309451,19.2882201 22.3832479,19.3487179 C22.5286231,19.406936 22.6611571,19.4931237 22.7733333,19.6023932 C22.8840596,19.7106761 22.9719462,19.8400647 23.0317949,19.982906 C23.1568276,20.289746 23.1568276,20.6333309 23.0317949,20.9401709 C22.9720036,21.0830433 22.8841096,21.2124427 22.7733333,21.3206838 C22.6611571,21.4299532 22.5286231,21.5161409 22.3832479,21.574359 C22.0676757,21.6969819 21.7176234,21.6969819 21.4020513,21.574359 C21.2573541,21.5161987 21.1255936,21.429985 21.014359,21.3206838 C20.9046908,21.2120186 20.8176566,21.0826873 20.7582906,20.9401709 C20.6335121,20.6332812 20.6335121,20.2897957 20.7582906,19.982906 C20.8176566,19.8403896 20.9046908,19.7110584 21.014359,19.6023932 C21.1255936,19.4930919 21.2573541,19.4068782 21.4020513,19.3487179 C21.559827,19.2833195 21.7290376,19.2499654 21.8998291,19.2505895 L21.9046154,19.2577778 Z M21.9046154,19.7364103 C21.8071496,19.7350808 21.7103772,19.7529715 21.6198291,19.7890598 C21.5345409,19.8232557 21.4571656,19.8745678 21.3924786,19.9398291 C21.3264877,20.0085315 21.2751878,20.0899599 21.2417094,20.1791453 C21.1685997,20.3702257 21.1685997,20.5815692 21.2417094,20.7726496 C21.2751273,20.8618649 21.3264345,20.943305 21.3924786,21.0119658 C21.4571222,21.0772799 21.5345091,21.1285997 21.6198291,21.162735 C21.8021493,21.2341265 22.0046883,21.2341265 22.1870085,21.162735 C22.2764081,21.1296897 22.3579204,21.0783369 22.4263248,21.0119658 C22.4924764,20.9433892 22.5437985,20.8619255 22.577094,20.7726496 C22.6502037,20.5815692 22.6502037,20.3702257 22.577094,20.1791453 C22.5437985,20.0898693 22.4924764,20.0084057 22.4263248,19.9398291 C22.3579204,19.873458 22.2764081,19.8221052 22.1870085,19.7890598 C22.0967305,19.7477316 21.9990751,19.7249454 21.8998291,19.7220513 L21.9046154,19.7364103 Z M13.9736752,20.454359 C13.9736752,19.7364103 13.528547,19.2577778 12.8895726,19.2577778 C12.2287191,19.2670298 11.7004917,19.8102576 11.7097437,20.4711111 C11.7189956,21.1319646 12.2622234,21.6601921 12.9230769,21.6509402 C13.263783,21.662581 13.5968582,21.5484325 13.8588034,21.3302564 L13.6194872,20.9617094 C13.430514,21.1132633 13.1964004,21.1974768 12.954188,21.2010256 C12.6120535,21.2304496 12.3086517,20.9822118 12.2697436,20.6410256 L13.9664957,20.6410256 C13.9736752,20.5811966 13.9736752,20.5213675 13.9736752,20.454359 Z M12.2721368,20.2533333 C12.2913457,19.9376153 12.5565965,19.6935001 12.8728205,19.7005128 C13.0232554,19.6973056 13.1687996,19.7540071 13.2774179,19.858137 C13.3860361,19.9622669 13.4488255,20.1052902 13.4519658,20.2557265 L12.2721368,20.2533333 Z M16.0676923,19.894359 C15.8491413,19.7685159 15.6019202,19.7009421 15.3497436,19.6981197 C15.0769231,19.6981197 14.914188,19.7986325 14.914188,19.9661538 C14.914188,20.1336752 15.0864957,20.1623932 15.3018803,20.1911111 L15.5411966,20.2246154 C16.0389744,20.2964103 16.3405128,20.5070085 16.3405128,20.9090598 C16.3405128,21.3111111 15.9576068,21.6557265 15.2994872,21.6557265 C14.9467635,21.6651092 14.6003323,21.5610959 14.3111111,21.3589744 L14.5504274,20.9712821 C14.7700486,21.1342157 15.0381066,21.2185106 15.311453,21.2105983 C15.6512821,21.2105983 15.8331624,21.1100855 15.8331624,20.9329915 C15.8331624,20.8037607 15.7039316,20.7319658 15.4311111,20.6936752 L15.1917949,20.6601709 C14.6796581,20.5883761 14.4020513,20.3586325 14.4020513,19.9852991 C14.4020513,19.5305983 14.7753846,19.2529915 15.3593162,19.2529915 C15.6861363,19.2420415 16.0092352,19.3251003 16.2902564,19.4923077 L16.0676923,19.894359 Z M18.4608547,19.7651282 L17.6495726,19.7651282 L17.6495726,20.7965812 C17.6495726,21.0358974 17.7309402,21.1794872 17.9798291,21.1794872 C18.1351766,21.1743425 18.2866811,21.1298792 18.4201709,21.0502564 L18.5637607,21.4762393 C18.3771677,21.5926853 18.1614841,21.6540722 17.9415385,21.6533399 C17.3528205,21.6533399 17.1470085,21.3374359 17.1470085,20.8061538 L17.1470085,19.7651282 L16.682735,19.7651282 L16.682735,19.3104274 L17.1470085,19.3104274 L17.1470085,18.6164103 L17.6495726,18.6164103 L17.6495726,19.3104274 L18.4608547,19.3104274 L18.4608547,19.7651282 Z M20.1815385,19.2529915 C20.3022789,19.253458 20.4220565,19.2745 20.5357265,19.3152137 L20.3825641,19.7938462 C20.2836518,19.7544098 20.1779263,19.7348912 20.071453,19.7364103 C19.7459829,19.7364103 19.5928205,19.9470085 19.5928205,20.3251282 L19.5928205,21.6054701 L19.0950427,21.6054701 L19.0950427,19.32 L19.5880342,19.32 L19.5880342,19.5976068 C19.7124746,19.3838503 19.9438777,19.2552931 20.1911111,19.2625641 L20.1815385,19.2529915 Z M23.622906,21.2632479 C23.6540202,21.2628667 23.6849101,21.2685569 23.7138462,21.28 C23.7413299,21.2912153 23.7664873,21.3074459 23.7880342,21.3278632 C23.8090627,21.3484974 23.8261005,21.3728371 23.8382906,21.3996581 C23.8627873,21.4561481 23.8627873,21.5202622 23.8382906,21.5767521 C23.8261005,21.6035732 23.8090627,21.6279128 23.7880342,21.648547 C23.7664873,21.6689644 23.7413299,21.6851949 23.7138462,21.6964103 C23.6851958,21.7090522 23.6542215,21.7155731 23.622906,21.7155556 C23.5303025,21.7148576 23.4464133,21.6607956 23.4075214,21.5767521 C23.3833083,21.5202037 23.3833083,21.4562066 23.4075214,21.3996581 C23.4197115,21.3728371 23.4367493,21.3484974 23.4577778,21.3278632 C23.4793247,21.3074459 23.5044821,21.2912153 23.5319658,21.28 C23.557152,21.269984 23.5838567,21.2643193 23.6109402,21.2632479 L23.622906,21.2632479 Z M23.622906,21.6676954 C23.646792,21.6678374 23.6704402,21.6629447 23.6923077,21.6533333 C23.7128976,21.6441406 23.7315709,21.6311504 23.7473504,21.6150427 C23.7885587,21.5735402 23.8066188,21.5143686 23.7956095,21.4569284 C23.7846001,21.3994882 23.7459411,21.3511878 23.6923077,21.3278632 C23.6704187,21.3183197 23.6467849,21.3134299 23.622906,21.3135034 C23.5990477,21.3136304 23.5754539,21.3185118 23.5535043,21.3278632 C23.5320028,21.3366797 23.5124764,21.3496973 23.4960684,21.3661538 C23.4340144,21.4338581 23.4340144,21.5377658 23.4960684,21.6054701 C23.5295449,21.6393659 23.5752661,21.6583446 23.622906,21.6581197 L23.622906,21.6676954 Z M23.637265,21.382906 C23.6596054,21.3818226 23.68162,21.3885963 23.6994872,21.4020513 C23.7143493,21.4143512 23.7223686,21.4330628 23.7210256,21.4523077 C23.7217204,21.468379 23.7156435,21.4840051 23.7042735,21.4953846 C23.6904023,21.5079836 23.6727069,21.5155674 23.6540171,21.5169231 L23.7234188,21.5958974 L23.6683761,21.5958974 L23.6037607,21.5169231 L23.5822222,21.5169231 L23.5822222,21.5958974 L23.5367521,21.5958974 L23.5367521,21.3757265 L23.637265,21.382906 Z M23.5846154,21.4235897 L23.5846154,21.4810256 L23.637265,21.4810256 C23.6466338,21.4838189 23.656614,21.4838189 23.6659829,21.4810256 C23.6693962,21.4742519 23.6693962,21.466261 23.6659829,21.4594872 C23.6693962,21.4527134 23.6693962,21.4447225 23.6659829,21.4379487 C23.656614,21.4351555 23.6466338,21.4351555 23.637265,21.4379487 L23.5846154,21.4235897 Z" id="Shape" fill="#FFFFFF"></path>
                                <g id="_Group_">
                                    <rect id="Rectangle-path" fill="#969696" x="10.2044444" y="1.87384615" width="7.53846154" height="13.5476923"></rect>
                                    <path d="M10.6830769,8.64888889 C10.6802584,6.00480157 11.8937404,3.50635247 13.9736752,1.87384615 C10.4413173,-0.90220983 5.36870978,-0.49785327 2.32074479,2.80274491 C-0.727220195,6.10334309 -0.727220195,11.1920415 2.32074479,14.4926397 C5.36870978,17.7932379 10.4413173,18.1975944 13.9736752,15.4215385 C11.8944021,13.7895504 10.6809942,11.2921364 10.6830769,8.64888889 L10.6830769,8.64888889 Z" id="_Path_" fill="#6A6D6E"></path>
                                    <path d="M27.0905983,14.1367094 L27.0905983,13.7478205 L27.2030769,13.7478205 L27.2030769,13.6644872 L26.9182906,13.6644872 L26.9182906,13.7478205 L27.0307692,13.7478205 L27.0307692,14.1505983 L27.0905983,14.1367094 Z M27.6434188,14.1367094 L27.6434188,13.6505983 L27.557265,13.6505983 L27.4567521,13.9978205 L27.3562393,13.6505983 L27.2676923,13.6505983 L27.2676923,14.1367094 L27.3299145,14.1367094 L27.3299145,13.7721261 L27.4232479,14.0880983 L27.4878632,14.0880983 L27.5811966,13.7721261 L27.5811966,14.1401816 L27.6434188,14.1367094 Z" id="Shape" fill="#00A1DF"></path>
                                    <path d="M27.911453,8.64888889 C27.9106563,11.9465872 26.0275225,14.9545166 23.0614561,16.3957886 C20.0953897,17.8370606 16.5668293,17.4587834 13.9736752,15.4215385 C16.0520411,13.7881649 17.2655403,11.2910829 17.2655403,8.64769231 C17.2655403,6.00430169 16.0520411,3.50721973 13.9736752,1.87384615 C16.5668078,-0.164863719 20.0963634,-0.543998699 23.0633261,0.897461293 C26.0302888,2.33892129 27.9138462,5.34790897 27.9138462,8.64649573 L27.911453,8.64888889 Z" id="Shape" fill="#B5B5B5"></path>
                                </g>
                            </g>
                        </g>
                    </g>
                </g>
            </g>
        </g>
    </g>
</svg>