<?xml version="1.0" encoding="UTF-8"?>
<svg width="28px" height="22px" viewBox="0 0 28 22" version="1.1" xmlns="http://www.w3.org/2000/svg" xmlns:xlink="http://www.w3.org/1999/xlink">
    <!-- Generator: sketchtool 55.2 (78181) - https://sketchapp.com -->
    <title>DC588E03-F05D-4343-884C-7C2D7B6320E4</title>
    <desc>Created with sketchtool.</desc>
    <g id="🇺🇸🇪🇺-Checkout---Large-1366-&amp;-1920" stroke="none" stroke-width="1" fill="none" fill-rule="evenodd">
        <g id="Returning-Checkout---Payment-Default--Desktop" transform="translate(-546.000000, -727.000000)" fill-rule="nonzero">
            <g id="Payment-Method" transform="translate(63.000000, 362.000000)">
                <g id="payment-method-choices" transform="translate(0.000000, 52.000000)">
                    <g id="Payment-icons-Checkout" transform="translate(409.000000, 311.000000)">
                        <g id="mastercard">
                            <g transform="translate(74.000000, 2.000000)">
                                <path d="M5.10940171,21.6006838 L5.10940171,20.1647863 C5.12633096,19.9204912 5.0373225,19.6807236 4.86508403,19.5066528 C4.69284556,19.332582 4.45403328,19.2410414 4.20957265,19.2553846 C3.8874133,19.2342644 3.57929253,19.3901589 3.40547009,19.6622222 C3.24699389,19.3982706 2.95681875,19.2421637 2.64923077,19.2553846 C2.38141612,19.2418458 2.12645918,19.3711454 1.9791453,19.5952137 L1.9791453,19.3128205 L1.48136752,19.3128205 L1.48136752,21.6006838 L1.98393162,21.6006838 L1.98393162,20.3418803 C1.96228747,20.1834746 2.0124767,20.0236752 2.1208031,19.9060902 C2.2291295,19.7885051 2.38428596,19.7254078 2.54393162,19.7340171 C2.87418803,19.7340171 3.0417094,19.9494017 3.0417094,20.337094 L3.0417094,21.6102564 L3.5442735,21.6102564 L3.5442735,20.3418803 C3.5235175,20.1836547 3.57401362,20.0243731 3.68213918,19.9070061 C3.79026473,19.789639 3.94488006,19.7262783 4.1042735,19.7340171 C4.44410256,19.7340171 4.60683761,19.9494017 4.60683761,20.337094 L4.60683761,21.6102564 L5.10940171,21.6006838 Z M12.5449573,19.3128205 L11.7264957,19.3128205 L11.7264957,18.6188034 L11.2239316,18.6188034 L11.2239316,19.3128205 L10.7692308,19.3128205 L10.7692308,19.7675214 L11.2335043,19.7675214 L11.2335043,20.8205128 C11.2335043,21.3517949 11.4393162,21.6676989 12.0280342,21.6676989 C12.2479798,21.6684311 12.4636634,21.6070443 12.6502564,21.4905983 L12.5066667,21.0646154 C12.3731768,21.1442382 12.2216723,21.1887015 12.0663248,21.1938462 C11.8270085,21.1938462 11.7360684,21.0406838 11.7360684,20.8109402 L11.7360684,19.7675214 L12.5497436,19.7675214 L12.5449573,19.3128205 Z M16.7904274,19.2553846 C16.5431939,19.2481136 16.3117908,19.3766708 16.1873504,19.5904274 L16.1873504,19.3128205 L15.694359,19.3128205 L15.694359,21.6006838 L16.1921368,21.6006838 L16.1921368,20.3179487 C16.1921368,19.9398291 16.3548718,19.7292308 16.6707692,19.7292308 C16.7772372,19.7277744 16.8829506,19.7472907 16.9818803,19.7866667 L17.1350427,19.3080342 C17.0213608,19.2673657 16.9015909,19.2463251 16.7808547,19.245812 L16.7904274,19.2553846 Z M10.3719658,19.4947009 C10.0902009,19.327174 9.76624442,19.2441082 9.43863248,19.2553846 C8.85948718,19.2553846 8.48136752,19.5329915 8.48136752,19.9876923 C8.48136752,20.3610256 8.75897436,20.5907692 9.27111111,20.6625641 L9.51042735,20.6960684 C9.78324786,20.734359 9.91247863,20.8061538 9.91247863,20.9353846 C9.91247863,21.1124786 9.73059829,21.2129915 9.39076923,21.2129915 C9.11742281,21.2209038 8.84936488,21.1366088 8.62974359,20.9736752 L8.39042735,21.3613675 C8.68038622,21.5638268 9.02768383,21.6678483 9.38119658,21.6581197 C10.0417094,21.6581197 10.4246154,21.3470085 10.4246154,20.911453 C10.4246154,20.4758974 10.1230769,20.2988034 9.62529915,20.2270085 L9.38598291,20.1935043 C9.17059829,20.1647863 8.9982906,20.1217094 8.9982906,19.968547 C8.9982906,19.8153846 9.16102564,19.7005128 9.43384615,19.7005128 C9.68600784,19.7034421 9.93320243,19.7710086 10.1517949,19.8967521 L10.3719658,19.4947009 Z M23.7042735,19.2553846 C23.45704,19.2481136 23.225637,19.3766708 23.1011966,19.5904274 L23.1011966,19.3128205 L22.6082051,19.3128205 L22.6082051,21.6006838 L23.1059829,21.6006838 L23.1059829,20.3179487 C23.1059829,19.9398291 23.2687179,19.7292308 23.5846154,19.7292308 C23.6910834,19.7277744 23.7967968,19.7472907 23.8957265,19.7866667 L24.0488889,19.3080342 C23.935207,19.2673657 23.8154371,19.2463251 23.6947009,19.245812 L23.7042735,19.2553846 Z M17.2905983,20.4519658 C17.2786272,20.7770613 17.4042029,21.0921517 17.6365021,21.3198961 C17.8688013,21.5476404 18.1863163,21.6669527 18.5111111,21.648547 C18.809988,21.6637531 19.1037141,21.5664137 19.334359,21.3757265 L19.0950427,20.9736752 C18.9229674,21.104895 18.7131377,21.1770764 18.4967521,21.1794872 C18.1152104,21.1486162 17.8213032,20.8299681 17.8213032,20.4471795 C17.8213032,20.0643909 18.1152104,19.7457428 18.4967521,19.7148718 C18.7131377,19.7172826 18.9229674,19.789464 19.0950427,19.9206838 L19.334359,19.5186325 C19.1037141,19.3279453 18.809988,19.2306058 18.5111111,19.245812 C18.1863163,19.2274063 17.8688013,19.3467186 17.6365021,19.5744629 C17.4042029,19.8022072 17.2786272,20.1172976 17.2905983,20.4423932 L17.2905983,20.4519658 Z M21.9524786,20.4519658 L21.9524786,19.3128205 L21.4547009,19.3128205 L21.4547009,19.5904274 C21.2832076,19.3697658 21.0160285,19.2450822 20.7367521,19.2553846 C20.0758986,19.2553846 19.5401709,19.7911123 19.5401709,20.4519658 C19.5401709,21.1128194 20.0758986,21.648547 20.7367521,21.648547 C21.0160285,21.6588494 21.2832076,21.5341658 21.4547009,21.3135043 L21.4547009,21.5911111 L21.9524786,21.5911111 L21.9524786,20.4519658 Z M20.1001709,20.4519658 C20.1223065,20.0763993 20.4405844,19.7874106 20.8165379,19.8015216 C21.1924914,19.8156327 21.4882105,20.1276673 21.4821303,20.5038364 C21.4760502,20.8800055 21.1704012,21.18232 20.794188,21.1842735 C20.6026247,21.1866974 20.4187545,21.1090033 20.2869722,20.9699501 C20.1551898,20.830897 20.0874727,20.6431231 20.1001709,20.4519658 L20.1001709,20.4519658 Z M14.0933333,19.2553846 C13.4324798,19.2646366 12.9042523,19.8078644 12.9135043,20.4687179 C12.9227562,21.1295715 13.4659841,21.657799 14.1268376,21.648547 C14.4711513,21.6662202 14.8097517,21.5553435 15.0769231,21.3374359 L14.8376068,20.9688889 C14.6486336,21.1204428 14.4145201,21.2046563 14.1723077,21.2082051 C13.8301731,21.2376291 13.5267714,20.9893913 13.4878632,20.6482051 L15.1870085,20.6482051 C15.1870085,20.5859829 15.1870085,20.5237607 15.1870085,20.4567521 C15.1870085,19.7388034 14.7418803,19.2601709 14.1005128,19.2601709 L14.0933333,19.2553846 Z M14.0933333,19.7005128 C14.2437682,19.6973056 14.3893125,19.7540071 14.4979307,19.858137 C14.6065489,19.9622669 14.6693384,20.1052902 14.6724786,20.2557265 L13.4758974,20.2557265 C13.4939247,19.936197 13.7639093,19.689597 14.0837607,19.7005128 L14.0933333,19.7005128 Z M26.5641026,20.4567521 L26.5641026,18.3938462 L26.0854701,18.3938462 L26.0854701,19.5904274 C25.9139769,19.3697658 25.6467977,19.2450822 25.3675214,19.2553846 C24.7066678,19.2553846 24.1709402,19.7911123 24.1709402,20.4519658 C24.1709402,21.1128194 24.7066678,21.648547 25.3675214,21.648547 C25.6467977,21.6588494 25.9139769,21.5341658 26.0854701,21.3135043 L26.0854701,21.5911111 L26.5641026,21.5911111 L26.5641026,20.4567521 Z M27.3945299,21.2680342 C27.4256441,21.267653 27.456534,21.2733432 27.4854701,21.2847863 C27.5129538,21.2960017 27.5381112,21.3122322 27.5596581,21.3326496 C27.5806866,21.3532837 27.5977244,21.3776234 27.6099145,21.4044444 C27.6344112,21.4609344 27.6344112,21.5250485 27.6099145,21.5815385 C27.5977244,21.6083595 27.5806866,21.6326992 27.5596581,21.6533333 C27.5381112,21.6737507 27.5129538,21.6899813 27.4854701,21.7011966 C27.4568197,21.7138385 27.4258455,21.7203594 27.3945299,21.7203419 C27.3019264,21.7196439 27.2180372,21.665582 27.1791453,21.5815385 C27.1549323,21.52499 27.1549323,21.4609929 27.1791453,21.4044444 C27.1913354,21.3776234 27.2083732,21.3532837 27.2294017,21.3326496 C27.2509486,21.3122322 27.276106,21.2960017 27.3035897,21.2847863 C27.3347607,21.272387 27.3681902,21.2666795 27.4017094,21.2680342 L27.3945299,21.2680342 Z M27.3945299,21.6724786 C27.4184159,21.6726237 27.4420642,21.667731 27.4639316,21.6581197 C27.4845215,21.6489269 27.5031949,21.6359368 27.5189744,21.6198291 C27.5810283,21.5521248 27.5810283,21.4482171 27.5189744,21.3805128 C27.5032325,21.3643607 27.4845501,21.3513642 27.4639316,21.3422222 C27.4420426,21.3326786 27.4184089,21.3277889 27.3945299,21.3278624 C27.3706716,21.3279893 27.3470778,21.3328708 27.3251282,21.3422222 C27.3036267,21.3510386 27.2841003,21.3640562 27.2676923,21.3805128 C27.2056383,21.4482171 27.2056383,21.5521248 27.2676923,21.6198291 C27.2841406,21.6362365 27.3036566,21.6492471 27.3251282,21.6581197 C27.3492728,21.6685318 27.3754329,21.6734368 27.4017094,21.6724786 L27.3945299,21.6724786 Z M27.4088889,21.3876923 C27.4312294,21.3866089 27.453244,21.3933826 27.4711111,21.4068376 C27.4859732,21.4191375 27.4939925,21.4378491 27.4926496,21.457094 C27.4933443,21.4731653 27.4872675,21.4887915 27.4758974,21.5001709 C27.4620262,21.51277 27.4443308,21.5203537 27.425641,21.5217094 L27.4950427,21.6006838 L27.44,21.6006838 L27.3753846,21.5217094 L27.3538462,21.5217094 L27.3538462,21.6006838 L27.3083761,21.6006838 L27.3083761,21.3900855 L27.4088889,21.3876923 Z M27.3562393,21.4283761 L27.3562393,21.485812 L27.4088889,21.485812 C27.4182578,21.4886052 27.428238,21.4886052 27.4376068,21.485812 C27.4410202,21.4790382 27.4410202,21.4710473 27.4376068,21.4642735 C27.4410202,21.4574997 27.4410202,21.4495088 27.4376068,21.442735 C27.428238,21.4399418 27.4182578,21.4399418 27.4088889,21.442735 L27.3562393,21.4283761 Z M24.7237607,20.4567521 C24.7458962,20.0811857 25.0641741,19.7921969 25.4401276,19.806308 C25.8160812,19.820419 26.1118002,20.1324536 26.1057201,20.5086227 C26.0996399,20.8847918 25.793991,21.1871063 25.4177778,21.1890598 C25.2262145,21.1914837 25.0423443,21.1137896 24.9105619,20.9747365 C24.7787795,20.8356833 24.7110624,20.6479095 24.7237607,20.4567521 L24.7237607,20.4567521 Z M7.9165812,20.4567521 L7.9165812,19.3128205 L7.41880342,19.3128205 L7.41880342,19.5904274 C7.2473102,19.3697658 6.98013108,19.2450822 6.7008547,19.2553846 C6.04000115,19.2553846 5.5042735,19.7911123 5.5042735,20.4519658 C5.5042735,21.1128194 6.04000115,21.648547 6.7008547,21.648547 C6.98013108,21.6588494 7.2473102,21.5341658 7.41880342,21.3135043 L7.41880342,21.5911111 L7.9165812,21.5911111 L7.9165812,20.4567521 Z M6.0642735,20.4567521 C6.08640906,20.0811857 6.40468695,19.7921969 6.78064047,19.806308 C7.15659398,19.820419 7.45231302,20.1324536 7.44623287,20.5086227 C7.44015273,20.8847918 7.13450377,21.1871063 6.7582906,21.1890598 C6.56590176,21.1928368 6.3807515,21.115735 6.24790772,20.976522 C6.11506394,20.837309 6.04671111,20.6487534 6.05948718,20.4567521 L6.0642735,20.4567521 Z" id="Shape" fill="#FFFFFF"></path>
                                <g id="_Group_">
                                    <polygon id="Rectangle-path" fill="#B5B5B5" points="10.2068376 1.87863248 17.7452991 1.87863248 17.7452991 15.4263248 10.2068376 15.4263248"></polygon>
                                    <path d="M10.6854701,8.65367521 C10.6826516,6.00958789 11.8961336,3.5111388 13.9760684,1.87863248 C10.4437105,-0.897423505 5.37110295,-0.493066945 2.32313796,2.80753124 C-0.724827032,6.10812942 -0.724827032,11.1968278 2.32313796,14.497426 C5.37110295,17.7980242 10.4437105,18.2023808 13.9760684,15.4263248 C11.8967953,13.7943367 10.6833874,11.2969227 10.6854701,8.65367521 L10.6854701,8.65367521 Z" id="_Path_" fill="#969696"></path>
                                    <path d="M27.9162393,8.65367521 C27.9162393,11.952262 26.0326819,14.9612497 23.0657192,16.4027096 C20.0987565,17.8441696 16.569201,17.4650347 13.9760684,15.4263248 C16.0544342,13.7929512 17.2679334,11.2958692 17.2679334,8.65247863 C17.2679334,6.00908802 16.0544342,3.51200606 13.9760684,1.87863248 C16.569201,-0.160077394 20.0987565,-0.539212375 23.0657192,0.902247618 C26.0326819,2.34370761 27.9162393,5.35269529 27.9162393,8.65128205 L27.9162393,8.65367521 Z" id="Shape" fill="#E7E7E7"></path>
                                    <path d="M27.0929915,14.1518385 L27.0929915,13.740491 L27.2054701,13.740491 L27.2054701,13.6553846 L26.9206838,13.6553846 L26.9206838,13.740491 L27.042735,13.740491 L27.042735,14.1518385 L27.0929915,14.1518385 Z M27.645812,14.1518385 L27.645812,13.6553846 L27.5596581,13.6553846 L27.4591453,14.0099945 L27.3586325,13.6553846 L27.2820513,13.6553846 L27.2820513,14.1518385 L27.3442735,14.1518385 L27.3442735,13.7794981 L27.4376068,14.1021931 L27.5022222,14.1021931 L27.5955556,13.7794981 L27.5955556,14.1553846 L27.645812,14.1518385 Z" id="Shape" fill="#F79E1B"></path>
                                </g>
                            </g>
                        </g>
                    </g>
                </g>
            </g>
        </g>
    </g>
</svg>