<?xml version="1.0" encoding="UTF-8"?>
<svg width="21px" height="27px" viewBox="0 0 21 27" version="1.1" xmlns="http://www.w3.org/2000/svg" xmlns:xlink="http://www.w3.org/1999/xlink">
    <!-- Generator: sketchtool 62 (101010) - https://sketch.com -->
    <title>2730C723-D481-4E7D-BF19-12876C931588@3x</title>
    <desc>Created with sketchtool.</desc>
    <g id="Asset-Artboard-Page" stroke="none" stroke-width="1" fill="none" fill-rule="evenodd">
        <g id="Bag">
            <rect fill="#2F3335" x="0" y="0" width="21" height="27"></rect>
            <g fill="#FFFFFF" stroke="#FFFFFF" stroke-width="0.4">
                <path d="M20.2663439,26.24105 L0.418193874,26.24105 C0.303743874,26.24105 0.197693874,26.1959 0.114743874,26.114 C0.037043874,26.0279 -0.003906126,25.91765 0.000293873999,25.80215 L0.943193874,5.95925 C0.955793874,5.7335 1.14059387,5.5571 1.36634387,5.5571 L19.3181939,5.5571 C19.5439439,5.5571 19.7287439,5.7335 19.7413439,5.95925 L20.6842439,25.80215 C20.6926439,25.91765 20.6474939,26.0279 20.5697939,26.114 C20.4920939,26.1959 20.3807939,26.24105 20.2663439,26.24105 Z M0.861293874,25.40525 L19.8232439,25.40525 L18.9212939,6.39815 L1.76429387,6.39815 L0.861293874,25.40525 Z" id="Fill-1"></path>
                <path d="M14.8850939,9.5571 C14.6509439,9.5571 14.4619439,9.3681 14.4619439,9.13395 L14.4619439,4.95915 C14.4619439,2.69115 12.6170939,0.84105 10.3448939,0.84105 C8.07269387,0.84105 6.22259387,2.69115 6.22259387,4.95915 L6.22259387,9.13395 C6.22259387,9.3681 6.03359387,9.5571 5.80364387,9.5571 C5.57054387,9.5571 5.38154387,9.3681 5.38154387,9.13395 L5.38154387,4.95915 C5.38154387,2.22705 7.60859387,-5.32907052e-15 10.3448939,-5.32907052e-15 C13.0759439,-5.32907052e-15 15.3029939,2.22705 15.3029939,4.95915 L15.3029939,9.13395 C15.3029939,9.3681 15.1150439,9.5571 14.8850939,9.5571 Z" id="Fill-4"></path>
            </g>
        </g>
    </g>
</svg>