<?xml version="1.0" encoding="UTF-8"?>
<svg width="17px" height="21px" viewBox="0 0 17 21" version="1.1" xmlns="http://www.w3.org/2000/svg" xmlns:xlink="http://www.w3.org/1999/xlink">
    <!-- Generator: sketchtool 55.2 (78181) - https://sketchapp.com -->
    <title>87AC129E-323E-4C7A-B509-721C83FFC99C</title>
    <desc>Created with sketchtool.</desc>
    <g id="🇺🇸🇪🇺-Checkout---Large-1366-&amp;-1920" stroke="none" stroke-width="1" fill="none" fill-rule="evenodd">
        <g id="Bag---Art-Of-Gifting-Exposed---Desktop" transform="translate(-1014.000000, -400.000000)" fill="#292C2E" fill-rule="nonzero">
            <g id="ORDER-SUMMARY-(bag)-v.2" transform="translate(903.000000, 175.000000)">
                <g id="ORDER-SUMMARY-v.2">
                    <g id="Order-Summary" transform="translate(19.575064, 70.000000)">
                        <g id="CTA" transform="translate(0.000000, 145.000000)">
                            <g id="Group-2" transform="translate(92.000000, 8.000000)">
                                <g id="Group">
                                    <g id="Padlock" transform="translate(0.000000, 2.000000)">
                                        <path d="M13.2,8.88461538 L13.2,5.25 C13.2,2.35088942 10.8719,0 8.0008,0 C5.1281,0 2.8,2.35088942 2.8,5.25 L2.8,8.88461538 L0,8.88461538 L0,21 L16,21 L16,8.88461538 L13.2,8.88461538 Z M3.6,5.25 C3.6,2.80052163 5.5742,0.807692308 8.0008,0.807692308 C10.42655,0.807692308 12.4,2.80052163 12.4,5.25 L12.4,8.88461538 L3.6,8.88461538 L3.6,5.25 Z M15.2,20.1923077 L0.8,20.1923077 L0.8,9.69230769 L15.2,9.69230769 L15.2,20.1923077 Z" id="Shape"></path>
                                        <path d="M8,12.1153846 C7.11635,12.1153846 6.4,12.8386226 6.4,13.7307692 C6.4,14.4834375 6.9099,15.1159111 7.6,15.2952692 L7.6,16.9615385 L8.4,16.9615385 L8.4,15.2952692 C9.0901,15.1159111 9.6,14.4834375 9.6,13.7307692 C9.6,12.8386226 8.88365,12.1153846 8,12.1153846 Z M8,14.5384615 C7.5589,14.5384615 7.2,14.1761106 7.2,13.7307692 C7.2,13.2854279 7.5589,12.9230769 8,12.9230769 C8.4411,12.9230769 8.8,13.2854279 8.8,13.7307692 C8.8,14.1761106 8.4411,14.5384615 8,14.5384615 Z" id="Shape"></path>
                                    </g>
                                </g>
                            </g>
                        </g>
                    </g>
                </g>
            </g>
        </g>
    </g>
</svg>