<?xml version="1.0" encoding="UTF-8"?>
<svg width="67px" height="19px" viewBox="0 0 67 19" version="1.1" xmlns="http://www.w3.org/2000/svg" xmlns:xlink="http://www.w3.org/1999/xlink">
    <!-- Generator: sketchtool 55.2 (78181) - https://sketchapp.com -->
    <title>388085E5-09BC-48D0-A124-70E7B6A70146</title>
    <desc>Created with sketchtool.</desc>
    <g id="🇺🇸🇪🇺-Checkout---Large-1366-&amp;-1920" stroke="none" stroke-width="1" fill="none" fill-rule="evenodd">
        <g id="Returning-Checkout---Payment---Billing-Address---Desktop" transform="translate(-605.000000, -1849.000000)" fill="#FFFFFF">
            <g id="Expiration-Date" transform="translate(61.000000, 1744.000000)">
                <g id="Payment-icons-Checkout" transform="translate(409.000000, 49.000000)">
                    <g id="paypal">
                        <g transform="translate(135.000000, 56.000000)">
                            <path d="M45.937851,5.1715812 C45.6347985,6.98989621 44.2710623,6.98989621 42.907326,6.98989621 L41.9981685,6.98989621 L42.6042735,3.50479243 C42.6042735,3.35326618 42.7557998,3.20173993 43.0588523,3.20173993 L43.3619048,3.20173993 C44.2710623,3.20173993 45.1802198,3.20173993 45.6347985,3.80784493 C45.937851,3.95937118 45.937851,4.41394994 45.937851,5.1715812 M45.331746,0.171214896 L40.1798535,0.171214896 C39.876801,0.171214896 39.5737485,0.474267399 39.4222222,0.777319902 L37.3008547,14.11163 C37.3008547,14.4146825 37.452381,14.5662088 37.7554335,14.5662088 L40.482906,14.5662088 C40.7859585,14.5662088 40.9374847,14.4146825 40.9374847,14.11163 L41.5435897,10.3234737 C41.5435897,10.0204212 41.8466422,9.71736874 42.301221,9.71736874 L43.9680098,9.71736874 C47.4531136,9.71736874 49.4229548,8.05057998 49.8775336,4.71700244 C50.1805861,3.35326618 49.8775336,2.14105617 49.2714286,1.38342491 C48.3622711,0.625793651 46.9985348,0.171214896 45.331746,0.171214896" id="Fill-1"></path>
                            <path d="M8.81391941,5.1715812 C8.51086691,6.98989621 7.14713065,6.98989621 5.78339438,6.98989621 L5.02576313,6.98989621 L5.63186813,3.50479243 C5.63186813,3.35326618 5.78339438,3.20173993 6.08644689,3.20173993 L6.38949939,3.20173993 C7.2986569,3.20173993 8.20781441,3.20173993 8.66239316,3.80784493 C8.81391941,3.95937118 8.96544567,4.41394994 8.81391941,5.1715812 M8.20781441,0.171214896 L3.05592186,0.171214896 C2.75286935,0.171214896 2.44981685,0.474267399 2.2982906,0.777319902 L0.176923077,14.11163 C0.176923077,14.4146825 0.328449328,14.5662088 0.631501832,14.5662088 L3.05592186,14.5662088 C3.35897436,14.5662088 3.66202686,14.2631563 3.81355311,13.9601038 L4.41965812,10.3234737 C4.41965812,10.0204212 4.72271062,9.71736874 5.17728938,9.71736874 L6.84407814,9.71736874 C10.3291819,9.71736874 12.2990232,8.05057998 12.753602,4.71700244 C13.0566545,3.35326618 12.753602,2.14105617 12.1474969,1.38342491 C11.2383394,0.625793651 10.0261294,0.171214896 8.20781441,0.171214896" id="Fill-2"></path>
                            <path d="M20.3299145,9.86889499 C20.026862,11.2326313 18.9661783,12.293315 17.4509158,12.293315 C16.6932845,12.293315 16.0871795,11.9902625 15.784127,11.68721 C15.4810745,11.2326313 15.3295482,10.6265263 15.3295482,9.86889499 C15.4810745,8.50515873 16.6932845,7.44447497 18.0570208,7.44447497 C18.814652,7.44447497 19.2692308,7.74752747 19.7238095,8.05057998 C20.1783883,8.50515873 20.3299145,9.26278999 20.3299145,9.86889499 M23.8150183,5.02005495 L21.3905983,5.02005495 C21.239072,5.02005495 20.9360195,5.1715812 20.9360195,5.32310745 L20.7844933,6.08073871 L20.632967,5.7776862 C20.026862,5.02005495 18.9661783,4.71700244 17.7539683,4.71700244 C15.0264957,4.71700244 12.6020757,6.83836996 12.1474969,9.71736874 C11.8444444,11.2326313 12.2990232,12.5963675 13.0566545,13.505525 C13.8142857,14.4146825 14.8749695,14.717735 16.2387057,14.717735 C18.5115995,14.717735 19.7238095,13.3539988 19.7238095,13.3539988 L19.5722833,14.11163 C19.5722833,14.4146825 19.7238095,14.5662088 20.026862,14.5662088 L22.2997558,14.5662088 C22.6028083,14.5662088 22.9058608,14.2631563 23.0573871,13.9601038 L24.4211233,5.4746337 C24.2695971,5.32310745 23.9665446,5.02005495 23.8150183,5.02005495" id="Fill-3"></path>
                            <path d="M57.3023199,9.86889499 C56.9992674,11.2326313 55.9385836,12.293315 54.4233211,12.293315 C53.6656899,12.293315 53.0595849,11.9902625 52.7565324,11.68721 C52.4534799,11.2326313 52.3019536,10.6265263 52.3019536,9.86889499 C52.4534799,8.50515873 53.6656899,7.44447497 55.0294261,7.44447497 C55.7870574,7.44447497 56.2416361,7.74752747 56.6962149,8.05057998 C57.3023199,8.50515873 57.4538462,9.26278999 57.3023199,9.86889499 M60.7874237,5.02005495 L58.3630037,5.02005495 C58.2114774,5.02005495 57.9084249,5.1715812 57.9084249,5.32310745 L57.7568987,6.08073871 L57.6053724,5.7776862 C56.9992674,5.02005495 55.9385836,4.71700244 54.7263736,4.71700244 C51.9989011,4.71700244 49.5744811,6.83836996 49.1199023,9.71736874 C48.8168498,11.2326313 49.2714286,12.5963675 50.0290598,13.505525 C50.7866911,14.4146825 51.8473748,14.717735 53.2111111,14.717735 C55.4840049,14.717735 56.6962149,13.3539988 56.6962149,13.3539988 L56.5446886,14.11163 C56.5446886,14.4146825 56.6962149,14.5662088 56.9992674,14.5662088 L59.2721612,14.5662088 C59.5752137,14.5662088 59.8782662,14.2631563 60.0297924,13.9601038 L61.3935287,5.4746337 C61.2420024,5.32310745 61.0904762,5.02005495 60.7874237,5.02005495" id="Fill-4"></path>
                            <path d="M36.9978022,5.02005495 L34.4218559,5.02005495 C34.1188034,5.02005495 33.9672772,5.1715812 33.8157509,5.32310745 L30.4821734,10.475 L28.9669109,5.62615995 C28.8153846,5.32310745 28.6638584,5.1715812 28.2092796,5.1715812 L25.7848596,5.1715812 C25.4818071,5.1715812 25.3302808,5.4746337 25.3302808,5.7776862 L28.0577534,13.8085775 L25.4818071,17.4452076 C25.3302808,17.7482601 25.4818071,18.2028388 25.7848596,18.2028388 L28.2092796,18.2028388 C28.5123321,18.2028388 28.6638584,18.0513126 28.8153846,17.8997863 L37.1493284,5.92921245 C37.6039072,5.4746337 37.3008547,5.02005495 36.9978022,5.02005495" id="Fill-5"></path>
                            <path d="M63.6664225,0.625793651 L61.5450549,14.2631563 C61.5450549,14.5662088 61.6965812,14.717735 61.9996337,14.717735 L64.1210012,14.717735 C64.4240537,14.717735 64.7271062,14.4146825 64.8786325,14.11163 L67,0.777319902 C67,0.474267399 66.8484737,0.322741148 66.5454212,0.322741148 L64.1210012,0.322741148 C63.969475,0.171214896 63.8179487,0.322741148 63.6664225,0.625793651" id="Fill-6"></path>
                        </g>
                    </g>
                </g>
            </g>
        </g>
    </g>
</svg>