<?xml version="1.0" encoding="UTF-8"?>
<svg width="16px" height="30px" viewBox="0 0 16 30" version="1.1" xmlns="http://www.w3.org/2000/svg" xmlns:xlink="http://www.w3.org/1999/xlink">
    <!-- Generator: Sketch 63.1 (92452) - https://sketch.com -->
    <title>Phone@3x</title>
    <desc>Created with Sketch.</desc>
    <g id="Symbols" stroke="none" stroke-width="1" fill="none" fill-rule="evenodd">
        <g id="Global-Elements-/-Footer-/-Section-/-Can-we-help?-/-375" transform="translate(-55.000000, -133.000000)">
            <g id="Group-4">
                <g id="Group-9" transform="translate(15.000000, 25.000000)">
                    <g id="Group-2" transform="translate(33.000000, 108.000000)">
                        <g id="Group-8">
                            <g id="Group">
                                <g id="Icons-/-Customer-Service-/-Call-Us-/-30">
                                    <g id="PLP_Platinum-Rare_30">
                                        <g id="Backgrounds_Titles">
                                            <rect id="Rectangle" x="0.05835" y="0.11671" width="29.88329" height="29.88329"></rect>
                                        </g>
                                    </g>
                                    <g id="PDP_Concierge-Service_Call-Back_30">
                                        <g id="Backgrounds_Titles">
                                            <rect id="Rectangle" x="0.05835" y="0.05835" width="29.88329" height="29.88329"></rect>
                                        </g>
                                        <g id="Icons_30" transform="translate(7.000000, 0.000000)" fill="#FFFFFF" fill-rule="nonzero">
                                            <g id="Call_Back_30">
                                                <path d="M7.99988,23.67779 C7.15826629,23.67779 6.47598,24.360043 6.47598,25.2016567 C6.47598,26.0432704 7.15819963,26.7255532 7.99981334,26.72559 C8.84142705,26.7256268 9.52372477,26.0434037 9.52378001,25.20179 C9.52381713,24.797606 9.36327896,24.4099642 9.0774871,24.1241536 C8.79169524,23.838343 8.40406399,23.67779 7.99988,23.67779 Z" id="Path"></path>
                                                <path d="M13.68278,0 L2.31722,0 C1.11537898,0.00147666787 0.141465628,0.975398964 0.14,2.17724 L0.14,27.82181 C0.141393004,29.0238351 1.11519567,29.9980716 2.31722,30 L13.68278,30 C14.8848043,29.9980716 15.858607,29.0238351 15.86,27.82181 L15.86,2.17724 C15.8585344,0.975398964 14.884621,0.00147666787 13.68278,0 L13.68278,0 Z M15.08006,27.82181 C15.0795698,28.5934507 14.4544202,29.2190074 13.68278,29.22 L2.31722,29.22 C1.54556422,29.2190074 0.920408175,28.5934263 0.91994,27.82177 L0.91994,2.17724 C0.920843761,1.4059247 1.54590468,0.78088168 2.31722,0.78 L13.68278,0.78 C14.4541109,0.780881723 15.0791783,1.40594908 15.08006,2.17728 L15.08006,27.82181 Z" id="Shape"></path>
                                                <path d="M9.082,2.6319 C9.08171904,2.41662543 8.90727457,2.24218096 8.692,2.2419 L4.53155,2.2419 C4.31615895,2.24190001 4.14155001,2.41650895 4.14155001,2.6319 C4.14155001,2.84729105 4.31615895,3.02189999 4.53155,3.0219 L8.692,3.0219 C8.90727229,3.02161354 9.08171354,2.84717229 9.082,2.6319 Z" id="Path"></path>
                                                <path d="M10.86975,2.03361 C10.6277094,2.03363023 10.4095151,2.17945395 10.3169154,2.40308078 C10.2243157,2.6267076 10.2755475,2.88409562 10.4467204,3.05521987 C10.6178932,3.22634412 10.8752958,3.27750275 11.0988963,3.18483952 C11.3224968,3.09217628 11.4682585,2.87394062 11.46821,2.6319 C11.4681217,2.30144377 11.2002062,2.03361 10.86975,2.03361 Z" id="Path"></path>
                                            </g>
                                        </g>
                                    </g>
                                </g>
                            </g>
                        </g>
                    </g>
                </g>
            </g>
        </g>
    </g>
</svg>