<?xml version="1.0" encoding="UTF-8"?>
<svg width="20px" height="16px" viewBox="0 0 20 16" version="1.1" xmlns="http://www.w3.org/2000/svg" xmlns:xlink="http://www.w3.org/1999/xlink">
    <!-- Generator: Sketch 63.1 (92452) - https://sketch.com -->
    <title>Sort By@2x</title>
    <desc>Created with Sketch.</desc>
    <g id="Category-Page" stroke="none" stroke-width="1" fill="none" fill-rule="evenodd">
        <g id="Hero-Product-First" transform="translate(-257.000000, -286.000000)" fill="#FFFFFF" fill-rule="nonzero">
            <g id="Filters" transform="translate(0.000000, 259.000000)">
                <g id="Group-12">
                    <g>
                        <g transform="translate(0.000000, 0.050000)">
                            <g id="CTA">
                                <g id="Group-8">
                                    <g id="sort" transform="translate(257.000000, 25.000000)">
                                        <g id="Group-3">
                                            <g id="Sort-By" transform="translate(0.000000, 1.950000)">
                                                <path d="M19.2628164,11.6447043 L16.5165477,14.2946371 L16.5165477,0 L15.4782609,0 L15.4782609,14.2946371 L12.7319922,11.6497042 L12,12.3546863 L15.6340039,15.8545974 C15.8365023,16.0484675 16.1634977,16.0484675 16.3659961,15.8545974 L20,12.3546863 L19.2628164,11.6447043 Z" id="Path"></path>
                                                <path d="M13,0 C13.2761424,0 13.5,0.223857625 13.5,0.5 C13.5,0.745459889 13.3231248,0.94960837 13.0898756,0.991944331 L13,1 L1,1 C0.723857625,1 0.5,0.776142375 0.5,0.5 C0.5,0.254540111 0.676875161,0.0503916296 0.910124368,0.00805566941 L1,0 L13,0 Z" id="Line-3"></path>
                                                <path d="M9,7 C9.27614237,7 9.5,7.22385763 9.5,7.5 C9.5,7.74545989 9.32312484,7.94960837 9.08987563,7.99194433 L9,8 L1,8 C0.723857625,8 0.5,7.77614237 0.5,7.5 C0.5,7.25454011 0.676875161,7.05039163 0.910124368,7.00805567 L1,7 L9,7 Z" id="Line-3"></path>
                                                <path d="M8,14 C8.27614237,14 8.5,14.2238576 8.5,14.5 C8.5,14.7454599 8.32312484,14.9496084 8.08987563,14.9919443 L8,15 L1,15 C0.723857625,15 0.5,14.7761424 0.5,14.5 C0.5,14.2545401 0.676875161,14.0503916 0.910124368,14.0080557 L1,14 L8,14 Z" id="Line-3"></path>
                                            </g>
                                        </g>
                                    </g>
                                </g>
                            </g>
                        </g>
                    </g>
                </g>
            </g>
        </g>
    </g>
</svg>