<?xml version="1.0" encoding="UTF-8"?>
<svg width="16px" height="15px" viewBox="0 0 16 15" version="1.1" xmlns="http://www.w3.org/2000/svg" xmlns:xlink="http://www.w3.org/1999/xlink">
    <!-- Generator: Sketch 53.2 (72643) - https://sketchapp.com -->
    <title>Fill 1</title>
    <desc>Created with Sketch.</desc>
    <g id="Symbols" stroke="none" stroke-width="1" fill="none" fill-rule="evenodd">
        <g id="Key-Benefits---Desktop---1" transform="translate(-1555.000000, -532.000000)" fill="#FFFFFF">
            <g id="Key-Benefits">
                <g id="Top-Shot">
                    <g id="Product-Details" transform="translate(1320.000000, 130.000000)">
                        <g id="CTAs" transform="translate(93.000000, 281.000000)">
                            <g id="Regimen/Wishlist" transform="translate(0.000000, 120.000000)">
                                <g id="Wish-List" transform="translate(142.000000, 0.000000)">
                                    <g id="Wishlist" transform="translate(0.000000, 1.000000)">
                                        <path d="M15.168489,5.4806737 C15.1187253,5.32783632 14.9876717,5.21883934 14.8287162,5.19386005 L10.0900169,4.52043252 L7.95765877,0.233815475 C7.88595536,0.0904086503 7.73939202,0 7.58043647,0 C7.42136401,0 7.27495655,0.0904086503 7.20325314,0.236855076 L5.09891386,4.53594228 L0.360175632,5.24058418 C0.201259048,5.26556347 0.0703613512,5.37471632 0.020402778,5.52739783 C-0.0295168259,5.68023521 0.0141676987,5.84842648 0.129555636,5.95757933 L3.56812395,9.29019027 L2.77322927,14.0102233 C2.74505451,14.1692957 2.81067872,14.3282123 2.94157641,14.4216606 C3.01327983,14.4747756 3.100493,14.5027945 3.18790102,14.5027945 C3.25636998,14.5027945 3.32183832,14.4872848 3.38426705,14.4528749 L7.61469044,12.2113639 L11.857623,14.4278956 C11.9200517,14.45911 11.985481,14.4747756 12.0509494,14.4747756 C12.2817253,14.4747756 12.4718562,14.2845278 12.4718562,14.0539078 C12.4718562,14.0196538 12.4688166,13.9884395 12.459386,13.9572251 L11.6395121,9.26540583 L15.0562966,5.91405069 C15.1779196,5.80170235 15.2184087,5.63335521 15.168489,5.4806737 Z M10.8975766,8.81951972 C10.7976984,8.91620241 10.7541698,9.05637479 10.7789932,9.19370241 L11.4929098,13.286993 L7.80801686,11.36351 C7.68639385,11.2980417 7.53994742,11.3010813 7.41512893,11.36351 L3.74274514,13.3087768 L4.43172141,9.20921217 C4.45346624,9.0720794 4.4099376,8.93490765 4.31009839,8.83826392 L1.32984738,5.94510917 L5.4418822,5.3340714 C5.57901497,5.31228759 5.69744251,5.22811402 5.75667576,5.1034514 L7.58351504,1.37167848 L9.43545051,5.09402085 C9.49772336,5.21883934 9.6161509,5.30285703 9.75328368,5.32479672 L13.868514,5.91085521 L10.8975766,8.81951972 Z" id="Fill-1"></path>
                                    </g>
                                </g>
                            </g>
                        </g>
                    </g>
                </g>
            </g>
        </g>
    </g>
</svg>