<?xml version="1.0" encoding="UTF-8"?>
<svg width="16px" height="15px" viewBox="0 0 16 15" version="1.1" xmlns="http://www.w3.org/2000/svg" xmlns:xlink="http://www.w3.org/1999/xlink">
    <!-- Generator: Sketch 53.2 (72643) - https://sketchapp.com -->
    <title>Fill 1</title>
    <desc>Created with Sketch.</desc>
    <g id="🌑-PDP---Mobile-375" stroke="none" stroke-width="1" fill="none" fill-rule="evenodd">
        <g id="PDP-(Top-20)-Mobile---375---Added-to-Wishlist" transform="translate(-186.000000, -818.000000)" fill="#FFFFFF">
            <g id="Skin-Caviar-Hero" transform="translate(0.000000, 56.000000)">
                <g id="Regimen/Wishlist" transform="translate(44.000000, 761.000000)">
                    <g id="Wish-List" transform="translate(142.000000, 0.000000)">
                        <g id="Wishlist" transform="translate(0.000000, 1.000000)">
                            <path d="M15.168489,5.4806737 C15.1187253,5.32783632 14.9876717,5.21883934 14.8287162,5.19386005 L10.0900169,4.52043252 L7.95765877,0.233815475 C7.88595536,0.0904086503 7.73939202,0 7.58043647,0 C7.42136401,0 7.27495655,0.0904086503 7.20325314,0.236855076 L5.09891386,4.53594228 L0.360175632,5.24058418 C0.201259048,5.26556347 0.0703613512,5.37471632 0.020402778,5.52739783 C-0.0295168259,5.68023521 0.0141676987,5.84842648 0.129555636,5.95757933 L3.56812395,9.29019027 L2.77322927,14.0102233 C2.74505451,14.1692957 2.81067872,14.3282123 2.94157641,14.4216606 C3.01327983,14.4747756 3.100493,14.5027945 3.18790102,14.5027945 C3.25636998,14.5027945 3.32183832,14.4872848 3.38426705,14.4528749 L7.61469044,12.2113639 L11.857623,14.4278956 C11.9200517,14.45911 11.985481,14.4747756 12.0509494,14.4747756 C12.2817253,14.4747756 12.4718562,14.2845278 12.4718562,14.0539078 C12.4718562,14.0196538 12.4688166,13.9884395 12.459386,13.9572251 L11.6395121,9.26540583 L15.0562966,5.91405069 C15.1779196,5.80170235 15.2184087,5.63335521 15.168489,5.4806737 Z" id="Fill-1"></path>
                        </g>
                    </g>
                </g>
            </g>
        </g>
    </g>
</svg>