<?xml version="1.0" encoding="UTF-8"?>
<svg width="22px" height="14px" viewBox="0 0 22 14" version="1.1" xmlns="http://www.w3.org/2000/svg" xmlns:xlink="http://www.w3.org/1999/xlink">
    <!-- Generator: sketchtool 61 (101010) - https://sketch.com -->
    <title>D56E347B-793C-4467-844C-93DFE565B1CC</title>
    <desc>Created with sketchtool.</desc>
    <g id="Asset-Artboard-Page" stroke="none" stroke-width="1" fill="none" fill-rule="evenodd">
        <g id="Icons/video-camera" fill="#FFFFFF" fill-rule="nonzero" stroke="#FFFFFF" stroke-width="0.4">
            <g id="video-camera">
                <path d="M13.8102382,13.7092308 L1.5174762,13.7092308 C0.680952385,13.7092308 0,13.0097693 0,12.1498462 L0,1.72038463 C0,0.861000007 0.680952385,0.161538466 1.5174762,0.161538466 L13.8102382,0.161538466 C14.646762,0.161538466 15.3271906,0.861000007 15.3271906,1.72092309 L15.3271906,12.1503847 C15.3271906,13.0097693 14.646762,13.7092308 13.8102382,13.7092308 Z M1.51747619,0.700000009 C0.970095252,0.700000009 0.523809547,1.15769233 0.523809547,1.72038466 L0.523809547,12.1498466 C0.523809547,12.7125389 0.970095252,13.1707697 1.51747619,13.1707697 L13.8102378,13.1707697 C14.3576188,13.1707697 14.8033807,12.7130774 14.8033807,12.1498466 L14.8033807,1.72038466 C14.8033807,1.15769233 14.3576188,0.699461548 13.8102378,0.699461548 L1.51747619,0.699461548 L1.51747619,0.700000009 Z" id="Shape"></path>
                <path d="M21.6123811,12.2392312 C21.5568573,12.2392312 21.5018573,12.2209235 21.4552383,12.185385 L14.9081432,7.14861559 C14.8421432,7.09746174 14.8033813,7.01776943 14.8033813,6.93323096 C14.8033813,6.8486925 14.8421432,6.76846173 14.9081432,6.71784634 L21.4536669,1.68430768 C21.5338097,1.62346152 21.6396192,1.61323075 21.7276192,1.65899998 C21.8166669,1.70476922 21.8721907,1.79792307 21.8721907,1.8996923 L21.8742859,11.9700004 C21.8742859,12.0717696 21.8187621,12.1649235 21.7297145,12.2106927 C21.692524,12.2300773 21.6521907,12.2392312 21.6123811,12.2392312 Z M15.502667,6.9337691 L21.3504763,11.4320767 L21.3489049,2.43761537 L15.502667,6.9337691 Z" id="Shape"></path>
            </g>
        </g>
    </g>
</svg>