<?xml version="1.0" encoding="UTF-8"?>
<svg width="48px" height="16px" viewBox="0 0 48 16" version="1.1" xmlns="http://www.w3.org/2000/svg" xmlns:xlink="http://www.w3.org/1999/xlink">
    <!-- Generator: sketchtool 55.2 (78181) - https://sketchapp.com -->
    <title>FA495D15-2780-48D7-AE96-E7195BDBA81C</title>
    <desc>Created with sketchtool.</desc>
    <defs>
        <path d="M7.63704977,0.0788515885 C6.7000918,0.0790279903 6.15545135,0.441798218 5.79224012,1.30837188 L5.79224012,1.30837188 C4.11465935,5.30925209 2.43690217,9.3101323 0.760027,13.3111889 L0.760027,13.3111889 C0.525500855,13.8705589 0.294590946,14.4312519 0.0507155072,15.0185816 L0.0507155072,15.0185816 C1.38898749,15.0185816 2.6895977,15.0214922 3.9902961,15.0101143 L3.9902961,15.0101143 C4.05882819,15.0095851 4.15875979,14.9003042 4.18901269,14.820747 L4.18901269,14.820747 C4.41145531,14.2342993 4.62887049,13.6453821 4.82758708,13.0507317 L4.82758708,13.0507317 C4.89409054,12.8515741 4.98088021,12.779514 5.19926559,12.781278 L5.19926559,12.781278 C6.64232022,12.7927441 8.08555126,12.7973306 9.52834128,12.778632 L9.52834128,12.778632 C9.81746377,12.7750158 9.9002844,12.8754766 9.94658987,13.1345225 L9.94658987,13.1345225 C10.0580758,13.7587202 10.1992854,14.377714 10.3309693,15.0102907 L10.3309693,15.0102907 L13.9292125,15.0102907 L13.9292125,14.904185 C13.8129637,14.3997642 13.6879831,13.8972838 13.5819656,13.3909225 L13.5819656,13.3909225 C12.7547295,9.43731797 11.9315507,5.48291963 11.1062551,1.52896229 L11.1062551,1.52896229 C11.0057943,1.04729727 10.9006588,0.566602466 10.796229,0.0788515885 L10.796229,0.0788515885 C10.082331,0.0788515885 9.3803402,0.0788515885 8.68223022,0.0788515885 L8.68223022,0.0788515885 C8.33321933,0.0788515885 7.98509045,0.0788515885 7.63704977,0.0788515885 M8.03324813,4.22896769 C8.04868329,4.23196652 8.06420664,4.23496535 8.0796418,4.23796418 L8.0796418,4.23796418 C8.45793538,6.05190352 8.83631716,7.86575466 9.2198146,9.70439024 L9.2198146,9.70439024 L6.04819908,9.70439024 C6.71482135,7.86575466 7.37412294,6.04740527 8.03324813,4.22896769" id="path-1"></path>
        <path d="M7.29562416,0.0776167762 C7.22118261,0.0956097561 7.14779948,0.121452615 7.07229952,0.130537305 L7.07229952,0.130537305 C5.71374134,0.295208352 4.43862119,0.686908469 3.36459905,1.5697111 L3.36459905,1.5697111 C2.1302277,2.58428584 1.53354874,3.8899235 1.70651067,5.49800198 L1.70651067,5.49800198 C1.82205382,6.57202412 2.43125731,7.3800324 3.27242912,7.98606066 L3.27242912,7.98606066 C3.92864369,8.45881739 4.66538565,8.81885339 5.35882099,9.24124741 L5.35882099,9.24124741 C5.80282423,9.51167132 6.27125911,9.76066241 6.66093061,10.0975898 L6.66093061,10.0975898 C7.25372874,10.6103897 7.19145891,11.4305697 6.5402718,11.8670759 L6.5402718,11.8670759 C6.2402124,12.0681739 5.87920619,12.224554 5.52516785,12.2907929 L5.52516785,12.2907929 C4.16449284,12.5456935 2.85171092,12.3114319 1.5803834,11.7992494 L1.5803834,11.7992494 C1.31428134,11.6919971 1.05391234,11.5705445 0.776608766,11.4494447 L0.776608766,11.4494447 C0.540054001,12.5576888 0.309761498,13.63568 0.0799099991,14.7121717 L0.0799099991,14.7121717 C0.128508685,14.7425128 0.156203762,14.7654451 0.187867879,14.7784106 L0.187867879,14.7784106 C0.294238142,14.8219818 0.400432004,14.8666997 0.509536495,14.9025974 L0.509536495,14.9025974 C2.13666637,15.4370948 3.80595626,15.6277851 5.50893889,15.4692881 L5.50893889,15.4692881 C6.72866889,15.3558618 7.89909459,15.0493637 8.93342633,14.3631608 L8.93342633,14.3631608 C10.5783728,13.2720277 11.302502,11.7295707 11.0584502,9.77142291 L11.0584502,9.77142291 C10.920504,8.66423724 10.263231,7.84538025 9.36208262,7.2497597 L9.36208262,7.2497597 C8.59693997,6.74410404 7.7703213,6.33229412 6.98304023,5.85891999 L6.98304023,5.85891999 C6.63667537,5.65067771 6.2902223,5.42461885 5.99774818,5.14925569 L5.99774818,5.14925569 C5.57367834,4.7497939 5.5795878,4.20233102 6.02359104,3.82192062 L6.02359104,3.82192062 C6.28246062,3.6000954 6.61524255,3.42422284 6.94387904,3.33258213 L6.94387904,3.33258213 C7.75268113,3.10722887 8.58106381,3.17523175 9.3895131,3.35366214 L9.3895131,3.35366214 C9.98063541,3.48411124 10.555617,3.68732607 11.1573234,3.86363964 L11.1573234,3.86363964 C11.376679,2.83724597 11.601062,1.78827288 11.8309135,0.713545135 L11.8309135,0.713545135 C11.3749149,0.583625236 10.9549023,0.445590856 10.5258051,0.346717667 L10.5258051,0.346717667 C10.0556062,0.238230582 9.57711637,0.165729457 9.10224282,0.0776167762 L9.10224282,0.0776167762 L7.29562416,0.0776167762 Z" id="path-3"></path>
        <path d="M13.964581,0.307732877 C12.700486,3.52371344 11.4296877,6.73687157 10.1592422,9.9503825 L10.1592422,9.9503825 C10.1350752,10.0114175 10.0980308,10.0675133 10.0450221,10.1671803 L10.0450221,10.1671803 C10.0110647,9.999775 9.98548645,9.88132121 9.96299523,9.76242642 L9.96299523,9.76242642 C9.4501071,7.04257583 8.94189362,4.32193142 8.42256683,1.60331563 L8.42256683,1.60331563 C8.23919719,0.64298443 7.53879399,0.0793807938 6.56858429,0.0791161912 L6.56858429,0.0791161912 C4.52302943,0.0784105841 2.47747457,0.0788515885 0.431919719,0.0788515885 L0.431919719,0.0788515885 C0.00573305733,0.0788515885 0.00573305733,0.0788515885 0,0.52700027 L0,0.52700027 C0.0476284763,0.538907389 0.0979911799,0.552137521 0.148794888,0.564132841 L0.148794888,0.564132841 C1.29408334,0.836056161 2.41688057,1.17069031 3.49857619,1.64697507 L3.49857619,1.64697507 C4.17340113,1.94421204 4.53308433,2.42843488 4.71292593,3.13739357 L4.71292593,3.13739357 C5.69257313,7.00173882 6.7000036,10.8589398 7.69085231,14.7203744 L7.69085231,14.7203744 C7.74791828,14.9427288 7.82871029,15.0296067 8.07655477,15.0262648 L8.07655477,15.0262648 C9.24512825,15.0100261 10.4142309,15.0139069 11.5829808,15.023609 L11.5829808,15.023609 C11.7966034,15.0253731 11.9041202,14.9700711 11.9919683,14.7594474 L11.9919683,14.7594474 C13.836337,10.3383782 15.6905841,5.92163082 17.5424498,1.50391324 L17.5424498,1.50391324 C17.7364036,1.04121141 17.9277113,0.577451175 18.1299559,0.0910233102 L18.1299559,0.0910233102 C18.0213806,0.0860840608 17.9445576,0.0793807938 17.8679111,0.0792925929 L17.8679111,0.0792925929 C17.5377752,0.079204392 17.2076393,0.0793807938 16.8775034,0.0796453965 L16.8775034,0.0796453965 C16.0210728,0.0802628026 15.164554,0.0809684097 14.3082117,0.0740887409 L14.3082117,0.0740887409 C14.3057421,0.0740887409 14.3033606,0.0740887409 14.3009792,0.0740887409 L14.3009792,0.0740887409 C14.1163748,0.0740887409 14.0327603,0.134418144 13.964581,0.307732877" id="path-5"></path>
        <path d="M3.28063181,0.00661506615 C2.21701737,4.97770498 1.15587256,9.93671137 0.0872306723,14.9307335 L0.0872306723,14.9307335 L0.405635856,14.9307335 C1.46819188,14.9307335 2.53101251,14.9183854 3.59312753,14.938848 L3.59312753,14.938848 C3.88939429,14.944581 3.9904725,14.8538223 4.05080191,14.5684043 L4.05080191,14.5684043 C4.91922779,10.46036 5.80061921,6.35487355 6.67865899,2.24885789 L6.67865899,2.24885789 C6.83742057,1.50647106 6.99521195,0.763731437 7.15653137,0.00661506615 L7.15653137,0.00661506615 L3.28063181,0.00661506615 Z" id="path-7"></path>
    </defs>
    <g id="🇺🇸🇪🇺-Checkout---Large-1366-&amp;-1920" stroke="none" stroke-width="1" fill="none" fill-rule="evenodd">
        <g id="Returning-Checkout---Payment-Default--Desktop" transform="translate(-472.000000, -730.000000)">
            <g id="Payment-Method" transform="translate(63.000000, 362.000000)">
                <g id="payment-method-choices" transform="translate(0.000000, 52.000000)">
                    <g id="Payment-icons-Checkout" transform="translate(409.000000, 311.000000)">
                        <g id="Visa">
                            <g transform="translate(0.000000, 5.000000)">
                                <g id="Group-3" transform="translate(33.869139, 0.275275)">
                                    <mask id="mask-2" fill="white">
                                        <use xlink:href="#path-1"></use>
                                    </mask>
                                    <g id="Clip-2"></g>
                                    <path d="M7.63704977,0.0788515885 C6.7000918,0.0790279903 6.15545135,0.441798218 5.79224012,1.30837188 L5.79224012,1.30837188 C4.11465935,5.30925209 2.43690217,9.3101323 0.760027,13.3111889 L0.760027,13.3111889 C0.525500855,13.8705589 0.294590946,14.4312519 0.0507155072,15.0185816 L0.0507155072,15.0185816 C1.38898749,15.0185816 2.6895977,15.0214922 3.9902961,15.0101143 L3.9902961,15.0101143 C4.05882819,15.0095851 4.15875979,14.9003042 4.18901269,14.820747 L4.18901269,14.820747 C4.41145531,14.2342993 4.62887049,13.6453821 4.82758708,13.0507317 L4.82758708,13.0507317 C4.89409054,12.8515741 4.98088021,12.779514 5.19926559,12.781278 L5.19926559,12.781278 C6.64232022,12.7927441 8.08555126,12.7973306 9.52834128,12.778632 L9.52834128,12.778632 C9.81746377,12.7750158 9.9002844,12.8754766 9.94658987,13.1345225 L9.94658987,13.1345225 C10.0580758,13.7587202 10.1992854,14.377714 10.3309693,15.0102907 L10.3309693,15.0102907 L13.9292125,15.0102907 L13.9292125,14.904185 C13.8129637,14.3997642 13.6879831,13.8972838 13.5819656,13.3909225 L13.5819656,13.3909225 C12.7547295,9.43731797 11.9315507,5.48291963 11.1062551,1.52896229 L11.1062551,1.52896229 C11.0057943,1.04729727 10.9006588,0.566602466 10.796229,0.0788515885 L10.796229,0.0788515885 C10.082331,0.0788515885 9.3803402,0.0788515885 8.68223022,0.0788515885 L8.68223022,0.0788515885 C8.33321933,0.0788515885 7.98509045,0.0788515885 7.63704977,0.0788515885 M8.03324813,4.22896769 C8.04868329,4.23196652 8.06420664,4.23496535 8.0796418,4.23796418 L8.0796418,4.23796418 C8.45793538,6.05190352 8.83631716,7.86575466 9.2198146,9.70439024 L9.2198146,9.70439024 L6.04819908,9.70439024 C6.71482135,7.86575466 7.37412294,6.04740527 8.03324813,4.22896769" id="Fill-1" fill="#FFFFFF" mask="url(#mask-2)"></path>
                                </g>
                                <g id="Group-6" transform="translate(23.020430, 0.010672)">
                                    <mask id="mask-4" fill="white">
                                        <use xlink:href="#path-3"></use>
                                    </mask>
                                    <g id="Clip-5"></g>
                                    <path d="M7.29562416,0.0776167762 C7.22118261,0.0956097561 7.14779948,0.121452615 7.07229952,0.130537305 L7.07229952,0.130537305 C5.71374134,0.295208352 4.43862119,0.686908469 3.36459905,1.5697111 L3.36459905,1.5697111 C2.1302277,2.58428584 1.53354874,3.8899235 1.70651067,5.49800198 L1.70651067,5.49800198 C1.82205382,6.57202412 2.43125731,7.3800324 3.27242912,7.98606066 L3.27242912,7.98606066 C3.92864369,8.45881739 4.66538565,8.81885339 5.35882099,9.24124741 L5.35882099,9.24124741 C5.80282423,9.51167132 6.27125911,9.76066241 6.66093061,10.0975898 L6.66093061,10.0975898 C7.25372874,10.6103897 7.19145891,11.4305697 6.5402718,11.8670759 L6.5402718,11.8670759 C6.2402124,12.0681739 5.87920619,12.224554 5.52516785,12.2907929 L5.52516785,12.2907929 C4.16449284,12.5456935 2.85171092,12.3114319 1.5803834,11.7992494 L1.5803834,11.7992494 C1.31428134,11.6919971 1.05391234,11.5705445 0.776608766,11.4494447 L0.776608766,11.4494447 C0.540054001,12.5576888 0.309761498,13.63568 0.0799099991,14.7121717 L0.0799099991,14.7121717 C0.128508685,14.7425128 0.156203762,14.7654451 0.187867879,14.7784106 L0.187867879,14.7784106 C0.294238142,14.8219818 0.400432004,14.8666997 0.509536495,14.9025974 L0.509536495,14.9025974 C2.13666637,15.4370948 3.80595626,15.6277851 5.50893889,15.4692881 L5.50893889,15.4692881 C6.72866889,15.3558618 7.89909459,15.0493637 8.93342633,14.3631608 L8.93342633,14.3631608 C10.5783728,13.2720277 11.302502,11.7295707 11.0584502,9.77142291 L11.0584502,9.77142291 C10.920504,8.66423724 10.263231,7.84538025 9.36208262,7.2497597 L9.36208262,7.2497597 C8.59693997,6.74410404 7.7703213,6.33229412 6.98304023,5.85891999 L6.98304023,5.85891999 C6.63667537,5.65067771 6.2902223,5.42461885 5.99774818,5.14925569 L5.99774818,5.14925569 C5.57367834,4.7497939 5.5795878,4.20233102 6.02359104,3.82192062 L6.02359104,3.82192062 C6.28246062,3.6000954 6.61524255,3.42422284 6.94387904,3.33258213 L6.94387904,3.33258213 C7.75268113,3.10722887 8.58106381,3.17523175 9.3895131,3.35366214 L9.3895131,3.35366214 C9.98063541,3.48411124 10.555617,3.68732607 11.1573234,3.86363964 L11.1573234,3.86363964 C11.376679,2.83724597 11.601062,1.78827288 11.8309135,0.713545135 L11.8309135,0.713545135 C11.3749149,0.583625236 10.9549023,0.445590856 10.5258051,0.346717667 L10.5258051,0.346717667 C10.0556062,0.238230582 9.57711637,0.165729457 9.10224282,0.0776167762 L9.10224282,0.0776167762 L7.29562416,0.0776167762 Z" id="Fill-4" fill="#FFFFFF" mask="url(#mask-4)"></path>
                                </g>
                                <g id="Group-9" transform="translate(0.000000, 0.275275)">
                                    <mask id="mask-6" fill="white">
                                        <use xlink:href="#path-5"></use>
                                    </mask>
                                    <g id="Clip-8"></g>
                                    <path d="M13.964581,0.307732877 C12.700486,3.52371344 11.4296877,6.73687157 10.1592422,9.9503825 L10.1592422,9.9503825 C10.1350752,10.0114175 10.0980308,10.0675133 10.0450221,10.1671803 L10.0450221,10.1671803 C10.0110647,9.999775 9.98548645,9.88132121 9.96299523,9.76242642 L9.96299523,9.76242642 C9.4501071,7.04257583 8.94189362,4.32193142 8.42256683,1.60331563 L8.42256683,1.60331563 C8.23919719,0.64298443 7.53879399,0.0793807938 6.56858429,0.0791161912 L6.56858429,0.0791161912 C4.52302943,0.0784105841 2.47747457,0.0788515885 0.431919719,0.0788515885 L0.431919719,0.0788515885 C0.00573305733,0.0788515885 0.00573305733,0.0788515885 0,0.52700027 L0,0.52700027 C0.0476284763,0.538907389 0.0979911799,0.552137521 0.148794888,0.564132841 L0.148794888,0.564132841 C1.29408334,0.836056161 2.41688057,1.17069031 3.49857619,1.64697507 L3.49857619,1.64697507 C4.17340113,1.94421204 4.53308433,2.42843488 4.71292593,3.13739357 L4.71292593,3.13739357 C5.69257313,7.00173882 6.7000036,10.8589398 7.69085231,14.7203744 L7.69085231,14.7203744 C7.74791828,14.9427288 7.82871029,15.0296067 8.07655477,15.0262648 L8.07655477,15.0262648 C9.24512825,15.0100261 10.4142309,15.0139069 11.5829808,15.023609 L11.5829808,15.023609 C11.7966034,15.0253731 11.9041202,14.9700711 11.9919683,14.7594474 L11.9919683,14.7594474 C13.836337,10.3383782 15.6905841,5.92163082 17.5424498,1.50391324 L17.5424498,1.50391324 C17.7364036,1.04121141 17.9277113,0.577451175 18.1299559,0.0910233102 L18.1299559,0.0910233102 C18.0213806,0.0860840608 17.9445576,0.0793807938 17.8679111,0.0792925929 L17.8679111,0.0792925929 C17.5377752,0.079204392 17.2076393,0.0793807938 16.8775034,0.0796453965 L16.8775034,0.0796453965 C16.0210728,0.0802628026 15.164554,0.0809684097 14.3082117,0.0740887409 L14.3082117,0.0740887409 C14.3057421,0.0740887409 14.3033606,0.0740887409 14.3009792,0.0740887409 L14.3009792,0.0740887409 C14.1163748,0.0740887409 14.0327603,0.134418144 13.964581,0.307732877" id="Fill-7" fill="#FFFFFF" mask="url(#mask-6)"></path>
                                </g>
                                <g id="Group-12" transform="translate(16.493565, 0.363476)">
                                    <mask id="mask-8" fill="white">
                                        <use xlink:href="#path-7"></use>
                                    </mask>
                                    <g id="Clip-11"></g>
                                    <path d="M3.28063181,0.00661506615 C2.21701737,4.97770498 1.15587256,9.93671137 0.0872306723,14.9307335 L0.0872306723,14.9307335 L0.405635856,14.9307335 C1.46819188,14.9307335 2.53101251,14.9183854 3.59312753,14.938848 L3.59312753,14.938848 C3.88939429,14.944581 3.9904725,14.8538223 4.05080191,14.5684043 L4.05080191,14.5684043 C4.91922779,10.46036 5.80061921,6.35487355 6.67865899,2.24885789 L6.67865899,2.24885789 C6.83742057,1.50647106 6.99521195,0.763731437 7.15653137,0.00661506615 L7.15653137,0.00661506615 L3.28063181,0.00661506615 Z" id="Fill-10" fill="#FFFFFF" mask="url(#mask-8)"></path>
                                </g>
                            </g>
                        </g>
                    </g>
                </g>
            </g>
        </g>
    </g>
</svg>