<?xml version="1.0" encoding="UTF-8"?>
<svg width="14px" height="14px" viewBox="0 0 14 14" version="1.1" xmlns="http://www.w3.org/2000/svg" xmlns:xlink="http://www.w3.org/1999/xlink">
    <!-- Generator: Sketch 54.1 (76490) - https://sketchapp.com -->
    <title>levels</title>
    <desc>Created with Sketch.</desc>
    <g id="Symbols" stroke="none" stroke-width="1" fill="none" fill-rule="evenodd">
        <g id="1366-/-Modules-/-Key-Benefits" transform="translate(-976.000000, -426.000000)" fill="#2F3335">
            <g id="Key-Benefits" transform="translate(0.000000, 1.000000)">
                <g id="Top-Shot">
                    <g id="CTAs" transform="translate(976.000000, 302.000000)">
                        <g id="Regimen/Wishlist" transform="translate(0.000000, 120.000000)">
                            <g id="Your-Regimen-Builder">
                                <g id="levels" transform="translate(0.000000, 3.000000)">
                                    <path d="M0.446808511,2.22354255 L2.7841383,2.22354255 C2.98252128,2.9766383 3.66926596,3.53395745 4.48379787,3.53395745 C5.29855319,3.53395745 5.98537234,2.9766383 6.18375532,2.22354255 L13.4935426,2.22354255 C13.7402553,2.22354255 13.9403511,2.02337234 13.9403511,1.77673404 C13.9403511,1.5297234 13.7402553,1.32992553 13.4935426,1.32992553 L6.18345745,1.32992553 C5.98537234,0.576457447 5.29855319,0.0191382979 4.48379787,0.0191382979 C3.66926596,0.0191382979 2.9822234,0.576457447 2.7841383,1.32992553 L0.446808511,1.32992553 C0.200170213,1.32992553 0,1.5297234 0,1.77673404 C0,2.02337234 0.200170213,2.22354255 0.446808511,2.22354255 Z M4.48379787,0.912755319 C4.96024468,0.912755319 5.34770213,1.30021277 5.34770213,1.77673404 C5.34770213,2.25288298 4.96024468,2.64034043 4.48379787,2.64034043 C4.00757447,2.64034043 3.62011702,2.25288298 3.62011702,1.77673404 C3.62011702,1.30021277 4.00757447,0.912755319 4.48379787,0.912755319 Z" id="Fill-1"></path>
                                    <path d="M13.4935426,6.21078723 L10.5154149,6.21078723 C10.3173298,5.45731915 9.63051064,4.9 8.81575532,4.9 C8.00092553,4.9 7.31418085,5.45731915 7.11609574,6.21078723 L0.446808511,6.21078723 C0.200170213,6.21078723 0,6.41058511 0,6.65759574 C0,6.90423404 0.200170213,7.10440426 0.446808511,7.10440426 L7.11609574,7.10440426 C7.31447872,7.8575 8.0012234,8.41481915 8.81575532,8.41481915 C9.63051064,8.41481915 10.3173298,7.8575 10.5154149,7.10440426 L13.4935426,7.10440426 C13.7405532,7.10440426 13.9403511,6.90423404 13.9403511,6.65759574 C13.9403511,6.41058511 13.7402553,6.21078723 13.4935426,6.21078723 Z M8.81575532,7.52120213 C8.33953191,7.52120213 7.95207447,7.13374468 7.95207447,6.65759574 C7.95207447,6.18107447 8.33953191,5.79361702 8.81575532,5.79361702 C9.29220213,5.79361702 9.67965957,6.18107447 9.67965957,6.65759574 C9.67965957,7.13374468 9.29220213,7.52120213 8.81575532,7.52120213 Z" id="Fill-3"></path>
                                    <path d="M13.4935426,11.0916489 L6.18345745,11.0916489 C5.98537234,10.3381809 5.29855319,9.7808617 4.48379787,9.7808617 C3.66926596,9.7808617 2.9822234,10.3381809 2.7841383,11.0916489 L0.446808511,11.0916489 C0.200170213,11.0916489 0,11.2914468 0,11.5384574 C0,11.7850957 0.200170213,11.985266 0.446808511,11.985266 L2.7841383,11.985266 C2.98252128,12.7386596 3.66926596,13.2956809 4.48379787,13.2956809 C5.29855319,13.2956809 5.98537234,12.7386596 6.18375532,11.985266 L13.4935426,11.985266 C13.7402553,11.985266 13.9403511,11.7850957 13.9403511,11.5384574 C13.9403511,11.2914468 13.7402553,11.0916489 13.4935426,11.0916489 Z M4.48379787,12.4020638 C4.00757447,12.4020638 3.62011702,12.0146064 3.62011702,11.5384574 C3.62011702,11.0619362 4.00757447,10.6744787 4.48379787,10.6744787 C4.96024468,10.6744787 5.34770213,11.0619362 5.34770213,11.5384574 C5.34770213,12.0146064 4.96024468,12.4020638 4.48379787,12.4020638 Z" id="Fill-4"></path>
                                </g>
                            </g>
                        </g>
                    </g>
                </g>
            </g>
        </g>
    </g>
</svg>